<svg xmlns="http://www.w3.org/2000/svg">
	<symbol id="otogedb-logo" viewBox="0 0 710 125">
		<path d="M514.62 66.26v6.28h-52.33V53.71h52.33v6.28h7.43v6.28h-7.43Zm90.73-18.56v29.44c0 26.23-19.9 45.64-47.12 45.64h-43.61V72.53h7.43v-6.28h7.43v-6.28h-7.43v-6.28h-7.43V2.22h43.61c27.22 0 47.12 19.16 47.12 45.48m-22.2 1.64c0-16.36-12.01-28.29-28.29-28.29h-9.4c-4.85 0-8.55 3.04-8.55 7.4v68.09c0 4.36 3.7 7.4 8.55 7.4h9.4c16.28 0 28.29-12.01 28.29-28.29V49.33Zm31.71 10.64v6.28h7.43v-6.28zm72.74 2.32c5.09-2.41 12.3-10.28 12.3-26.85 0-19.2-14.47-33.23-41.4-33.23h-43.63V53.7h7.43v6.28h7.43v6.28h-7.43v6.28h-7.43v50.25h41.28c28.45 0 47.2-6.91 47.2-34.54 0-13.73-8.46-23.44-15.75-25.94Zm-50.45-31.87c0-5.67 3.7-9.37 9.37-9.37h7.54c17.02 0 24.02 5.03 24.02 14.36 0 14.88-6.3 18.29-23.32 18.29h-9.06c-5.18 0-8.55-3.04-8.55-7.4V30.44Zm16.91 73.52h-7.54c-5.67 0-9.37-3.7-9.37-9.37V79.94c0-4.36 3.37-7.4 8.55-7.4h9.06c17.02 0 26.3-.52 26.3 15.1 0 12.66-8.19 16.31-27 16.31" fill="#288cc3"/>
		<path fill="currentColor" d="M0 81V43.75C0 17.52 18.91 0 47.2 0s47.12 17.52 47.12 43.75V81c0 26.48-18.83 44-47.12 44S0 107.48 0 81m47.2 24.26c14.97 0 24.92-10.28 24.92-25.74V45.47c0-15.46-9.95-25.74-24.92-25.74S22.28 30.01 22.28 45.47v34.05c0 15.46 9.95 25.74 24.92 25.74M182.97 81V43.75c0-26.23 18.91-43.75 47.2-43.75s47.12 17.52 47.12 43.75V81c0 26.48-18.83 44-47.12 44s-47.2-17.52-47.2-44m47.2 24.26c14.97 0 24.92-10.28 24.92-25.74V45.47c0-15.46-9.95-25.74-24.92-25.74s-24.92 10.28-24.92 25.74v34.05c0 15.46 9.95 25.74 24.92 25.74M287.82 81V43.75c0-26.23 18.91-43.75 47.2-43.75s47.12 17.52 47.12 44.65h-22.2c0-14.64-9.95-24.92-24.92-24.92S310.1 30.01 310.1 45.47v34.05c0 15.46 9.79 25.74 25.41 25.74 13.16 0 23.6-7.24 23.6-22.53v-1.07c0-6.74-3.7-9.13-10.77-9.13h-13.36V53.7h47.16v24.75c0 29.03-18.83 46.55-47.12 46.55s-47.2-17.52-47.2-44m150.05 24.26c-15.62 0-25.41-10.28-25.41-25.74v-6.99h28.13V53.7h-28.13v-8.22c0-15.46 9.95-25.74 24.92-25.74s24.92 10.28 24.92 24.92h21.98C484.28 17.52 465.66 0 437.37 0s-47.2 17.52-47.2 43.75V81c0 26.48 18.91 44 47.2 44 26.52 0 44.73-15.39 46.9-41.23h-21.98c-.47 14.58-11.57 21.49-24.42 21.49m-320.6-84.21H96.55V2.22h84.21v18.83h-21.55c-5.35 0-9.46 4.03-9.46 9.46v92.27h-22.2V31.33c0-5.92-4.36-10.28-10.28-10.28"/>
	</symbol>

	<symbol id="icon-switch" width="16" height="16" viewBox="0 0 256 256">
		<path fill="currentColor" d="M178 10.6c-4.7 1.7-8.1 5.3-9.8 10.1-.6 1.9-.8 4.6-.8 15.4v13l-73 .1-73 .1-2.5 1.2c-3.2 1.5-6.1 4.5-7.6 7.6-1.7 3.5-1.7 9.7 0 13.3 1.5 3.1 4.5 6.1 7.6 7.6l2.5 1.2 73 .1 73 .1.1 13.9c.1 13.6.1 13.9 1.4 16.3 2.6 5.2 7.4 8.5 13 9 3.9.3 7.1-.6 11.3-3.5 4.5-3 45.6-37.3 48.1-40 3.6-4.1 4.7-6.6 4.7-11.5 0-4.7-1-7.2-4.5-11.3-1.7-2-38.9-33.2-45.8-38.5-4.9-3.7-7.7-5-11.7-5.2-2.6.2-4.2.4-6 1M68.3 136.5c-3.8 1.4-7.8 4.4-28.6 21.6-22.5 18.6-26.1 22-28.3 26.1-1.2 2.2-1.4 3.2-1.4 6.7 0 3.6.2 4.5 1.4 6.7.7 1.4 2.6 3.9 4.2 5.6 3.6 3.8 44.6 37.7 48.1 39.8 4.1 2.5 6.4 3.2 10.1 2.9 5.8-.4 10.6-3.7 13.2-9 1.2-2.4 1.2-2.7 1.4-16.3l.1-13.9 73-.1 73-.1 2.5-1.2c3.2-1.5 6.1-4.5 7.6-7.6 1.7-3.5 1.7-9.8 0-13.3-1.5-3.2-4.5-6.1-7.6-7.6l-2.5-1.2-73-.1-73-.1-.1-13.9c-.1-13.6-.1-13.9-1.4-16.3-1.6-3.2-4.9-6.5-7.8-7.7-2.8-1.6-8.3-1.9-10.9-1"/>
	</symbol>

	<symbol id="icon-song" width="16" height="16" viewBox="0 0 16 16">
		<path fill="currentColor" d="M14,0H2C.9,0,0,.9,0,2v12c0,1.1.9,2,2,2h12c1.1,0,2-.9,2-2V2c0-1.1-.9-2-2-2ZM12.08,7.19c-.95-.7-2.44-.98-3.45-1.08v4.94s-.03,0-.03,0c.01.08.03.16.03.24,0,1.09-1.06,1.97-2.36,1.97s-2.36-.88-2.36-1.97,1.06-1.97,2.36-1.97c.48,0,.93.12,1.3.33V3.19c0-.34.37-.56.67-.38.88.52,2.43,1.48,3.29,2.36.36.37.55.87.55,1.38v.64Z"/>
	</symbol>

	<symbol id="icon-charts" width="16" height="16" viewBox="0 0 16 16">
		<path fill="currentColor" d="M16,6v9c0,.55-.45,1-1,1H6c-.55,0-1-.45-1-1v-1h7.5c.83,0,1.5-.67,1.5-1.5v-7.5h1c.55,0,1,.45,1,1ZM13.5,12.5V3.27c0-.43-.35-.77-.77-.77h-1.23v7.5c0,.83-.67,1.5-1.5,1.5H2.5v1c0,.55.45,1,1,1h9c.55,0,1-.45,1-1ZM10,11H1c-.55,0-1-.45-1-1v-5.63h1.5v4.4h1.28V2.39h-1.04c0,.06-.02.14-.05.25-.06.19-.14.34-.25.46-.16.17-.36.28-.62.33-.16.04-.44.06-.83.08V1C0,.45.45,0,1,0h9c.55,0,1,.45,1,1v2.29h-1.05v-1.05h-.67v1.05h-1.05v.67h1.05v1.06h.67v-1.06h1.05v6.04c0,.55-.45,1-1,1ZM8.13,7.66h-2.78c.08-.13.18-.25.29-.35.12-.1.33-.26.64-.48l.5-.36c.42-.3.73-.57.91-.81.28-.37.42-.79.42-1.26,0-.62-.2-1.11-.6-1.48s-.93-.56-1.61-.56c-.85,0-1.45.32-1.78.95-.18.33-.27.77-.29,1.31h1.22c.01-.36.06-.62.14-.78.14-.28.4-.43.78-.43.28,0,.49.09.64.27.15.18.22.4.22.67,0,.33-.13.64-.39.91-.17.18-.54.47-1.12.89-.67.47-1.09.92-1.27,1.35-.18.38-.28.8-.29,1.25h4.36v-1.1Z"/>
	</symbol>

	<symbol id="icon-cross" width="16" height="16" viewBox="0 0 16 16">
		<path fill="none" stroke="currentColor" stroke-linecap="round" stroke-linejoin="round" stroke-width="2" d="M4 4l8 8M12 4l-8 8"/>
	</symbol>

	<symbol id="flag-jp" width="32" height="32" viewBox="0 0 32 32">
		<g fill="none" transform="translate(0 4)"><rect width="32" height="24" fill="#fff" rx="2"/><circle cx="16" cy="12" r="6" fill="#BC002D"/></g>
	</symbol>

	<symbol id="globe-asia" width="32" height="32" viewBox="0 0 32 32">
		<path d="M2 16.1c.2 5.8 4 14 14.2 13.9 10-.1 14.1-8.5 13.8-14.6A14 14 0 0 0 15.7 2C6.4 2 1.8 10 2 16.1" fill="rgba(0,178,220,0.6)"/>
		<g fill="rgb(122,247,107)">
			<path d="M20.4 4.7c-.2-.2-.2-.4-.4-.4 0 0-.2.2-.2.5V7l-.4.2-.2.3-.2.2v.1h-.8c-.5.2-.7.5-.7.5l-.2.3c0 .3.3.5.5.5.3 0 .6-.3.8-.3s.5-.1.8-.4l.2-.3.4-.4c.1-.1.4-.2.4-.7v-.4l.1-.3v-.8l.4-.4v-.5h-.5zm-8.9 13.5h.8l.5.2.5-1 .3-.6v-.1l.3-.2v-1l.1-.5v-.4c.1-.2.1-.4 0-.4v.1s-.7-.1-1 .2l-.3.9-.2.2-.4.4-.5.5H11l-.4.4.1.5.4.5zm2.5.9.7-.3h.4c.1 0 .2-.1.2-.3h.1c0-.2-.2 0-1 .1h-.8c-.4.2-.9.2-.9.2h-1.6v.5h2c.1 0 .6 0 1-.2m1.4-2.7-.2-.3v.2l-.2.2H15v-.1h-.3l-.7.4s-.2.3-.2.7.1.5.2.7h.5c.4 0 .4-.1.4-.3l-.2-.3V17l.7-.3c.2 0 .2-.1.2-.3m7.3-.3-.5-.4-.4-.2v.1h-2.2l-.3.5-.4.3c-.2 0-.2-.5-.5-.7-.2-.1-1 .3-1 .3v.1l.4.4c.2.1.2.3.2.3h2.3l.3.2v.9h1.5l.5-.3v-.3l.4-.1.7.5c.2 0 .5 0 .5-.2l-.3-.2-.3-.1-.5-.6v-.4zm-11.8-3z"/>
			<path d="M10.6 19.2c.2 0 .3-.1.4-.3 0-.2-.3-.4-.3-.5l-.4-.4-.3-.4-.4-.5-.3-.8c0-.2-.3-.1-.5-.2l-.5-.4v-1.4l.5.2.3.3.2.2.1.2.2.3h.1l.7-.3c.3-.3.3-.2.5-.3.2-.2.2-.3.2-.5l-.2-.6c-.2-.2-.7-.5-.7-.8 0-.3.1-.5.4-.6l.3-.1h.1c.1.1.1.2 0 .2v.1s-.2.2 0 .5l.2-.1c.3-.2.2-.6.5-.8s1-.2 1.3-.2l1-.7h.2l.5-.8.4-.4c.2-.2.3-.4.3-.8s-.3-.4-.3-.5l-.3-.3-.3-.3.2-.4.2-.5-.2-.1h-.2c-.2-.1-.3-.3-.2-.5.1-.1.6-.5.8-.5v.4c0 .2.1.2.2.2h.6l.1.2.4.3.1.4v.2c0 .3-.2.5 0 .5h.3c.5-.2.5-.4.5-.8v-.1c0-.4-.5-.9-.5-1l.4-.3c.3-.2.2-.6.4-.6.3-.2.6 0 1-.2l.5-1c.2-.2.3-.8.3-1.2s-.2-.6-.3-.8C18.1 2 17 2 15.7 2 7.7 2 3.1 8 2.2 13.6l.1.5c0 .4 0 .6.2.6s.4-.2.4-.4l.1-.1v-.3l.1-.2v-.2l.1-.3v-.4l.3-.2.4-.2v-.1l.3-.3h.1c.1-.1.1-.2.3-.2v-.1l.4-.3h.8c.3.3.5.7.6 1.1h.2s-.2.9 0 1c0 .2.1.2.2.2h.4l.3.8.2 1c0 .5.4.7.4.9l.3.3.1.2.1.2-.5-.2c-.1-.1-.7-.7-.9-.7l-.1.3c.1.1.6.4.6.6l.7.7.2.2.2.2.4.5.3.1.2.1.9.3Zm11 7.8c0-.3-.3-.3-.6-.3h-.4v.5c0 .1.1.4.3.4s.6-.4.6-.6"/>
			<path d="m15.8 15.2.2-.4-1-1.2h-.2c-.2-.1-.2-.3-.2-.6v.1c0-.3-.2-.5-.5-.5v.5c0 .1-.2.2 0 .6l.3.5s0 .8.2 1.2h.5c.1.2.2.2.3.2h.6zm7 10.1.4-.5h.1l.5-.5c.4-.3.6-.8.7-1.3v-.6l-.4-.4v-.5c0-.2-.7-.9-.7-1.1v-.8l-.2-.3v-.2l-.3-.6-.3-.3h-.3v.8l-.5 1v.2l-.6.2-.7-.5c0-.1-.4-.3-.4-.5 0 0 .3-.4.3-.7 0-.3-.3-.4-.7-.4h-.3c-.5 0-1 0-1.5.2-.2.1 0 .7-.5.7-.2.1-.5 0-.5-.2 0 0-.2-.1-.4 0l-.5.4-.2.2-.3.2-.2.3c-.2.1-.2.3-.2.5l-.9.5H14s-.2 0-.3.2l-.2.7.2.8.2.2v.2l.4.7.4.8v.1l-.2.3c0 .1.2.4.7.4l1.1-.1c.2.1.5-.3.7-.3l1.7-.2c.4.1.6.4.6.4v.5c0 .2.3.2.5.2.1.1.3.5 1 .5.8 0 1.1-.3 1.2-.3l.5-.4.4-.3zm-3-22.6v.8l.1.4c.1 0 .4-.3.4-.5l.1-.7-.8-.2.1.2Zm3 24.7c.3 0 .6-.2 1-.4l.7-.4c.2-.1 1-.6 1-.8l-.3-.8-.2-.4s-.2.1-.2.4v.6c-.2 0-.4.1-.4.3v.5c-.2 0-.3-.4-.5-.4l-.5.2-.2.2v.1H23c-.3.3-.5.3-.5.6 0 0 0 .3.3.3m-5.7-10.6-.3-.7.1-.3v-.1h-.4l-.3.4v.5l-.4.2v.3H17c.2 0 .2-.3.2-.3m-1.4 1.7c.1.1.3-.1.5-.3h.1l.1-.1.1-.3c0-.1-.3 0-.5.2-.3.2-.3.3-.3.5"/>
		</g>
	</symbol>


</svg>
