<svg xmlns="http://www.w3.org/2000/svg" xmlns:xlink="http://www.w3.org/1999/xlink" viewBox="0 0 1690 250"><defs><linearGradient id="w" x1="662.58" x2="662.58" y1="233.4" y2="14.43" gradientUnits="userSpaceOnUse"><stop offset="0" stop-color="#fff"/><stop offset=".3" stop-color="#fdfefd"/><stop offset="1" stop-color="#f2faf2"/></linearGradient><linearGradient id="x" x1="662.58" x2="662.58" y1="229.46" y2="21.3" gradientUnits="userSpaceOnUse"><stop offset="0" stop-color="#8fddf0"/><stop offset=".07" stop-color="#dbf4fa"/><stop offset=".4" stop-color="#ebf9fc"/><stop offset=".91" stop-color="#8fddf0"/></linearGradient><linearGradient id="a" x1="1122.6" x2="1309.09" y1="33.98" y2="220.46" gradientUnits="userSpaceOnUse"><stop offset="0" stop-color="#b1e2de"/><stop offset=".49" stop-color="#b5e2e1"/><stop offset="1" stop-color="#b1e0df"/></linearGradient><linearGradient xlink:href="#a" id="y" x1="941.19" x2="1091.8" y1="47.69" y2="198.31"/><linearGradient xlink:href="#a" id="z" x1="799.72" x2="938.05" y1="40.08" y2="178.41"/><linearGradient xlink:href="#a" id="B" x1="701.53" x2="812.56" y1="72.23" y2="183.25"/><linearGradient xlink:href="#a" id="C" x1="542.89" x2="705.92" y1="44.67" y2="207.7"/><linearGradient xlink:href="#a" id="D" x1="380.95" x2="527.68" y1="39.89" y2="186.63"/><linearGradient xlink:href="#a" id="E" x1="200" x2="351.13" y1="47.57" y2="198.69"/><linearGradient xlink:href="#a" id="F" x1="43.52" x2="173.97" y1="62.36" y2="192.81"/><linearGradient id="b" x1="1302.66" x2="1121.82" y1="214.79" y2="33.95" gradientUnits="userSpaceOnUse"><stop offset="0" stop-color="#fff"/><stop offset="1" stop-color="#fff"/></linearGradient><linearGradient xlink:href="#b" id="G" x1="1099.26" x2="952.86" y1="205.77" y2="59.37"/><linearGradient xlink:href="#b" id="H" x1="930.15" x2="795.98" y1="170.52" y2="36.34"/><linearGradient xlink:href="#b" id="I" x1="810.53" x2="703.56" y1="181.23" y2="74.25"/><linearGradient xlink:href="#b" id="K" x1="707.01" x2="548.45" y1="208.79" y2="50.23"/><linearGradient xlink:href="#b" id="L" x1="519.65" x2="377.2" y1="179.13" y2="36.67"/><linearGradient xlink:href="#b" id="M" x1="358.33" x2="211.56" y1="205.89" y2="59.12"/><linearGradient xlink:href="#b" id="N" x1="172.5" x2="44.91" y1="191.42" y2="63.83"/><linearGradient xlink:href="#a" id="O" x1="1213.83" x2="1213.83" y1="205.57" y2="50.11"/><linearGradient xlink:href="#a" id="P" x1="1021.23" x2="1021.23" y1="205.57" y2="49.91"/><linearGradient xlink:href="#a" id="Q" x1="865.95" x2="865.95" y1="205.57" y2="49.91"/><linearGradient xlink:href="#a" id="S" x1="757.05" x2="757.05" y1="205.57" y2="49.91"/><linearGradient xlink:href="#a" id="T" x1="625.96" x2="625.96" y1="205.57" y2="49.91"/><linearGradient xlink:href="#a" id="U" x1="451.18" x2="451.18" y1="209.46" y2="49.91"/><linearGradient xlink:href="#a" id="V" x1="280.18" x2="280.18" y1="205.57" y2="49.91"/><linearGradient xlink:href="#a" id="W" x1="99.97" x2="99.97" y1="212.94" y2="42.54"/><linearGradient id="d" x1="1213.83" x2="1213.83" y1="203.54" y2="52.2" gradientUnits="userSpaceOnUse"><stop offset="0" stop-color="#0f97d7"/><stop offset=".24" stop-color="#139adb"/><stop offset=".48" stop-color="#1a2c89"/><stop offset=".51" stop-color="#3665be"/><stop offset=".81" stop-color="#1d2d8b"/><stop offset=".99" stop-color="#38a6e6"/></linearGradient><linearGradient xlink:href="#d" id="X" x1="1021.23" x2="1021.23" y2="51.95"/><linearGradient xlink:href="#d" id="Y" x1="865.95" x2="865.95" y2="51.95"/><linearGradient xlink:href="#d" id="aa" x1="757.05" x2="757.05" y2="51.95"/><linearGradient xlink:href="#d" id="ab" x1="625.96" x2="625.96" y2="51.95"/><linearGradient xlink:href="#d" id="ac" x1="451.18" x2="451.18" y1="207.42" y2="51.95"/><linearGradient xlink:href="#d" id="ad" x1="280.18" x2="280.18" y2="51.95"/><linearGradient xlink:href="#d" id="ae" x1="99.97" x2="99.97" y1="210.91" y2="44.57"/><linearGradient id="e" x1="1021.23" x2="1021.23" y1="200.96" y2="54.52" gradientUnits="userSpaceOnUse"><stop offset=".2" stop-color="#f6fbfe"/><stop offset=".44" stop-color="#3695d4"/><stop offset=".54" stop-color="#4899db"/><stop offset=".77" stop-color="#ecd9f4"/></linearGradient><linearGradient xlink:href="#e" id="ag" x1="99.97" x2="99.97" y1="208.33" y2="47.15"/><linearGradient xlink:href="#e" id="ai" x1="1213.83" x2="1213.83" y2="54.78"/><linearGradient xlink:href="#e" id="aj" x1="625.96" x2="625.96"/><linearGradient xlink:href="#e" id="ak" x1="757.05" x2="757.05"/><linearGradient xlink:href="#e" id="al" x1="451.18" x2="451.18" y1="204.85"/><linearGradient xlink:href="#e" id="am" x1="865.95" x2="865.95"/><linearGradient xlink:href="#e" id="an" x1="280.18" x2="280.18"/><linearGradient id="f" x1="1293.07" x2="1134.59" y1="208.21" y2="49.72" gradientUnits="userSpaceOnUse"><stop offset="0" stop-color="#70d5e5"/><stop offset=".24" stop-color="#2276c7"/><stop offset=".48" stop-color="#1a2c89"/><stop offset=".51" stop-color="#3665be"/><stop offset=".81" stop-color="#1d2d8b"/><stop offset=".99" stop-color="#38a6e6"/></linearGradient><linearGradient xlink:href="#f" id="ao" x1="1091.18" x2="951.29" y1="197.68" y2="57.8"/><linearGradient xlink:href="#f" id="aq" x1="922.07" x2="809.83" y1="162.43" y2="50.19"/><linearGradient xlink:href="#f" id="ar" x1="802.45" x2="711.64" y1="173.14" y2="82.34"/><linearGradient xlink:href="#f" id="as" x1="698.92" x2="552.99" y1="200.71" y2="54.78"/><linearGradient xlink:href="#f" id="at" x1="512.78" x2="389.57" y1="174.68" y2="51.48"/><linearGradient xlink:href="#f" id="au" x1="350.24" x2="210.11" y1="197.81" y2="57.68"/><linearGradient xlink:href="#f" id="av" x1="166.63" x2="50.44" y1="185.86" y2="69.67"/><linearGradient id="g" x1="1215.03" x2="1212.56" y1="199.19" y2="57.94" gradientUnits="userSpaceOnUse"><stop offset="0" stop-color="#7af9ff"/><stop offset=".16" stop-color="#26a4fc"/><stop offset=".3" stop-color="#24a0fa"/><stop offset=".41" stop-color="#1f96f5"/><stop offset=".51" stop-color="#1686ed"/><stop offset=".52" stop-color="#1686ed"/><stop offset=".56" stop-color="#1d8df1"/><stop offset=".67" stop-color="#2c9bf8"/><stop offset=".8" stop-color="#35a3fd"/><stop offset="1" stop-color="#38a6ff"/></linearGradient><linearGradient xlink:href="#g" id="aw" x1="1022.48" x2="1019.99" y1="198.85" y2="56.64"/><linearGradient xlink:href="#g" id="ay" x1="868.24" x2="865.77" y1="197.97" y2="56.73"/><linearGradient xlink:href="#g" id="az" x1="758.27" x2="755.82" y1="197.99" y2="57.49"/><linearGradient xlink:href="#g" id="aA" x1="627.2" x2="624.72" y1="198.95" y2="56.53"/><linearGradient xlink:href="#g" id="aB" x1="452.95" x2="450.41" y1="201.69" y2="56.66"/><linearGradient xlink:href="#g" id="aC" x1="281.42" x2="278.94" y1="198.85" y2="56.63"/><linearGradient xlink:href="#g" id="aD" x1="101.32" x2="98.62" y1="205.32" y2="50.46"/><linearGradient id="h" x1="1156.19" x2="1280.93" y1="226.6" y2="10.55" gradientUnits="userSpaceOnUse"><stop offset="0" stop-color="#093f76"/><stop offset=".36" stop-color="#226499"/><stop offset=".75" stop-color="#155188" stop-opacity="0"/></linearGradient><linearGradient xlink:href="#h" id="aE" x1="967.89" x2="1074" y1="215.87" y2="32.08"/><linearGradient id="aM" x1="868.09" x2="868.09" y1="210.33" y2="45.1" gradientUnits="userSpaceOnUse"><stop offset=".25" stop-color="#155188" stop-opacity="0"/><stop offset=".64" stop-color="#226499"/><stop offset="1" stop-color="#093f76" stop-opacity=".5"/></linearGradient><linearGradient xlink:href="#h" id="aN" x1="756.11" x2="756.11" y1="208.23" y2="34.07"/><linearGradient xlink:href="#h" id="aO" x1="627.35" x2="627.35" y1="205.66" y2="41.59"/><linearGradient xlink:href="#h" id="aP" x1="456.82" x2="456.82" y1="212.43" y2="42.29"/><linearGradient xlink:href="#h" id="aQ" x1="289.57" x2="289.57" y1="208.23" y2="41.94"/><linearGradient xlink:href="#h" id="aR" x1="68.44" x2="161.6" y1="200.61" y2="39.25"/><linearGradient id="i" x1="1223.86" x2="1223.86" y1="222.44" y2="41.09" gradientUnits="userSpaceOnUse"><stop offset=".25" stop-color="#155188" stop-opacity="0"/><stop offset=".55" stop-color="#093f76" stop-opacity="0"/><stop offset="1" stop-color="#1979df" stop-opacity=".6"/></linearGradient><linearGradient xlink:href="#i" id="aS" x1="1038.76" x2="1038.76" y1="218.46" y2="45.18"/><linearGradient id="aT" x1="859" x2="859" y1="208.93" y2="45.18" gradientUnits="userSpaceOnUse"><stop offset=".25" stop-color="#155188" stop-opacity=".5"/><stop offset=".55" stop-color="#093f76" stop-opacity="0"/><stop offset="1" stop-color="#1979df" stop-opacity=".6"/></linearGradient><linearGradient xlink:href="#i" id="aU" x1="743.22" x2="743.22" y1="197.97" y2="24.69"/><linearGradient id="aV" x1="557.67" x2="701.77" y1="121.07" y2="121.07" gradientUnits="userSpaceOnUse"><stop offset="0" stop-color="#155188" stop-opacity=".6"/><stop offset=".4" stop-color="#1763af" stop-opacity="0"/><stop offset="1" stop-color="#1979df" stop-opacity=".6"/></linearGradient><linearGradient xlink:href="#i" id="aW" x1="441.57" x2="441.57" y1="222.39" y2="45.18"/><linearGradient xlink:href="#i" id="aZ" x1="267.28" x2="267.28" y1="213.73" y2="40.45"/><linearGradient xlink:href="#i" id="ba" x1="92.95" x2="92.95" y1="229.06" y2="40.88"/><linearGradient id="j" x1="1224.63" x2="1203.03" y1="207.57" y2="53.88" gradientUnits="userSpaceOnUse"><stop offset="0" stop-color="#7af9ff"/><stop offset=".2" stop-color="#26a4fc" stop-opacity="0"/><stop offset=".49" stop-color="#198cf0" stop-opacity="0"/><stop offset=".52" stop-color="#1686ed" stop-opacity="0"/><stop offset=".58" stop-color="#2190f3" stop-opacity="0"/><stop offset="1" stop-color="#38a6ff" stop-opacity="0"/></linearGradient><linearGradient xlink:href="#j" id="bb" x1="1032.06" x2="1010.41" y1="204.78" y2="50.71"/><linearGradient xlink:href="#j" id="bc" x1="884.21" x2="863.63" y1="196.83" y2="50.38"/><linearGradient xlink:href="#j" id="bd" x1="766.92" x2="747.17" y1="198.01" y2="57.47"/><linearGradient xlink:href="#j" id="be" x1="636.9" x2="615.02" y1="205.61" y2="49.87"/><linearGradient xlink:href="#j" id="bf" x1="464.87" x2="443.76" y1="200.67" y2="50.51"/><linearGradient xlink:href="#j" id="bg" x1="291.01" x2="269.34" y1="204.81" y2="50.67"/><linearGradient xlink:href="#j" id="bh" x1="110.83" x2="89.27" y1="205.65" y2="52.24"/><linearGradient id="l" x1="1213.88" x2="1213.88" y1="168.73" y2="86.84" gradientUnits="userSpaceOnUse"><stop offset="0" stop-color="#c5ecf7"/><stop offset="1" stop-color="#75c4ea"/></linearGradient><linearGradient id="m" x1="1236.99" x2="1190.76" y1="150.9" y2="104.67" gradientUnits="userSpaceOnUse"><stop offset="0" stop-color="#e6f3f9"/><stop offset="1" stop-color="#b8e7ef"/></linearGradient><linearGradient id="n" x1="1192.07" x2="1235.68" y1="105.98" y2="149.59" gradientUnits="userSpaceOnUse"><stop offset="0" stop-color="#e6f3f9"/><stop offset="1" stop-color="#e6f3f9"/></linearGradient><linearGradient id="o" x1="1196.14" x2="1231.61" y1="110.06" y2="145.52" gradientUnits="userSpaceOnUse"><stop offset="0" stop-color="#cae7e8"/><stop offset="1" stop-color="#b4d6e0"/></linearGradient><linearGradient id="p" x1="1230.63" x2="1197.12" y1="144.54" y2="111.03" gradientUnits="userSpaceOnUse"><stop offset="0" stop-color="#626da1"/><stop offset="1" stop-color="#212123"/></linearGradient><linearGradient id="q" x1="1229.34" x2="1198.42" y1="143.25" y2="112.33" gradientUnits="userSpaceOnUse"><stop offset="0" stop-color="#84bed8"/><stop offset="1" stop-color="#bfd5e3"/></linearGradient><linearGradient id="r" x1="1228.04" x2="1199.71" y1="141.95" y2="113.62" gradientUnits="userSpaceOnUse"><stop offset=".46" stop-color="#48b4ee"/><stop offset=".91" stop-color="#f3faf2"/></linearGradient><linearGradient xlink:href="#l" id="bj" x1="108.24" x2="108.24"/><linearGradient xlink:href="#m" id="bk" x1="131.36" x2="85.12" y1="150.9" y2="104.67"/><linearGradient xlink:href="#n" id="bl" x1="86.44" x2="130.05"/><linearGradient xlink:href="#o" id="bm" x1="90.51" x2="125.97" y1="110.06" y2="145.52"/><linearGradient xlink:href="#p" id="bn" x1="125" x2="91.48" y2="111.03"/><linearGradient xlink:href="#q" id="bo" x1="123.7" x2="92.78" y2="112.33"/><linearGradient xlink:href="#r" id="bp" x1="122.4" x2="94.08" y1="141.95" y2="113.62"/><linearGradient id="br" x1="1573.09" x2="1418.1" y1="256.37" y2="-12.07" gradientUnits="userSpaceOnUse"><stop offset="0" stop-color="#6788c6"/><stop offset="1" stop-color="#7392ca" stop-opacity=".5"/></linearGradient><linearGradient id="bs" x1="1574.05" x2="1419.06" y1="256.37" y2="-12.07" gradientUnits="userSpaceOnUse"><stop offset="0" stop-color="#6788c6"/><stop offset=".73" stop-color="#7895cc"/><stop offset=".75" stop-color="#fff"/><stop offset=".97" stop-color="#d9e2f1"/><stop offset="1" stop-color="#7392ca"/></linearGradient><linearGradient id="u" x1="1382.54" x2="1623.79" y1="2.8" y2="244.05" gradientUnits="userSpaceOnUse"><stop offset="0" stop-color="#f1f9b0"/><stop offset=".3" stop-color="#f7cbe0"/><stop offset=".52" stop-color="#9ddec2"/><stop offset=".75" stop-color="#7fd9e5"/><stop offset="1" stop-color="#fff8c6"/></linearGradient><linearGradient id="s" x1="1346.76" x2="1495.32" y1="46.37" y2="194.93" gradientUnits="userSpaceOnUse"><stop offset="0" stop-color="#fff"/><stop offset=".5" stop-color="#fff"/><stop offset="1" stop-color="#fff"/></linearGradient><linearGradient xlink:href="#s" id="bt" x1="1514.01" x2="1664.04" y1="48.54" y2="198.57"/><linearGradient id="bv" x1="1396.42" x2="1617.08" y1="13.19" y2="233.86" gradientUnits="userSpaceOnUse"><stop offset="0" stop-color="#20b0fa"/><stop offset=".2" stop-color="#3a82e7"/><stop offset=".42" stop-color="#506dd6"/><stop offset=".6" stop-color="#5a5dc9"/><stop offset=".77" stop-color="#7840b1"/><stop offset=".91" stop-color="#a82cba"/><stop offset="1" stop-color="#904fb5"/></linearGradient><linearGradient id="bw" x1="1615.51" x2="1399.45" y1="231.54" y2="15.47" gradientUnits="userSpaceOnUse"><stop offset="0" stop-color="#904fb5"/><stop offset=".09" stop-color="#a82cba"/><stop offset=".23" stop-color="#7840b1"/><stop offset=".4" stop-color="#5a5dc9"/><stop offset=".58" stop-color="#506dd6"/><stop offset=".8" stop-color="#3a82e7"/><stop offset="1" stop-color="#20b0fa"/></linearGradient><linearGradient id="t" x1="1407.14" x2="1464.62" y1="92.02" y2="149.5" gradientUnits="userSpaceOnUse"><stop offset=".06" stop-color="#f8f9fd"/><stop offset=".18" stop-color="#f8f9fd" stop-opacity=".5"/><stop offset=".2" stop-color="#f5f0ed" stop-opacity="0"/><stop offset=".51" stop-color="#f2eadf" stop-opacity="0"/><stop offset=".64" stop-color="#f1e6d8" stop-opacity=".3"/><stop offset=".65" stop-color="#f0e4d4" stop-opacity="0"/><stop offset=".68" stop-color="#efe3d3" stop-opacity=".04"/><stop offset=".73" stop-color="#efe2d1" stop-opacity=".15"/><stop offset=".8" stop-color="#efe1ce" stop-opacity=".32"/><stop offset=".88" stop-color="#eedeca" stop-opacity=".56"/><stop offset=".97" stop-color="#eddcc6" stop-opacity=".87"/><stop offset="1" stop-color="#eddbc4"/></linearGradient><linearGradient id="bx" x1="1356.14" x2="1490.64" y1="53.46" y2="187.96" gradientUnits="userSpaceOnUse"><stop offset=".06" stop-color="#f8f9fd"/><stop offset=".18" stop-color="#f8f9fd" stop-opacity=".5"/><stop offset=".2" stop-color="#f5f0ed" stop-opacity="0"/><stop offset=".46" stop-color="#f2eadf" stop-opacity="0"/><stop offset=".64" stop-color="#f1e6d8" stop-opacity=".3"/><stop offset=".65" stop-color="#f0e4d4" stop-opacity="0"/><stop offset=".68" stop-color="#efe3d3" stop-opacity=".04"/><stop offset=".73" stop-color="#efe2d1" stop-opacity=".15"/><stop offset=".8" stop-color="#efe1ce" stop-opacity=".32"/><stop offset=".88" stop-color="#eedeca" stop-opacity=".56"/><stop offset=".97" stop-color="#eddcc6" stop-opacity=".87"/><stop offset="1" stop-color="#eddbc4"/></linearGradient><linearGradient xlink:href="#t" id="by" x1="1590.09" x2="1617.66" y1="138.66" y2="166.23"/><linearGradient id="bz" x1="1523.48" x2="1659.43" y1="55.54" y2="191.5" gradientUnits="userSpaceOnUse"><stop offset=".06" stop-color="#f8f9fd"/><stop offset=".18" stop-color="#f8f9fd" stop-opacity=".5"/><stop offset=".2" stop-color="#f5f0ed" stop-opacity="0"/><stop offset=".51" stop-color="#f2eadf" stop-opacity="0"/><stop offset=".8" stop-color="#f1e6d8" stop-opacity=".3"/><stop offset="1" stop-color="#eddbc4"/></linearGradient><linearGradient xlink:href="#t" id="bA" x1="1588.38" x2="1609.17" y1="76.7" y2="97.49"/><linearGradient xlink:href="#u" id="bB" x1="1380.33" x2="1667.26" y1="120.71" y2="120.71"/><clipPath id="af"><path d="M514.24 142.11c0 38.26-20.19 64.31-63.07 64.31s-63.07-26.05-63.07-64.31V52.95h32.02v91.3c0 18.83 11.63 32.94 31.05 32.94s31.05-14.11 31.05-32.94v-91.3h32.02v89.17zm182.85 60.43h-41.72L586.84 92.13v110.41h-32.02V52.95h44.26l65.99 106.32V52.95h32.02zm75.97 0h-32.02V52.95h32.02zm-604.93-18.22c-14.97 15.75-36.11 25.59-59.56 25.59-45.38 0-82.17-36.79-82.17-82.17s36.79-82.17 82.17-82.17c21.37 0 40.83 8.16 55.45 21.54l-13.31 11.2c13.97 11.92 22.83 29.63 22.83 49.43 0 18.09-7.4 34.45-19.34 46.23l13.93 10.34zm177.38 18.22h-32.02v-65.89h-66.63v65.89h-32.02V52.95h32.02v55.78h66.63V52.95h32.02zm953.24 0h-32.02v-22.29c-13.5 13.6-32.21 22.03-52.89 22.03s-39.39-8.43-52.89-22.03v22.29h-32.02V55.39l32.73 19.15c13.45-13.19 31.86-21.34 52.19-21.34s38.74 8.15 52.19 21.34l32.73-19.15v147.14zm-212.43-93.81v93.81h-32.02v-65.89h-66.13v65.89h-32.02V52.95h32.02v55.78h66.13V52.95h32.02zm-161.5-27.86h-42.86v121.67h-32.02V80.87h-42.86V52.95h117.75v27.92z"/></clipPath><clipPath id="bi"><circle cx="1213.88" cy="127.79" r="20.03"/></clipPath><clipPath id="bq"><circle cx="108.24" cy="127.79" r="20.03"/></clipPath><clipPath id="bu"><path d="M1428.73 164.06h-6.94v-86.7h7.37c27.28 0 44.22 16.61 44.22 43.35s-16.69 43.35-44.66 43.35zm8.29-128.2h-63.27v169.71h63.27c47.51 0 86.16-38.07 86.16-84.85s-38.65-84.86-86.16-84.86m185.01 126c-5.74 5.73-17.88 5.73-26.74 5.7h-4.08v-30.01h1.7c1.13 0 2.31-.01 3.52-.03 8.9-.09 20.02-.22 25.38 5.09 2.39 2.36 3.55 5.69 3.55 10.16 0 3.88-1.09 6.85-3.33 9.09m22.28-48.04c9.45-6.99 14.06-17.71 14.06-32.57 0-30.12-17.33-45.39-51.5-45.39h-63.71v169.71h68.5c39.52 0 62.18-17.66 62.18-48.44 0-23.6-10.18-38.45-29.54-43.31zm-53.1-39.95h.4c14.4 0 22.2 2.11 22.2 13.26 0 9.42-5.93 13.26-20.46 13.26h-2.14z"/></clipPath><filter id="v" width="140%" height="140%" x="-20%" y="-20%" filterUnits="userSpaceOnUse"><feDropShadow dx="0" dy="5" flood-color="#c388d7" flood-opacity=".3" stdDeviation="5"/></filter></defs><path d="M1685.98 157.13c0-21.77-7.79-38.25-22.01-47.8 3.92-7.08 6.53-16.24 6.53-28.08 0-21.48-8.27-57.52-63.63-57.52h-76.8l-7.13 1.59c-.88.2-1.5.97-1.5 1.87v43.55a96.6 96.6 0 0 0-15.17-19.04c-18.5-18.03-43.09-27.96-69.25-27.96h-76.36l-7.13 1.59c-.88.2-1.5.97-1.5 1.87v191.48c0 1.06.86 1.92 1.92 1.92h73.48c25.21 0 48.22-6.93 65.63-20.23 11.48-7.89 21.18-18.13 28.38-30.01v48.32c0 1.06.86 1.92 1.92 1.92h78.72c24.41 0 43.89-4.41 56.77-14.17 17.33-10.35 27.13-27.38 27.13-49.29Zm-82.49-6.02c.06.28.14.8.14 1.65 0 .31-.02.53-.04.69-.08.05-.17.1-.26.15v-2.57s.1.05.15.08Zm-151.83-30.4c0 11.12-3.44 23.89-17.74 28.97V91.73c15.1 5.46 17.74 19.72 17.74 28.98M1268.1 46.1l54.14-31.68v211.6h-79.01v-4.76c-9.48 2.95-19.54 4.5-29.4 4.5s-19.92-1.55-29.4-4.5v4.76h-653.1v-46.49c-3.62 9.5-8.73 17.9-15.26 24.99-15.52 16.84-37.35 25.38-64.89 25.38s-49.37-8.54-64.89-25.38c-7.86-8.53-13.67-18.97-17.28-30.91v52.41H191.35v-32.04l-6.19 6.51c-20.16 21.22-47.36 32.9-76.59 32.9-58.26 0-105.66-47.4-105.66-105.66S50.31 22.08 108.57 22.08c26.46 0 51.79 9.84 71.31 27.7l11.47 10.49V29.45h914.08V14.43l54.14 31.68c15.96-10.59 35.13-16.39 54.27-16.39s38.31 5.81 54.27 16.39Z" filter="url(#v)"/><path fill="url(#w)" d="M108.57 233.4C50.31 233.4 2.91 186 2.91 127.74S50.31 22.08 108.57 22.08c26.46 0 51.79 9.84 71.31 27.7l11.47 10.49V29.45h914.08V14.43l54.14 31.68c15.96-10.59 35.13-16.39 54.27-16.39s38.31 5.81 54.27 16.39l54.14-31.68v211.6h-79.01v-4.76c-9.48 2.95-19.54 4.5-29.4 4.5s-19.92-1.55-29.4-4.5v4.76h-653.1v-46.49c-3.62 9.5-8.73 17.9-15.26 24.99-15.52 16.84-37.35 25.38-64.89 25.38s-49.37-8.54-64.89-25.38c-7.86-8.53-13.67-18.97-17.28-30.91v52.41H191.36v-32.04l-6.19 6.51c-20.16 21.22-47.36 32.9-76.59 32.9z"/><path fill="url(#x)" d="M108.57 229.46c-56.09 0-101.72-45.63-101.72-101.72S52.48 26.02 108.57 26.02c25.48 0 49.86 9.47 68.65 26.66l16.44 15.05-15.08 12.68c9.38 13.89 14.51 30.56 14.51 47.33 0 15.01-3.91 29.57-11.33 42.34l13.53 10.04V33.39h71.13v55.78h27.52V33.39h71.13v188.7h-71.13V156.2h-27.52v65.89h-71.13v-37.97l-12.98 13.66c-19.41 20.43-45.6 31.68-73.73 31.68zm342.61-3.48c-26.39 0-47.25-8.11-61.99-24.11-13.5-14.65-20.63-35.31-20.63-59.75V33.39h71.13v110.85c0 8.88 3.87 13.38 11.49 13.38s11.49-4.5 11.49-13.38V33.39h71.13v108.72c0 24.44-7.13 45.11-20.63 59.75-14.74 16-35.6 24.11-61.99 24.11zm867.12-3.89h-71.13v-6.33c-10.58 3.98-21.99 6.07-33.34 6.07s-22.76-2.09-33.34-6.07v6.33h-71.13V21.3l50.36 29.47c15.73-11.05 34.84-17.11 54.11-17.11s38.38 6.06 54.11 17.11l50.36-29.47zm-212.43 0h-71.13V156.2h-27.02v65.89h-71.13V100.42h-35.08v121.67h-71.13V100.42h-37.77v121.67h-71.13V33.39h286.25v55.78h27.02V33.39h71.13v188.7zm-389.22 0H644.5l-38.1-61.38v61.38h-71.13V33.39h74.69l35.56 57.29V33.39h71.13z"/><path fill="#e5f2f6" d="M1314.36 28.16v189.99h-63.26v-8.28c-11.62 5.27-24.34 8.02-37.28 8.02s-25.65-2.76-37.28-8.03v8.29h-63.26V28.16l46.66 27.3c15.47-11.55 34.46-17.87 53.88-17.87s38.4 6.32 53.88 17.87zM466.6 144.24c0 5.21-1.5 17.32-15.43 17.32s-15.43-12.11-15.43-17.32V37.33h-63.26v104.79c0 23.44 6.77 43.18 19.59 57.09 13.97 15.16 33.85 22.84 59.1 22.84s45.13-7.68 59.1-22.84c12.81-13.91 19.59-33.65 19.59-57.09V37.33H466.6v106.92zm-277.44-16.5c0-17.33-5.6-34.17-15.88-48.01l14.41-12.13-13.13-12.02c-18.06-16.53-41.5-25.63-65.99-25.63-53.92 0-97.79 43.87-97.79 97.79s43.87 97.79 97.79 97.79c27.05 0 52.22-10.82 70.88-30.45l12.15-12.78-15.07-11.19c8.28-12.9 12.63-27.78 12.63-43.36zm108.71-34.63h-35.39V37.33h-63.26v180.83h63.26v-65.89h35.39v65.89h63.26V37.33h-63.26zm351.58 11.38-41.68-67.16h-68.56v180.83h63.26v-71.25l44.22 71.25h66.03V37.33h-63.26v67.16zm389.23-11.38h-34.89V37.33H725.42v180.83h63.26V96.49h45.64v121.67h63.26V96.49h42.96v121.67h63.26v-65.89h34.89v65.89h63.26V37.33h-63.26v55.78z"/><path fill="url(#a)" d="M1308.85 212.65h-52.24v-11.83c-12.89 7.58-27.64 11.57-42.79 11.57s-29.9-4-42.79-11.57v11.83h-52.24V37.77l41.59 24.33c15.02-12.26 33.96-19.01 53.43-19.01s38.41 6.74 53.43 19.01l41.59-24.33v174.87z"/><path fill="url(#y)" d="M1096.43 212.65h-52.24v-65.89h-45.91v65.89h-52.24V42.84h52.24v55.78h45.91V42.84h52.24z"/><path fill="url(#z)" d="M892.07 212.65h-52.24V90.97h-42.86V42.84h137.96v48.13h-42.86z"/><path fill="url(#B)" d="M730.93 42.84h52.24v169.81h-52.24z"/><path fill="url(#C)" d="M707.2 212.65h-57.45l-52.8-85.07v85.07h-52.23V42.84h59.98l50.26 80.97V42.84h52.24z"/><path fill="url(#D)" d="M451.18 216.53c-23.65 0-42.17-7.09-55.05-21.07-11.86-12.87-18.13-31.32-18.13-53.35V42.84h52.24v101.4c0 11.04 5.5 22.83 20.94 22.83s20.94-11.79 20.94-22.83V42.84h52.24v99.28c0 22.03-6.27 40.48-18.13 53.35-12.88 13.98-31.4 21.07-55.05 21.07z"/><path fill="url(#E)" d="M355.62 212.65h-52.24v-65.89h-46.41v65.89h-52.24V42.84h52.24v55.78h46.41V42.84h52.24z"/><path fill="url(#F)" d="M108.57 220.02c-50.88 0-92.27-41.39-92.27-92.27s41.39-92.28 92.27-92.28c23.11 0 45.22 8.59 62.27 24.19l8.5 7.78-13.71 11.54a74.98 74.98 0 0 1 18.02 48.78c0 16.27-5.07 31.67-14.68 44.61l14.35 10.65-7.86 8.27c-17.61 18.53-41.36 28.74-66.88 28.74z"/><path fill="url(#b)" d="M1267.06 64.56c-14.89-12.58-33.56-19.44-53.23-19.44s-38.34 6.86-53.23 19.44l-39.77-23.27v169.33h48.19v-13.43c13.23 8.58 28.66 13.17 44.81 13.17s31.58-4.6 44.81-13.18v13.44h48.19V41.3l-39.77 23.27zm-53.23 106.91c-24.11 0-43.73-19.62-43.73-43.73s19.62-43.73 43.73-43.73 43.73 19.62 43.73 43.73-19.62 43.73-43.73 43.73"/><path fill="url(#G)" d="M1094.4 210.62h-48.19v-65.89h-49.95v65.89h-48.2V44.86h48.2v55.78h49.95V44.86h48.19z"/><path fill="url(#H)" d="M890.04 210.62h-48.19V88.95h-42.86V44.86h133.92v44.09h-42.87z"/><path fill="url(#I)" d="M732.95 44.86h48.19v165.76h-48.19z"/><path fill="url(#K)" d="M705.18 210.62h-54.31l-55.94-90.13v90.13h-48.19V44.86h56.84l53.41 86.04V44.86h48.19z"/><path fill="url(#L)" d="M451.18 214.51c-44.55 0-71.15-27.06-71.15-72.4V44.86h48.19v99.38c0 12.02 6.03 24.85 22.96 24.85s22.96-12.84 22.96-24.85V44.86h48.19v97.25c0 45.33-26.6 72.4-71.15 72.4"/><path fill="url(#M)" d="M353.6 210.62h-48.19v-65.89h-50.46v65.89h-48.2V44.86h48.2v55.78h50.46V44.86h48.19z"/><path fill="url(#N)" d="M181.63 127.74c0-18.23-6.79-35.63-18.88-48.99l13.53-11.38-6.8-6.22c-16.67-15.26-38.3-23.66-60.91-23.66-49.77 0-90.25 40.49-90.25 90.25s40.49 90.25 90.25 90.25c24.96 0 48.19-9.98 65.42-28.11l6.29-6.62-14.16-10.52c10.06-12.8 15.51-28.47 15.51-45.01zm-73.06 43.38c-23.92 0-43.38-19.46-43.38-43.38s19.46-43.38 43.38-43.38 43.38 19.46 43.38 43.38-19.46 43.38-43.38 43.38"/><path fill="url(#O)" d="m1297.21 52.78-30.76 17.99c-14.38-13.3-32.98-20.6-52.63-20.6s-38.25 7.3-52.63 20.6l-30.76-17.99-4.56-2.67v155.46h38.09v-18.41c13.95 11.75 31.41 18.15 49.86 18.15s35.91-6.4 49.86-18.15v18.41h38.09V50.11z"/><path fill="url(#P)" d="M1089.35 49.91h-38.09v55.78H991.2V49.91h-38.09v155.66h38.09v-65.89h60.06v65.89h38.09z"/><path fill="url(#Q)" d="M927.85 49.91H804.04V83.9h42.86v121.67h38.09V83.9h42.86z"/><path fill="url(#S)" d="M776.09 49.91H738v155.66h38.09z"/><path fill="url(#T)" d="M700.13 49.91h-38.09v98.72l-60.38-97.28-.89-1.43h-48.98v155.66h38.09v-102.8l62.92 101.37.89 1.43h46.44z"/><path fill="url(#U)" d="M517.28 49.91h-38.09v94.33c0 8.69-2.58 16.12-7.45 21.5-4.99 5.5-12.1 8.41-20.56 8.41s-15.57-2.91-20.56-8.41c-4.88-5.38-7.45-12.81-7.45-21.5V49.91h-38.09v92.2c0 20.22 5.62 37.01 16.26 48.56 11.49 12.47 28.25 18.79 49.84 18.79s38.36-6.32 49.84-18.79c10.64-11.54 16.26-28.33 16.26-48.56z"/><path fill="url(#V)" d="M348.54 49.91h-38.09v55.78h-60.57V49.91h-38.09v155.66h38.09v-65.89h60.57v65.89h38.09z"/><path fill="url(#W)" d="M108.57 42.54c-46.98 0-85.2 38.22-85.2 85.2s38.22 85.2 85.2 85.2c23.56 0 45.49-9.42 61.75-26.54l2.36-2.48-2.75-2.04-11.16-8.29c11.5-12.56 17.8-28.71 17.8-45.85 0-18.73-7.7-36.52-21.25-49.36l10.65-8.96 2.64-2.22-2.55-2.33a84.98 84.98 0 0 0-57.49-22.33m0 129.87c-24.63 0-44.67-20.04-44.67-44.67s20.04-44.67 44.67-44.67 44.67 20.04 44.67 44.67-20.04 44.67-44.67 44.67"/><path fill="url(#d)" d="M1213.83 53.2c20.33 0 38.74 8.15 52.19 21.34l32.73-19.15v147.14h-32.02v-22.29c-13.5 13.6-32.21 22.03-52.89 22.03s-39.39-8.43-52.89-22.03v22.29h-32.02V55.39l32.73 19.15c13.45-13.19 31.86-21.34 52.19-21.34m-.02-1c-19.64 0-38.19 7.48-52.34 21.09l-32.07-18.76-1.51-.88v149.89h34.02v-20.91c14.08 13.34 32.42 20.65 51.89 20.65s37.81-7.32 51.89-20.65v20.91h34.02V53.65l-1.51.88-32.07 18.76c-14.15-13.61-32.7-21.09-52.34-21.09z"/><path fill="url(#X)" d="M1086.32 52.95v149.59h-32.02v-65.89h-66.13v65.89h-32.02V52.95h32.02v55.78h66.13V52.95zm1-1h-34.02v55.78h-64.13V51.95h-34.02v151.59h34.02v-65.89h64.13v65.89h34.02z"/><path fill="url(#Y)" d="M924.82 52.95v27.92h-42.86v121.67h-32.02V80.87h-42.86V52.95h117.75m.99-1H806.07v29.92h42.86v121.67h34.02V81.87h42.86V51.95z"/><path fill="url(#aa)" d="M773.06 52.95v149.59h-32.02V52.95zm1-1h-34.02v151.59h34.02z"/><path fill="url(#ab)" d="M697.09 52.95v149.59h-41.72L586.84 92.13v110.41h-32.02V52.95h44.26l65.99 106.32V52.95zm1-1h-34.02v103.81L599.93 52.42l-.29-.47h-45.81v151.59h34.02V95.64l66.68 107.43.29.47h43.28V51.95z"/><path fill="url(#ac)" d="M514.24 52.95v89.17c0 38.26-20.19 64.31-63.07 64.31s-63.07-26.05-63.07-64.31V52.95h32.02v91.3c0 18.83 11.63 32.94 31.05 32.94s31.05-14.11 31.05-32.94v-91.3zm1-1h-34.02v92.3c0 19.1-12.07 31.94-30.05 31.94s-30.05-12.84-30.05-31.94v-92.3H387.1v90.17c0 19.7 5.44 36.02 15.72 47.18 11.08 12.03 27.35 18.13 48.35 18.13s37.26-6.1 48.35-18.13c10.28-11.16 15.72-27.48 15.72-47.18z"/><path fill="url(#ad)" d="M345.51 52.95v149.59h-32.02v-65.89h-66.63v65.89h-32.02V52.95h32.02v55.78h66.63V52.95zm1-1h-34.02v55.78h-64.63V51.95h-34.02v151.59h34.02v-65.89h64.63v65.89h34.02z"/><path fill="url(#ae)" d="M108.57 45.57c21.37 0 40.83 8.16 55.45 21.54l-13.31 11.2c13.97 11.92 22.83 29.63 22.83 49.43 0 18.09-7.4 34.45-19.34 46.23l13.93 10.34c-14.97 15.75-36.11 25.59-59.56 25.59-45.38 0-82.17-36.79-82.17-82.17s36.79-82.16 82.17-82.16m0-1c-45.86 0-83.17 37.31-83.17 83.17s37.31 83.17 83.17 83.17c23 0 44.41-9.2 60.28-25.9l.78-.82-.91-.67-13-9.65c12.14-12.4 18.81-28.73 18.81-46.12 0-18.93-8.11-36.88-22.29-49.42l12.42-10.45.87-.73-.84-.77c-15.36-14.06-35.29-21.8-56.12-21.8z"/><g clip-path="url(#af)"><path fill="url(#e)" d="M1055.87 110.3H986.6V54.52h-28.87v146.44h28.87v-65.89h69.27v65.89h28.87V54.52h-28.87z"/><path fill="url(#ag)" d="m149.68 79.51-1.41-1.21 1.42-1.2 11.92-10.03c-14.7-12.86-33.46-19.92-53.05-19.92-44.44 0-80.59 36.15-80.59 80.59s36.15 80.59 80.59 80.59c21.69 0 41.93-8.45 57.17-23.82l-12.48-9.27-1.47-1.09 1.31-1.29c12.17-12.01 18.87-28.03 18.87-45.11 0-18.57-8.12-36.15-22.28-48.23z"/><path fill="url(#ai)" d="m1265.77 76.51-.86-.84c-13.73-13.47-31.87-20.89-51.08-20.89s-37.36 7.42-51.08 20.89l-.86.84-1.04-.61-30.36-17.76v142.82h28.87v-24.54l2.69 2.71c13.8 13.91 32.19 21.56 51.78 21.56s37.97-7.66 51.78-21.56l2.69-2.71v24.54h28.87V58.14l-30.36 17.76z"/><path fill="url(#aj)" d="M666.65 164.79 598.21 54.52H556.4v146.44h28.87V86.61l70.98 114.35h39.27V54.52h-28.87z"/><path fill="url(#ak)" d="M742.61 200.96h28.87V54.52h-28.87z"/><path fill="url(#al)" d="M483.8 144.24c0 20.64-13.11 34.51-32.62 34.51s-32.62-13.87-32.62-34.51V54.52h-28.87v87.59c0 19.05 5.2 34.76 15.04 45.44 10.58 11.48 26.21 17.3 46.45 17.3s35.88-5.82 46.45-17.3c9.84-10.68 15.04-26.39 15.04-45.44V54.52H483.8z"/><path fill="url(#am)" d="M849.94 54.52h-41.29v24.77h42.86v121.67h28.87V79.29h42.86V54.52h-73.31z"/><path fill="url(#an)" d="M315.07 110.3h-69.78V54.52h-28.87v146.44h28.87v-65.89h69.78v65.89h28.87V54.52h-28.87z"/><path fill="url(#f)" d="M1213.83 54.2c19.37 0 37.65 7.48 51.49 21.05l.55.54.66-.39 31.22-18.27v144.4h-30.02v-23.72l-1.71 1.72c-13.91 14.02-32.45 21.73-52.18 21.73s-38.27-7.72-52.18-21.73l-1.71-1.72v23.72h-30.02V57.14l31.22 18.27.66.39.55-.54c13.84-13.58 32.12-21.05 51.49-21.05m-.02-1.01c-20.33 0-38.74 8.15-52.19 21.34l-32.73-19.15v147.14h32.02v-22.29c13.5 13.6 32.21 22.03 52.89 22.03s39.39-8.43 52.89-22.03v22.29h32.02V55.39L1266 74.54c-13.45-13.19-31.86-21.34-52.19-21.34z"/><path fill="url(#ao)" d="M1085.32 53.95v147.59h-30.02v-65.89h-68.13v65.89h-30.02V53.95h30.02v55.78h68.13V53.95zm1-1h-32.02v55.78h-66.13V52.95h-32.02v149.59h32.02v-65.89h66.13v65.89h32.02z"/><path fill="url(#aq)" d="M923.82 53.95v25.92h-42.86v121.67h-30.02V79.87h-42.86V53.95h115.75m.99-1H807.07v27.92h42.86v121.67h32.02V80.87h42.86V52.95z"/><path fill="url(#ar)" d="M772.06 53.95v147.59h-30.02V53.95zm1-1h-32.02v149.59h32.02z"/><path fill="url(#as)" d="M696.09 53.95v147.59h-40.16L587.7 91.61l-1.85-2.98v112.91h-30.02V53.95h42.7l65.7 105.85 1.85 2.98V53.95h30.02m.99-1h-32.02v106.32L599.08 52.95h-44.26v149.59h32.02V92.13l68.53 110.41h41.72z"/><path fill="url(#at)" d="M513.24 53.95v88.17c0 19.19-5.25 35.04-15.19 45.83-10.69 11.6-26.46 17.49-46.88 17.49s-36.19-5.88-46.88-17.49c-9.94-10.79-15.19-26.63-15.19-45.83V53.95h30.02v90.3c0 20.3 12.88 33.94 32.05 33.94s32.05-13.64 32.05-33.94v-90.3zm1-1h-32.02v91.3c0 18.83-11.63 32.94-31.05 32.94s-31.05-14.11-31.05-32.94v-91.3H388.1v89.17c0 38.26 20.19 64.31 63.07 64.31s63.07-26.05 63.07-64.31z"/><path fill="url(#au)" d="M344.51 53.95v147.59h-30.02v-65.89h-68.63v65.89h-30.02V53.95h30.02v55.78h68.63V53.95zm1-1h-32.02v55.78h-66.63V52.95h-32.02v149.59h32.02v-65.89h66.63v65.89h32.02z"/><path fill="url(#av)" d="M108.57 46.57c19.95 0 39.05 7.28 53.93 20.51l-12.43 10.46-.9.76.9.77c14.29 12.19 22.48 29.93 22.48 48.67 0 17.24-6.76 33.4-19.04 45.52l-.83.82.94.7 13.01 9.66c-15.41 15.79-35.98 24.47-58.05 24.47-44.76 0-81.17-36.41-81.17-81.17s36.41-81.17 81.16-81.17m0-1c-45.38 0-82.17 36.79-82.17 82.17s36.79 82.17 82.17 82.17c23.45 0 44.59-9.84 59.56-25.59l-13.93-10.34c11.94-11.78 19.34-28.14 19.34-46.23 0-19.8-8.87-37.52-22.83-49.43l13.31-11.2c-14.61-13.37-34.08-21.54-55.45-21.54z"/><path fill="url(#g)" d="M1213.83 57.93c18.38 0 35.74 7.1 48.88 19.99l2.58 2.53 3.12-1.82 25.62-14.99v134.18h-22.57v-29.03l-8.08 8.13c-13.21 13.31-30.8 20.63-49.54 20.63s-36.33-7.33-49.54-20.63l-8.08-8.13v29.03h-22.57V63.63l25.62 14.99 3.12 1.82 2.58-2.53c13.14-12.89 30.5-19.99 48.88-19.99"/><path fill="url(#aw)" d="M1081.6 57.67v140.15h-22.57v-65.89h-75.57v65.89h-22.57V57.67h22.57v55.78h75.57V57.67z"/><path fill="url(#ay)" d="M920.1 57.67v18.47h-42.86v121.67h-22.57V76.14h-42.86V57.67h108.3"/><path fill="url(#az)" d="M768.33 57.67v140.15h-22.57V57.67z"/><path fill="url(#aA)" d="M692.37 57.67v140.15H658L590.86 89.65l-8.74-14.08v122.25h-22.57V57.67h36.91l64.6 104.09 8.74 14.08V57.67z"/><path fill="url(#aB)" d="M509.52 57.67v84.44c0 38.43-20.72 59.59-58.34 59.59s-58.34-21.16-58.34-59.59V57.67h22.57v86.57c0 10.49 3.36 19.98 9.47 26.71 6.5 7.17 15.6 10.96 26.3 10.96s19.8-3.79 26.3-10.96c6.1-6.73 9.47-16.21 9.47-26.71V57.67z"/><path fill="url(#aC)" d="M340.79 57.67v140.15h-22.57v-65.89h-76.08v65.89h-22.57V57.67h22.57v55.78h76.08V57.67z"/><path fill="url(#aD)" d="M108.57 50.3c17.58 0 34.48 5.92 48.14 16.79l-9.05 7.61-4.27 3.59 4.24 3.62c13.46 11.48 21.18 28.19 21.18 45.84 0 16.23-6.37 31.46-17.93 42.87l-3.92 3.87 4.42 3.28 9.5 7.05c-14.31 13.17-32.69 20.36-52.31 20.36-42.7 0-77.44-34.74-77.44-77.44S65.87 50.3 108.57 50.3"/><g opacity=".7"><path fill="url(#h)" d="M1218.56 46.9c20.33 0 38.74 8.15 52.19 21.34l32.73-19.15v147.14h-32.02v-22.29c-13.5 13.6-32.21 22.03-52.89 22.03s-39.39-8.43-52.89-22.03v22.29h-32.02V49.09l32.73 19.15c13.45-13.19 31.86-21.34 52.19-21.34m95.89-16.99-16.55 9.69-25.84 15.12c-15.14-12.19-33.85-18.82-53.52-18.82s-38.37 6.63-53.52 18.82L1139.2 39.6l-16.55-9.69v177.32h54.02v-11.18c12.65 7.13 26.97 10.92 41.89 10.92s29.25-3.79 41.89-10.92v11.18h54.02z"/><path fill="url(#aE)" d="M1080.69 53.29v141.37h-29.39v-62.27h-60.7v62.27h-29.39V53.29h29.39v52.72h60.7V53.29zm11-11h-51.39v52.72h-38.7V42.29h-51.39v163.37h51.39v-62.27h38.7v62.27h51.39z"/><path fill="url(#aM)" d="M917.18 56.1v26.73h-35.74v116.5h-26.7V82.83H819V56.1zm11-11H808v48.73h35.74v116.5h48.7V93.83h35.74z"/><path fill="url(#aN)" d="M769.04 45.07v152.17h-25.85V45.07zm11-11h-47.85v174.17h47.85z"/><path fill="url(#aO)" d="M693.57 52.59v142.07h-38.84L590.94 89.81v104.85h-29.81V52.59h41.2l61.43 100.97V52.59zm11-11h-51.81v72.73l-41.04-67.45-3.21-5.28h-58.38v164.07h51.81v-76.61l43.4 71.33 3.21 5.28h56.02z"/><path fill="url(#aP)" d="M519.23 53.29v86.07c0 36.93-19.98 62.07-62.41 62.07s-62.41-25.14-62.41-62.07V53.29h31.69v88.12c0 18.18 11.51 31.79 30.72 31.79s30.72-13.61 30.72-31.79V53.29zm11-11h-53.69v99.12c0 13.02-7.37 20.79-19.72 20.79s-19.72-7.77-19.72-20.79V42.29h-53.69v97.07c0 45.76 27.44 73.07 73.41 73.07s73.41-27.32 73.41-73.07z"/><path fill="url(#aQ)" d="M353.27 52.94v144.3h-31.22v-63.56h-64.96v63.56h-31.22V52.94h31.22v53.81h64.96V52.94zm11-11h-53.22v53.81h-42.96V41.94h-53.22v166.3h53.22v-63.56h42.96v63.56h53.22z"/><path fill="url(#aR)" d="M114.87 37.7c21.37 0 40.83 8.16 55.45 21.54l-13.31 11.2c13.97 11.92 22.83 29.63 22.83 49.43 0 18.09-7.4 34.45-19.34 46.23l13.93 10.34c-14.97 15.75-36.11 25.59-59.56 25.59-45.38 0-82.17-36.79-82.17-82.17S69.49 37.7 114.87 37.7m0-11c-51.37 0-93.17 41.79-93.17 93.17s41.79 93.17 93.17 93.17c12.99 0 25.57-2.63 37.38-7.82 11.39-5 21.54-12.13 30.15-21.2l8.56-9-9.97-7.41-4.47-3.32c9.31-12.85 14.33-28.24 14.33-44.42 0-17.94-6.32-35.1-17.65-48.67l4.21-3.54 9.59-8.07-9.25-8.46c-17.21-15.75-39.54-24.42-62.87-24.42z"/></g><g opacity=".8"><path fill="url(#i)" d="M1223.86 58.02c20.88 0 39.8 8.37 53.62 21.92l33.62-19.67v151.17h-32.9v-22.9c-13.87 13.97-33.09 22.63-54.34 22.63s-40.47-8.66-54.34-22.63v22.9h-32.9V60.27l33.62 19.67c13.81-13.55 32.73-21.92 53.62-21.92m98.24-16.93-16.55 9.69-26.73 15.64c-15.53-12.56-34.75-19.39-54.95-19.39s-39.42 6.83-54.95 19.39l-26.73-15.64-16.55-9.69v181.35h54.9v-11.7c13.06 7.46 27.89 11.44 43.34 11.44s30.29-3.97 43.34-11.43v11.7h54.9V41.09z"/><path fill="url(#aS)" d="M1104.58 56.18v151.28h-32.38v-66.63h-66.87v66.63h-32.38V56.18h32.38v56.41h66.87V56.18zm11-11h-54.38v56.41h-44.87V45.18h-54.38v173.28h54.38v-66.63h44.87v66.63h54.38z"/><path fill="url(#aT)" d="M917.88 56.18v26.46h-42.87v115.3h-32.02V82.64h-42.87V56.18zm11-11H789.12v48.46h42.87v115.3h54.02V93.64h42.87z"/><path fill="url(#aU)" d="M759.41 35.69v151.28h-32.38V35.69zm11-11h-54.38v173.28h54.38z"/><path fill="url(#aV)" d="M690.77 53.99v134.16h-35.81l-58.82-99.02v99.02h-27.48V53.99h37.99l56.64 95.36V53.99zm11-11h-49.48v66.3l-36.18-60.91-3.2-5.38h-55.25v156.16h49.48V129.2l38.36 64.58 3.2 5.38h53.07z"/><path fill="url(#aW)" d="M507.87 56.18v90.17c0 38.69-21.22 65.04-66.3 65.04s-66.3-26.34-66.3-65.04V56.18h33.66v92.33c0 19.05 12.22 33.31 32.64 33.31s32.64-14.26 32.64-33.31V56.18zm11-11h-55.66v103.33c0 6.7-1.96 12.32-5.67 16.25-3.74 3.96-9.26 6.06-15.97 6.06s-12.23-2.1-15.97-6.06c-3.71-3.93-5.67-9.55-5.67-16.25V45.18h-55.66v101.17c0 47.61 28.9 76.04 77.3 76.04s77.3-28.42 77.3-76.04z"/><path fill="url(#aZ)" d="M333.35 51.45v151.28h-32.38V136.1h-67.38v66.63h-32.38V51.45h32.38v56.41h67.38V51.45zm11-11h-54.38v56.41h-45.38V40.45h-54.38v173.28h54.38V147.1h45.38v66.63h54.38z"/><path fill="url(#ba)" d="M101.62 51.88c21.61 0 41.29 8.26 56.07 21.78l-13.46 11.32c14.12 12.05 23.09 29.97 23.09 49.99 0 18.3-7.49 34.84-19.56 46.76l14.08 10.46c-15.14 15.93-36.51 25.88-60.23 25.88-45.89 0-83.09-37.2-83.09-83.09s37.21-83.1 83.1-83.1m0-11c-51.88 0-94.09 42.21-94.09 94.09s42.21 94.09 94.09 94.09c13.12 0 25.82-2.66 37.75-7.89 11.51-5.05 21.75-12.26 30.45-21.41l8.56-9-9.97-7.4-4.62-3.43c9.44-12.99 14.54-28.57 14.54-44.95 0-18.15-6.41-35.52-17.9-49.23l4.36-3.66 9.59-8.07-9.25-8.46c-17.38-15.9-39.93-24.66-63.5-24.66z"/></g><path fill="url(#j)" d="M1213.83 57.93c18.38 0 35.74 7.1 48.88 19.99l2.58 2.53 3.12-1.82 25.62-14.99v134.18h-22.57v-29.03l-8.08 8.13c-13.21 13.31-30.8 20.63-49.54 20.63s-36.33-7.33-49.54-20.63l-8.08-8.13v29.03h-22.57V63.63l25.62 14.99 3.12 1.82 2.58-2.53c13.14-12.89 30.5-19.99 48.88-19.99"/><path fill="url(#bb)" d="M1081.6 57.67v140.15h-22.57v-65.89h-75.57v65.89h-22.57V57.67h22.57v55.78h75.57V57.67z"/><path fill="url(#bc)" d="M920.1 57.67v18.47h-42.86v121.67h-22.57V76.14h-42.86V57.67h108.3"/><path fill="url(#bd)" d="M768.33 57.67v140.15h-22.57V57.67z"/><path fill="url(#be)" d="M692.37 57.67v140.15H658L590.86 89.65l-8.74-14.08v122.25h-22.57V57.67h36.91l64.6 104.09 8.74 14.08V57.67z"/><path fill="url(#bf)" d="M509.52 57.67v84.44c0 38.43-20.72 59.59-58.34 59.59s-58.34-21.16-58.34-59.59V57.67h22.57v86.57c0 10.49 3.36 19.98 9.47 26.71 6.5 7.17 15.6 10.96 26.3 10.96s19.8-3.79 26.3-10.96c6.1-6.73 9.47-16.21 9.47-26.71V57.67z"/><path fill="url(#bg)" d="M340.79 57.67v140.15h-22.57v-65.89h-76.08v65.89h-22.57V57.67h22.57v55.78h76.08V57.67z"/><path fill="url(#bh)" d="M108.57 50.3c17.58 0 34.48 5.92 48.14 16.79l-9.05 7.61-4.27 3.59 4.24 3.62c13.46 11.48 21.18 28.19 21.18 45.84 0 16.23-6.37 31.46-17.93 42.87l-3.92 3.87 4.42 3.28 9.5 7.05c-14.31 13.17-32.69 20.36-52.31 20.36-42.7 0-77.44-34.74-77.44-77.44S65.87 50.3 108.57 50.3"/></g><circle cx="1209.28" cy="132.33" r="47.31" fill="#12569e" opacity=".5"/><circle cx="1223.11" cy="123.15" r="47.31" fill="#12569e" opacity=".5"/><circle cx="1213.88" cy="127.79" r="47.31" fill="#fbfdfe"/><circle cx="1213.88" cy="127.79" r="40.94" fill="url(#l)"/><circle cx="1213.88" cy="127.79" r="37.85" fill="#fff"/><path fill="url(#m)" d="M1213.88 95.08c-18.03 0-32.71 14.67-32.71 32.71s14.67 32.71 32.71 32.71 32.71-14.67 32.71-32.71-14.67-32.71-32.71-32.71"/><path fill="url(#n)" d="M1213.88 96.93c-17.01 0-30.85 13.84-30.85 30.85s13.84 30.85 30.85 30.85 30.85-13.84 30.85-30.85-13.84-30.85-30.85-30.85"/><path fill="url(#o)" d="M1213.88 102.7c-13.83 0-25.09 11.25-25.09 25.09s11.25 25.09 25.09 25.09 25.09-11.25 25.09-25.09-11.25-25.09-25.09-25.09"/><circle cx="1213.88" cy="127.79" r="23.7" fill="url(#p)"/><circle cx="1213.88" cy="127.79" r="21.86" fill="url(#q)"/><circle cx="1213.88" cy="127.79" r="20.03" fill="url(#r)"/><g fill="#07346d" clip-path="url(#bi)"><path d="M1220 100.16c11.88 0 21.51 9.63 21.51 21.51s-9.63 21.51-21.51 21.51-21.51-9.63-21.51-21.51 9.63-21.51 21.51-21.51m0-7c-15.72 0-28.51 12.79-28.51 28.51s12.79 28.51 28.51 28.51 28.51-12.79 28.51-28.51-12.79-28.51-28.51-28.51" opacity=".2"/><path d="M1209.66 109.07c11.79 0 21.36 9.56 21.36 21.36s-9.56 21.36-21.36 21.36-21.36-9.56-21.36-21.36 9.56-21.36 21.36-21.36m0-7c-15.64 0-28.36 12.72-28.36 28.36s12.72 28.36 28.36 28.36 28.36-12.72 28.36-28.36-12.72-28.36-28.36-28.36" opacity=".2"/></g><circle cx="100.5" cy="122.88" r="47.31" fill="#12569e" opacity=".5"/><circle cx="115.89" cy="131.03" r="47.31" fill="#12569e" opacity=".5"/><circle cx="108.24" cy="127.79" r="47.31" fill="#fbfdfe"/><circle cx="108.24" cy="127.79" r="40.94" fill="url(#bj)"/><circle cx="108.24" cy="127.79" r="37.85" fill="#fff"/><path fill="url(#bk)" d="M108.24 95.08c-18.03 0-32.71 14.67-32.71 32.71s14.67 32.71 32.71 32.71 32.71-14.67 32.71-32.71-14.67-32.71-32.71-32.71"/><path fill="url(#bl)" d="M108.24 96.93c-17.01 0-30.85 13.84-30.85 30.85s13.84 30.85 30.85 30.85 30.85-13.84 30.85-30.85-13.84-30.85-30.85-30.85"/><path fill="url(#bm)" d="M108.24 102.7c-13.83 0-25.09 11.25-25.09 25.09s11.25 25.09 25.09 25.09 25.09-11.25 25.09-25.09-11.25-25.09-25.09-25.09"/><circle cx="108.24" cy="127.79" r="23.7" fill="url(#bn)"/><circle cx="108.24" cy="127.79" r="21.86" fill="url(#bo)"/><circle cx="108.24" cy="127.79" r="20.03" fill="url(#bp)"/><g fill="#07346d" clip-path="url(#bq)"><path d="M114.36 100.16c11.88 0 21.51 9.63 21.51 21.51s-9.63 21.51-21.51 21.51-21.51-9.63-21.51-21.51 9.63-21.51 21.51-21.51m0-7c-15.72 0-28.51 12.79-28.51 28.51s12.79 28.51 28.51 28.51 28.51-12.79 28.51-28.51-12.79-28.51-28.51-28.51" opacity=".2"/><path d="M104.03 109.07c11.79 0 21.36 9.56 21.36 21.36s-9.56 21.36-21.36 21.36-21.36-9.56-21.36-21.36 9.56-21.36 21.36-21.36m0-7c-15.64 0-28.36 12.72-28.36 28.36s12.72 28.36 28.36 28.36 28.36-12.72 28.36-28.36-12.72-28.36-28.36-28.36" opacity=".2"/></g><path fill="url(#br)" d="M1654.37 109.33c3.92-7.08 6.53-16.24 6.53-28.08 0-21.48-8.27-57.52-63.63-57.52h-67.2l-7.13 1.59c-.88.2-1.5.97-1.5 1.87v64.88c-4.67-15.16-13.08-28.98-24.77-40.37-18.5-18.03-43.09-27.96-69.25-27.96h-66.77l-7.13 1.59c-.88.2-1.5.97-1.5 1.87v191.48c0 1.06.86 1.92 1.92 1.92h73.48c44.21 0 81.7-21.28 94.01-60.98v59.06c0 1.06.86 1.92 1.92 1.92h78.72c45.84 0 74.31-15.53 74.31-52.9 0-21.77-7.79-48.8-22.01-58.35zm-230.04 42.37v-62c23.65 2.11 27.33 20.05 27.33 31.01 0 13.27-4.9 28.92-27.33 30.99m179.27 1.76c-1.7 1.1-5.85 1.58-9.85 1.8v-5.58c3.95.11 8.1.46 9.74 1.44.06.28.14.8.14 1.65 0 .31-.02.53-.04.69z"/><path fill="url(#bs)" d="M1655.33 109.33c3.92-7.08 6.53-16.24 6.53-28.08 0-21.48-8.27-57.52-63.63-57.52h-67.2l-7.13 1.59c-.88.2-1.5.97-1.5 1.87v64.88c-4.67-15.16-13.08-28.98-24.77-40.37-18.5-18.03-43.09-27.96-69.25-27.96h-66.77l-7.13 1.59c-.88.2-1.5.97-1.5 1.87v191.48c0 1.06.86 1.92 1.92 1.92h73.48c44.21 0 81.7-21.28 94.01-60.98v59.06c0 1.06.86 1.92 1.92 1.92h78.72c45.84 0 74.31-15.53 74.31-52.9 0-21.77-7.79-48.8-22.01-58.35zm-230.04 42.37v-62c23.65 2.11 27.33 20.05 27.33 31.01 0 13.27-4.9 28.92-27.33 30.99m179.27 1.76c-1.7 1.1-5.85 1.58-9.85 1.8v-5.58c3.95.11 8.1.46 9.74 1.44.06.28.14.8.14 1.65 0 .31-.02.53-.04.69z"/><path fill="url(#u)" d="M1663.97 109.33c3.92-7.08 6.53-16.24 6.53-28.08 0-21.48-8.27-57.52-63.63-57.52h-75.84v68.33c-4.67-15.16-13.08-28.98-24.77-40.37-18.5-18.03-43.09-27.96-69.25-27.96h-75.4v193.98h75.4c44.21 0 81.7-28.96 94.01-68.66v68.66h80.63c45.84 0 74.31-23.21 74.31-60.58 0-21.77-7.79-38.25-22.01-47.8zm-230.04 42.37v-62c23.65 2.11 27.33 20.05 27.33 31.01 0 13.27-4.9 28.92-27.33 30.99m179.26 1.76c-1.7 1.1-5.85 1.58-9.85 1.8v-5.58c3.95.11 8.1.46 9.74 1.44.06.28.14.8.14 1.65 0 .31-.02.53-.04.69z"/><path fill="url(#s)" d="M1437.02 213.81h-71.51V27.62h71.51c25.13 0 48.76 9.54 66.53 26.86 17.98 17.52 27.87 41.05 27.87 66.24 0 51.33-42.35 93.1-94.4 93.1zm-6.98-128.2v70.2c30.51-.6 35.11-22.17 35.11-35.1 0-22.03-12.78-34.78-35.11-35.1"/><path fill="url(#bt)" d="M1611.67 213.81h-76.74V27.62h71.95c22.31 0 59.74 6.97 59.74 53.63 0 11.84-2.67 21.68-7.97 29.45 15.11 8.51 23.45 24.62 23.45 46.42 0 35.49-26.33 56.68-70.42 56.68zm-12.22-68.08v13.56c6.19-.09 14.09-.61 16.76-3.27.25-.25.91-.91.91-3.26 0-2.13-.37-3.58-1.11-4.3-2.49-2.47-10.4-2.72-16.56-2.73m0-63.31v9.47c6.12-.67 6.12-2.53 6.12-4.75 0-2.46 0-4.08-6.12-4.72"/><g clip-path="url(#bu)"><path fill="url(#bv)" d="M1428.73 164.06h-6.94v-86.7h7.37c27.28 0 44.22 16.61 44.22 43.35s-16.69 43.35-44.66 43.35zm8.29-128.2h-63.27v169.71h63.27c47.51 0 86.16-38.07 86.16-84.85s-38.65-84.86-86.16-84.86m185.01 126c-5.74 5.73-17.88 5.73-26.74 5.7h-4.08v-30.01h1.7c1.13 0 2.31-.01 3.52-.03 8.9-.09 20.02-.22 25.38 5.09 2.39 2.36 3.55 5.69 3.55 10.16 0 3.88-1.09 6.85-3.33 9.09m22.28-48.04c9.45-6.99 14.06-17.71 14.06-32.57 0-30.12-17.33-45.39-51.5-45.39h-63.71v169.71h68.5c39.52 0 62.18-17.66 62.18-48.44 0-23.6-10.18-38.45-29.54-43.31zm-53.1-39.95h.4c14.4 0 22.2 2.11 22.2 13.26 0 9.42-5.93 13.26-20.46 13.26h-2.14z"/><path fill="url(#bw)" d="M1376.4 38.51h60.61c45.79 0 83.51 35.98 83.51 82.2s-37.94 82.2-83.51 82.2h-60.61zm42.74 128.21h9.59c25.51 0 47.31-13.95 47.31-46.01 0-29.43-19.4-46.01-46.88-46.01h-10.03v92.01zm126.68 36.19V38.51h61.05c29.22 0 48.84 11.34 48.84 42.74 0 14.83-4.8 26.82-18.1 33.58v.44c23.55 3.05 33.58 18.97 33.58 41.86 0 34.45-29.44 45.79-59.52 45.79h-65.85zm42.74-99.86h4.8c11.34 0 23.11-1.96 23.11-15.92 0-15.04-13.3-15.92-24.86-15.92h-3.05v31.83zm0 67.16h5.45c12.65 0 34.01.65 34.01-17.44 0-19.84-21.15-17.88-35.1-17.88h-4.36z"/><path d="M1609.95 39.4c34.17 0 51.5 15.27 51.5 45.39 0 14.86-4.61 25.58-14.06 32.57 19.36 4.85 29.54 19.7 29.54 43.31 0 30.79-22.66 48.44-62.18 48.44h-68.5V39.4h63.71m-169.86 0c47.51 0 86.16 38.07 86.16 84.86s-38.65 84.85-86.16 84.85h-63.27V39.4zm169.85-7h-70.71v183.71h75.5c21.26 0 38.15-4.76 50.21-14.15 12.41-9.67 18.97-23.95 18.97-41.29 0-22.02-8.43-37.98-24.01-46.05 5.67-7.74 8.53-17.73 8.53-29.82 0-17.09-5.15-30.29-15.31-39.24-9.9-8.73-24.43-13.15-43.19-13.15zm-169.85 0h-70.27v183.71h70.27c51.37 0 93.16-41.21 93.16-91.85s-41.79-91.86-93.16-91.86" opacity=".5"/><path d="M1602.99 37.41c34.17 0 51.5 15.27 51.5 45.39 0 14.86-4.61 25.58-14.06 32.57 19.36 4.85 29.54 19.7 29.54 43.31 0 30.79-22.66 48.44-62.18 48.44h-68.5V37.41H1603m-169.86 0c47.51 0 86.16 38.07 86.16 84.86s-38.65 84.85-86.16 84.85h-63.27V37.41zm169.85-7h-70.71v183.71h75.5c21.26 0 38.15-4.76 50.21-14.15 12.41-9.67 18.97-23.95 18.97-41.29 0-22.02-8.43-37.98-24.01-46.05 5.67-7.74 8.53-17.73 8.53-29.82 0-17.09-5.15-30.29-15.31-39.24-9.9-8.73-24.43-13.15-43.19-13.15zm-169.85 0h-70.27v183.71h70.27c51.37 0 93.16-41.21 93.16-91.85s-41.79-91.86-93.16-91.86" opacity=".5"/></g><path fill="url(#t)" d="M1428.73 164.06h-6.94v-86.7h7.37c27.28 0 44.22 16.61 44.22 43.35s-16.69 43.35-44.66 43.35z"/><path fill="url(#bx)" d="M1437.02 35.86h-63.27v169.71h63.27c47.51 0 86.16-38.07 86.16-84.85s-38.65-84.86-86.16-84.86"/><path fill="url(#by)" d="M1622.03 161.86c-5.74 5.73-17.88 5.73-26.74 5.7h-4.08v-30.01h1.7c1.13 0 2.31-.01 3.52-.03 8.9-.09 20.02-.22 25.38 5.09 2.39 2.36 3.55 5.69 3.55 10.16 0 3.88-1.09 6.85-3.33 9.09"/><path fill="url(#bz)" d="M1644.31 113.82c9.45-6.99 14.06-17.71 14.06-32.57 0-30.12-17.33-45.39-51.5-45.39h-63.71v169.71h68.5c39.52 0 62.18-17.66 62.18-48.44 0-23.6-10.18-38.45-29.54-43.31z"/><path fill="url(#bA)" d="M1591.21 73.87h.4c14.4 0 22.2 2.11 22.2 13.26 0 9.42-5.93 13.26-20.46 13.26h-2.14z"/><g fill="none" stroke-miterlimit="10"><path stroke="#ff83b1" d="M1606.87 46.48c30.3 0 44.41 12.17 44.41 38.31 0 12.69-3.55 21.23-11.19 26.88l-12.05 8.92 14.54 3.65c16.27 4.08 24.18 16 24.18 36.44 0 35.99-34.52 41.36-55.1 41.36h-61.42V46.48h56.62m-22.73 64.54h9.22c6.81 0 27.54 0 27.54-20.34s-19.78-20.34-29.28-20.34h-7.48v40.69m12.98 67.15c10.71 0 22.74-.6 29.93-7.77 3.59-3.58 5.41-8.33 5.41-14.1 0-6.37-1.9-11.49-5.65-15.19-6.36-6.29-16.55-7.16-26.61-7.16-1.29 0-2.56.01-3.82.03h-.09c-1.15.01-2.27.03-3.35.03h-8.79v44.17h12.98m-160.1-131.71c43.61 0 79.08 34.89 79.08 77.77s-35.48 77.77-79.08 77.77h-56.19V46.48zm-22.31 128.21h14.02c31.91 0 51.74-19.32 51.74-50.43s-20.14-50.43-51.3-50.43h-14.46z" opacity=".3"/><path stroke="url(#bB)" d="M1606.87 42.94c30.3 0 44.41 12.17 44.41 38.31 0 12.69-3.55 21.23-11.19 26.88l-12.05 8.92 14.54 3.65c16.27 4.08 24.18 16 24.18 36.44 0 35.99-34.52 41.36-55.1 41.36h-61.42V42.94h56.62m-22.73 64.54h9.22c6.81 0 27.54 0 27.54-20.34s-19.78-20.34-29.28-20.34h-7.48v40.69m12.98 67.15c10.71 0 22.74-.6 29.93-7.77 3.59-3.58 5.41-8.33 5.41-14.1 0-6.37-1.9-11.49-5.65-15.19-6.36-6.29-16.55-7.16-26.61-7.16-1.29 0-2.56.01-3.82.03h-.09c-1.15.01-2.27.03-3.35.03h-8.79v44.17h12.98m-160.1-131.71c43.61 0 79.08 34.89 79.08 77.77s-35.48 77.77-79.08 77.77h-56.19V42.94zm-22.31 128.21h14.02c31.91 0 51.74-19.32 51.74-50.43s-20.14-50.43-51.3-50.43h-14.46z"/></g></svg>
