<svg xmlns="http://www.w3.org/2000/svg" xmlns:xlink="http://www.w3.org/1999/xlink" viewBox="0 0 1690 250"><defs><linearGradient id="q" x1="0" x2="1322.8" y1="121" y2="121" gradientUnits="userSpaceOnUse"><stop offset="0" stop-color="#f7c8dc"/><stop offset="1" stop-color="#fadce9"/></linearGradient><linearGradient id="r" x1="328.47" x2="1142.63" y1="-243.12" y2="571.04" gradientUnits="userSpaceOnUse"><stop offset="0" stop-color="#9fd9f6"/><stop offset=".08" stop-color="#bce4f9"/><stop offset=".13" stop-color="#c3e6fa"/><stop offset=".2" stop-color="#cae9fa"/><stop offset=".27" stop-color="#c8e8fa"/><stop offset=".35" stop-color="#aedef8"/><stop offset=".41" stop-color="#a0d9f6"/><stop offset=".46" stop-color="#9ed8f6"/><stop offset=".53" stop-color="#dbf0fc"/><stop offset=".64" stop-color="#fff"/><stop offset=".74" stop-color="#e0e7f5"/><stop offset=".86" stop-color="#a1d9f7"/><stop offset=".95" stop-color="#c3d1eb"/></linearGradient><linearGradient id="m" x1="330.58" x2="1123.93" y1="-237.38" y2="555.96" gradientUnits="userSpaceOnUse"><stop offset="0" stop-color="#c9e7e9"/><stop offset=".08" stop-color="#fbfdff"/><stop offset=".13" stop-color="#f3fafe"/><stop offset=".2" stop-color="#e3f3fd"/><stop offset=".27" stop-color="#d6eefb"/><stop offset=".35" stop-color="#e9f5fa"/><stop offset=".41" stop-color="#def1f6"/><stop offset=".46" stop-color="#d4edf5"/><stop offset=".53" stop-color="#d3edfa"/><stop offset=".64" stop-color="#d3edfa"/><stop offset=".71" stop-color="#d3edf9"/><stop offset=".8" stop-color="#eaf6f9"/><stop offset=".95" stop-color="#9fd8f6"/></linearGradient><linearGradient id="a" x1="1116.53" x2="1301.03" y1="35.27" y2="219.77" gradientUnits="userSpaceOnUse"><stop offset="0" stop-color="#f7c8dc"/><stop offset=".24" stop-color="#e9589b"/><stop offset=".5" stop-color="#ecbfd7"/><stop offset=".5" stop-color="#e7357a"/><stop offset=".75" stop-color="#ef8ba4"/><stop offset="1" stop-color="#f7c5cc"/></linearGradient><linearGradient xlink:href="#a" id="s" x1="937.04" x2="1086.05" y1="48.84" y2="197.85"/><linearGradient xlink:href="#a" id="u" x1="797.08" x2="933.94" y1="41.31" y2="178.17"/><linearGradient xlink:href="#a" id="v" x1="699.94" x2="809.78" y1="73.12" y2="182.96"/><linearGradient xlink:href="#a" id="w" x1="542.98" x2="704.28" y1="45.85" y2="207.15"/><linearGradient xlink:href="#a" id="x" x1="382.77" x2="527.94" y1="41.13" y2="186.3"/><linearGradient xlink:href="#a" id="y" x1="203.75" x2="353.27" y1="48.72" y2="198.24"/><linearGradient xlink:href="#a" id="z" x1="48.93" x2="177.99" y1="63.36" y2="192.42"/><linearGradient id="b" x1="1118.9" x2="1297.82" y1="38.39" y2="217.31" gradientUnits="userSpaceOnUse"><stop offset="0" stop-color="#e8d7e7"/><stop offset=".24" stop-color="#fdfcda"/><stop offset=".5" stop-color="#d3edf9"/><stop offset=".5" stop-color="#87d0e5"/><stop offset=".75" stop-color="#aea3cf"/><stop offset="1" stop-color="#ed848e"/></linearGradient><linearGradient xlink:href="#b" id="A" x1="939.04" x2="1083.88" y1="50.84" y2="195.68"/><linearGradient xlink:href="#b" id="B" x1="799.08" x2="931.83" y1="43.31" y2="176.06"/><linearGradient xlink:href="#b" id="C" x1="701.94" x2="807.78" y1="75.12" y2="180.96"/><linearGradient xlink:href="#b" id="D" x1="544.98" x2="701.85" y1="47.85" y2="204.72"/><linearGradient xlink:href="#b" id="E" x1="384.51" x2="525.44" y1="43.39" y2="184.33"/><linearGradient xlink:href="#b" id="F" x1="205.75" x2="350.96" y1="50.72" y2="195.93"/><linearGradient xlink:href="#b" id="G" x1="50.31" x2="176.54" y1="64.81" y2="191.04"/><linearGradient id="c" x1="1124.83" x2="1290.14" y1="46.18" y2="211.49" gradientUnits="userSpaceOnUse"><stop offset="0" stop-color="#fdfeff"/><stop offset=".5" stop-color="#b9e3f9"/><stop offset=".5" stop-color="#38a2dc"/><stop offset="1" stop-color="#d1ebfb"/></linearGradient><linearGradient xlink:href="#c" id="H" x1="944.04" x2="1079.07" y1="55.84" y2="190.87"/><linearGradient xlink:href="#c" id="I" x1="804.08" x2="926.82" y1="48.31" y2="171.05"/><linearGradient xlink:href="#c" id="J" x1="706.94" x2="802.78" y1="80.12" y2="175.96"/><linearGradient xlink:href="#c" id="K" x1="549.98" x2="697.17" y1="52.85" y2="200.04"/><linearGradient id="L" x1="388.74" x2="519.64" y1="49.15" y2="180.05" gradientUnits="userSpaceOnUse"><stop offset="0" stop-color="#fdfeff"/><stop offset=".5" stop-color="#b9e3f9"/><stop offset=".5" stop-color="#38a2dc"/></linearGradient><linearGradient xlink:href="#c" id="M" x1="210.75" x2="346.16" y1="55.72" y2="191.13"/><linearGradient xlink:href="#c" id="N" x1="53.75" x2="172.92" y1="68.43" y2="187.59"/><linearGradient id="d" x1="1128.39" x2="1285.19" y1="50.85" y2="207.65" gradientUnits="userSpaceOnUse"><stop offset="0" stop-color="#009de5"/><stop offset=".24" stop-color="#002267"/><stop offset=".5" stop-color="#002165"/><stop offset=".5" stop-color="#02041b"/><stop offset="1" stop-color="#004c9e"/></linearGradient><linearGradient xlink:href="#d" id="O" x1="947.04" x2="1076.14" y1="58.84" y2="187.94"/><linearGradient xlink:href="#d" id="P" x1="807.08" x2="923.63" y1="51.31" y2="167.86"/><linearGradient xlink:href="#d" id="Q" x1="709.94" x2="799.78" y1="83.12" y2="172.96"/><linearGradient xlink:href="#d" id="R" x1="552.98" x2="694.12" y1="55.85" y2="196.99"/><linearGradient xlink:href="#d" id="S" x1="391.3" x2="516.63" y1="52.59" y2="177.92"/><linearGradient xlink:href="#d" id="T" x1="214.62" x2="342.47" y1="59.59" y2="187.44"/><linearGradient xlink:href="#d" id="U" x1="55.78" x2="170.73" y1="70.59" y2="185.54"/><linearGradient id="e" x1="1173.42" x2="1240.16" y1="94.67" y2="161.41" gradientUnits="userSpaceOnUse"><stop offset="0" stop-color="#fce3d6"/><stop offset=".5" stop-color="#f6dddc"/><stop offset=".5" stop-color="#f8c7b9"/><stop offset="1" stop-color="#fef5f4"/></linearGradient><linearGradient id="f" x1="1176.4" x2="1237.18" y1="97.65" y2="158.43" gradientUnits="userSpaceOnUse"><stop offset="0" stop-color="#b6a2cd"/><stop offset="1" stop-color="#fefdfe"/></linearGradient><linearGradient id="g" x1="1177.96" x2="1235.61" y1="99.22" y2="156.86" gradientUnits="userSpaceOnUse"><stop offset="0" stop-color="#fafcfc"/><stop offset=".19" stop-color="#d6ece7"/><stop offset=".5" stop-color="#e9edf7"/><stop offset=".5" stop-color="#89c2eb"/><stop offset=".73" stop-color="#d3d5eb"/><stop offset="1" stop-color="#eaf5fd"/></linearGradient><linearGradient id="h" x1="1186.67" x2="1226.9" y1="107.93" y2="148.15" gradientUnits="userSpaceOnUse"><stop offset="0" stop-color="#efdee5"/><stop offset=".25" stop-color="#fdfcdb"/><stop offset=".47" stop-color="#d3edf9"/><stop offset=".51" stop-color="#9362a6"/><stop offset=".76" stop-color="#aea3cf"/></linearGradient><linearGradient id="i" x1="1188.63" x2="1224.94" y1="109.89" y2="146.19" gradientUnits="userSpaceOnUse"><stop offset="0" stop-color="#fdebdd"/><stop offset=".49" stop-color="#f8cac2"/><stop offset=".5" stop-color="#d68ebb"/><stop offset=".76" stop-color="#efbbd5"/><stop offset="1" stop-color="#d674ab"/></linearGradient><linearGradient id="k" x1="1206.79" x2="1206.79" y1="149.96" y2="106.12" gradientUnits="userSpaceOnUse"><stop offset="0" stop-color="#18559b"/><stop offset="1" stop-color="#09122e"/></linearGradient><linearGradient id="l" x1="1206.79" x2="1206.79" y1="145.63" y2="110.45" gradientUnits="userSpaceOnUse"><stop offset="0" stop-color="#09122e"/><stop offset="1" stop-color="#16579f"/></linearGradient><linearGradient xlink:href="#e" id="V" x1="79.92" x2="146.66" y1="94.67" y2="161.41"/><linearGradient xlink:href="#f" id="W" x1="82.9" x2="143.68" y1="97.65" y2="158.43"/><linearGradient xlink:href="#g" id="X" x1="84.47" x2="142.11" y1="99.22" y2="156.86"/><linearGradient xlink:href="#h" id="Y" x1="93.18" x2="133.41" y1="107.93" y2="148.15"/><linearGradient xlink:href="#i" id="Z" x1="95.14" x2="131.45" y1="109.89" y2="146.19"/><linearGradient xlink:href="#k" id="ab" x1="113.29" x2="113.29"/><linearGradient xlink:href="#l" id="ad" x1="113.29" x2="113.29"/><linearGradient id="af" x1="1344.96" x2="1680.35" y1="126.68" y2="126.68" gradientUnits="userSpaceOnUse"><stop offset="0" stop-color="#fadce9"/><stop offset="1" stop-color="#f7c8dc"/></linearGradient><linearGradient id="ag" x1="1365.05" x2="1612.8" y1="5.27" y2="253.02" gradientUnits="userSpaceOnUse"><stop offset=".08" stop-color="#c3d1eb"/><stop offset=".25" stop-color="#a1d9f7"/><stop offset=".53" stop-color="#e0e7f5"/><stop offset=".77" stop-color="#a0d9f6"/><stop offset=".89" stop-color="#c8e8fa"/><stop offset="1" stop-color="#9fd9f6"/></linearGradient><linearGradient xlink:href="#m" id="ai" x1="1369.64" x2="1610.57" y1="8.69" y2="249.62"/><linearGradient xlink:href="#a" id="ar" x1="1351.11" x2="1486.03" y1="59.21" y2="194.13"/><linearGradient xlink:href="#a" id="at" x1="1504.31" x2="1640.38" y1="61.08" y2="197.16"/><linearGradient xlink:href="#d" id="av" x1="1353.98" x2="1484.63" y1="61.34" y2="191.99"/><linearGradient xlink:href="#d" id="ax" x1="1507.15" x2="1639.01" y1="63.24" y2="195.1"/><linearGradient id="n" x1="1357.99" x2="1482.67" y1="64.33" y2="189" gradientUnits="userSpaceOnUse"><stop offset="0" stop-color="#cdeefb"/><stop offset=".5" stop-color="#1f77bf"/><stop offset=".5" stop-color="#0055a0"/><stop offset=".73" stop-color="#002269"/><stop offset="1" stop-color="#002961"/></linearGradient><linearGradient xlink:href="#n" id="az" x1="1511.17" x2="1636.97" y1="66.22" y2="192.03"/><linearGradient id="o" x1="1360.28" x2="1481.54" y1="66.04" y2="187.3" gradientUnits="userSpaceOnUse"><stop offset="0" stop-color="#004c9e"/><stop offset=".5" stop-color="#02041b"/><stop offset=".5" stop-color="#002165"/><stop offset=".76" stop-color="#002267"/><stop offset="1" stop-color="#009de5"/></linearGradient><linearGradient xlink:href="#o" id="aA" x1="1513.45" x2="1635.86" y1="67.94" y2="190.34"/><linearGradient id="p" x1="1364.87" x2="1479.3" y1="69.45" y2="183.88" gradientUnits="userSpaceOnUse"><stop offset="0" stop-color="#e8d7e7"/><stop offset=".24" stop-color="#fdfcda"/><stop offset=".5" stop-color="#d3edf9"/><stop offset=".68" stop-color="#87d0e5"/><stop offset=".85" stop-color="#aea3cf"/><stop offset="1" stop-color="#edb9b9"/></linearGradient><linearGradient xlink:href="#p" id="aB" x1="1518.04" x2="1633.62" y1="71.35" y2="186.93"/></defs><path d="M113.29 46.75c21.14 0 40.4 8.08 54.86 21.31l-13.17 11.08c13.82 11.79 22.59 29.32 22.59 48.91 0 17.9-7.32 34.09-19.13 45.74l13.78 10.23c-14.81 15.59-35.72 25.32-58.92 25.32-44.9 0-81.29-36.4-81.29-81.29s36.39-81.3 81.28-81.3m0 128.48c26.06 0 47.19-21.13 47.19-47.19s-21.13-47.19-47.19-47.19-47.19 21.13-47.19 47.19 21.13 47.19 47.19 47.19m967.34-121.19v148h-31.68v-65.19h-65.42v65.19h-31.68v-148h31.68v55.19h65.42V54.04zm-159.78 0v27.62h-42.41v120.38h-31.68V81.66h-42.41V54.04h116.49m-150.14 0v148h-31.68v-148zm-75.15 0v148h-41.28l-67.8-109.23v109.23h-31.68v-148h43.79l65.29 105.19V54.04zm-180.9 0v88.22c0 37.85-19.98 63.63-62.4 63.63s-62.4-25.77-62.4-63.63V54.04h31.68v90.33c0 18.63 11.5 32.59 30.72 32.59s30.72-13.95 30.72-32.59V54.04zm-166.94 0v148h-31.68v-65.19h-65.92v65.19h-31.68v-148h31.68v55.19h65.92V54.04zm859.08.26c20.11 0 38.33 8.06 51.63 21.11l32.38-18.94v145.58h-31.68V180c-13.36 13.46-31.87 21.79-52.33 21.79s-38.97-8.34-52.33-21.79v22.05h-31.68V56.46l32.38 18.94c13.3-13.05 31.52-21.11 51.63-21.11m0 120.94c26.06 0 47.19-21.13 47.19-47.19s-21.13-47.19-47.19-47.19-47.19 21.13-47.19 47.19 21.13 47.19 47.19 47.19m0-68.99c12.04 0 21.81 9.76 21.81 21.8s-9.76 21.8-21.81 21.8-21.8-9.76-21.8-21.8 9.76-21.8 21.8-21.8m-1093.5 0c12.04 0 21.81 9.76 21.81 21.8s-9.76 21.8-21.81 21.8-21.8-9.76-21.8-21.8 9.76-21.8 21.8-21.8M1322.8.67l-62.14 36.35c-16.15-9.6-34.64-14.72-53.87-14.72s-37.72 5.13-53.87 14.72L1090.78.67v21.37H186.43v19.48c-20.44-17.3-46.24-26.78-73.14-26.78-30.26 0-58.71 11.78-80.11 33.18C11.78 69.33 0 97.78 0 128.04s11.78 58.71 33.18 80.11 49.85 33.18 80.11 33.18c15.79 0 31.09-3.2 45.47-9.51a112.785 112.785 0 0 0 27.67-17.27v19.49H1322.8z" style="stroke-width:0;fill:url(#q)"/><path d="M663.87 25.04H189.43v23.18l-1.7-1.56c-20.38-18.64-46.81-28.91-74.43-28.91-29.46 0-57.16 11.47-77.99 32.3C14.47 70.88 3 98.58 3 128.04s11.47 57.16 32.3 77.99 48.53 32.3 77.99 32.3c15.38 0 30.27-3.12 44.26-9.26a109.86 109.86 0 0 0 31.87-21.26v23.23h1130.37V5.9l-43.64 25.53-15.52 9.08c-16.05-9.91-34.56-15.22-53.85-15.22s-37.8 5.3-53.85 15.22l-15.52-9.08-43.64-25.53v19.14H663.86Z" style="stroke-width:0;fill:url(#r)"/><path d="M113.29 232.83C55.51 232.83 8.5 185.82 8.5 128.04S55.51 23.25 113.29 23.25c26.25 0 51.36 9.76 70.72 27.47l10.92 9.99V30.54h78.68v55.19h18.92V30.54h152.5v113.83c0 9.09 4.69 9.09 7.22 9.09 2.7 0 7.22 0 7.22-9.09V30.54h152.19l28.71 46.26V30.54h366.66v55.19h18.42V30.54h73.82V15.49l53.8 31.47c15.9-10.58 34.45-16.17 53.71-16.17s37.81 5.59 53.71 16.17l53.8-31.47v210.05h-78.68v-4.58c-9.29 2.87-18.97 4.32-28.83 4.32s-19.55-1.45-28.83-4.32v4.58h-152.5v-65.19h-18.42v65.19h-78.68V105.16h-26.4v120.38h-78.68V105.16h-29.06v120.38h-153l-31.22-50.31v50.31h-78.68v-44.76c-12.38 31.03-40.71 48.61-79.04 48.61-22.22 0-41.64-6.06-56.16-17.52-11.54-9.11-20.01-21.64-24.88-36.66v50.34h-78.68v-65.19h-18.92v65.19h-78.68v-31.32l-5.68 5.98c-9.68 10.19-21.09 18.21-33.9 23.83-13.3 5.84-27.45 8.8-42.05 8.8Z" style="stroke-width:0;fill:url(#m)"/><path d="M1300.8 212.04h-51.68v-11.71c-12.75 7.5-27.35 11.45-42.33 11.45s-29.58-3.95-42.33-11.45v11.71h-51.68V39.03l41.15 24.07c14.86-12.13 33.6-18.8 52.87-18.8s38.01 6.67 52.87 18.8l41.15-24.07v173.01Z" style="stroke-width:0;fill:url(#a)"/><path d="M1090.63 212.04h-51.68v-65.19h-45.42v65.19h-51.68v-168h51.68v55.19h45.42V44.04h51.68z" style="stroke-width:0;fill:url(#s)"/><path d="M888.45 212.04h-51.68V91.66h-42.41V44.04h136.49v47.62h-42.4z" style="stroke-width:0;fill:url(#u)"/><path d="M729.02 44.04h51.68v168h-51.68z" style="stroke-width:0;fill:url(#v)"/><path d="M705.55 212.04h-56.84l-52.23-84.16v84.16H544.8v-168h59.34l49.73 80.11V44.04h51.68z" style="stroke-width:0;fill:url(#w)"/><path d="M452.25 215.89c-23.39 0-41.72-7.01-54.46-20.84-11.73-12.73-17.94-30.99-17.94-52.78V44.04h51.68v100.33c0 10.92 5.44 22.59 20.72 22.59s20.72-11.67 20.72-22.59V44.04h51.68v98.22c0 21.8-6.2 40.05-17.94 52.78-12.74 13.83-31.07 20.84-54.46 20.84Z" style="stroke-width:0;fill:url(#x)"/><path d="M357.71 212.04h-51.68v-65.19h-45.92v65.19h-51.68v-168h51.68v55.19h45.92V44.04h51.68z" style="stroke-width:0;fill:url(#y)"/><path d="M113.29 219.33c-50.34 0-91.29-40.95-91.29-91.29s40.95-91.29 91.29-91.29c22.86 0 44.74 8.5 61.61 23.93l8.41 7.69-13.57 11.41a74.152 74.152 0 0 1 17.83 48.26c0 16.1-5.02 31.34-14.52 44.14l14.2 10.54-7.78 8.19c-17.42 18.33-40.92 28.43-66.17 28.43Z" style="stroke-width:0;fill:url(#z)"/><path d="M1259.45 65.53c-14.73-12.45-33.21-19.24-52.67-19.24s-37.94 6.79-52.67 19.24l-39.35-23.02v167.53h47.68v-13.29c13.09 8.49 28.36 13.03 44.33 13.03s31.24-4.55 44.33-13.04v13.29h47.68V42.51l-39.35 23.02Zm-52.66 105.78c-23.86 0-43.27-19.41-43.27-43.27s19.41-43.27 43.27-43.27 43.27 19.41 43.27 43.27-19.41 43.27-43.27 43.27" style="stroke-width:0;fill:url(#b)"/><path d="M1088.63 210.04h-47.68v-65.19h-49.42v65.19h-47.68v-164h47.68v55.19h49.42V46.04h47.68z" style="stroke-width:0;fill:url(#A)"/><path d="M886.45 210.04h-47.68V89.66h-42.41V46.04h132.49v43.62h-42.4z" style="stroke-width:0;fill:url(#B)"/><path d="M731.02 46.04h47.68v164h-47.68z" style="stroke-width:0;fill:url(#C)"/><path d="M703.55 210.04h-53.73l-55.34-89.17v89.17H546.8v-164h56.23l52.84 85.13V46.04h47.68z" style="stroke-width:0;fill:url(#D)"/><path d="M452.25 213.89c-44.08 0-70.4-26.78-70.4-71.63V46.04h47.68v98.33c0 11.89 5.97 24.59 22.72 24.59s22.72-12.7 22.72-24.59V46.04h47.68v96.22c0 44.85-26.32 71.63-70.4 71.63" style="stroke-width:0;fill:url(#E)"/><path d="M355.71 210.04h-47.68v-65.19h-49.92v65.19h-47.68v-164h47.68v55.19h49.92V46.04h47.68z" style="stroke-width:0;fill:url(#F)"/><path d="M185.57 128.04c0-18.04-6.72-35.25-18.68-48.47l13.39-11.26-6.73-6.16c-16.5-15.09-37.89-23.4-60.26-23.4C64.05 38.75 24 78.81 24 128.04s40.06 89.29 89.29 89.29c24.69 0 47.68-9.88 64.72-27.81l6.22-6.55-14.01-10.4c9.95-12.66 15.34-28.17 15.34-44.53Zm-72.28 42.92c-23.67 0-42.92-19.25-42.92-42.92s19.25-42.92 42.92-42.92 42.92 19.25 42.92 42.92-19.25 42.92-42.92 42.92" style="fill:url(#G);stroke-width:0"/><path d="m1289.28 53.87-30.43 17.8c-14.23-13.16-32.62-20.38-52.07-20.38s-37.84 7.22-52.07 20.38l-30.43-17.8-4.51-2.64v153.81h37.68v-18.21c13.8 11.62 31.07 17.95 49.33 17.95s35.53-6.33 49.33-17.95v18.21h37.68V51.23z" style="stroke-width:0;fill:url(#c)"/><path d="M1083.63 51.04h-37.68v55.19h-59.42V51.04h-37.68v154h37.68v-65.19h59.42v65.19h37.68z" style="stroke-width:0;fill:url(#H)"/><path d="M923.85 51.04H801.36v33.62h42.41v120.38h37.68V84.66h42.41V51.04Z" style="stroke-width:0;fill:url(#I)"/><path d="M773.7 51.04h-37.68v154h37.68z" style="stroke-width:0;fill:url(#J)"/><path d="M698.55 51.04h-37.68v97.67l-59.74-96.25-.88-1.42H551.8v154h37.68V103.33l62.25 100.29.88 1.42h45.95v-154Z" style="stroke-width:0;fill:url(#K)"/><path d="M517.65 51.04h-37.68v93.33c0 8.59-2.55 15.95-7.38 21.27-4.94 5.44-11.97 8.32-20.34 8.32s-15.4-2.88-20.34-8.32c-4.83-5.32-7.38-12.67-7.38-21.27V51.04h-37.68v91.22c0 20.01 5.56 36.62 16.08 48.04 11.36 12.33 27.95 18.59 49.31 18.59s37.95-6.25 49.31-18.59c10.52-11.42 16.08-28.03 16.08-48.04V51.04Z" style="stroke-width:0;fill:url(#L)"/><path d="M350.71 51.04h-37.68v55.19h-59.92V51.04h-37.68v154h37.68v-65.19h59.92v65.19h37.68z" style="stroke-width:0;fill:url(#M)"/><path d="M113.29 43.75C66.81 43.75 29 81.56 29 128.04s37.81 84.29 84.29 84.29c23.31 0 45.01-9.32 61.1-26.25l2.33-2.46-2.72-2.02-11.04-8.2c11.38-12.43 17.61-28.4 17.61-45.37a67.19 67.19 0 0 0-21.02-48.83l10.53-8.86 2.62-2.2-2.52-2.31c-15.57-14.25-35.77-22.09-56.88-22.09Zm0 128.48c-24.37 0-44.19-19.82-44.19-44.19s19.82-44.19 44.19-44.19 44.19 19.82 44.19 44.19-19.82 44.19-44.19 44.19" style="stroke-width:0;fill:url(#N)"/><path d="M1258.42 75.41c-13.3-13.05-31.52-21.11-51.63-21.11s-38.33 8.06-51.63 21.11l-32.38-18.94v145.58h31.68V180c13.36 13.46 31.87 21.79 52.33 21.79s38.97-8.34 52.33-21.79v22.05h31.68V56.46l-32.38 18.94Zm-51.63 99.82c-26.06 0-47.19-21.13-47.19-47.19s21.13-47.19 47.19-47.19 47.19 21.13 47.19 47.19-21.13 47.19-47.19 47.19" style="stroke-width:0;fill:url(#d)"/><path d="M1048.95 109.23h-65.42V54.04h-31.68v148h31.68v-65.19h65.42v65.19h31.68v-148h-31.68z" style="stroke-width:0;fill:url(#O)"/><path d="M846.77 54.04h-42.41v27.62h42.41v120.38h31.68V81.66h42.4V54.04h-42.4z" style="stroke-width:0;fill:url(#P)"/><path d="M739.02 54.04h31.68v148h-31.68z" style="stroke-width:0;fill:url(#Q)"/><path d="M663.87 159.23 598.58 54.04H554.8v148h31.68V92.81l67.79 109.23h41.28v-148h-31.68z" style="stroke-width:0;fill:url(#R)"/><path d="M482.97 144.37c0 18.63-11.5 32.59-30.72 32.59s-30.72-13.96-30.72-32.59V54.04h-31.68v88.22c0 37.85 19.98 63.63 62.4 63.63s62.4-25.77 62.4-63.63V54.04h-31.68z" style="stroke-width:0;fill:url(#S)"/><path d="M316.03 109.23h-65.92V54.04h-31.68v148h31.68v-65.19h65.92v65.19h31.68v-148h-31.68z" style="stroke-width:0;fill:url(#T)"/><path d="m154.98 79.13 13.17-11.08c-14.46-13.23-33.71-21.31-54.86-21.31-44.9 0-81.29 36.4-81.29 81.29s36.4 81.29 81.29 81.29c23.2 0 44.11-9.73 58.92-25.32l-13.78-10.23c11.81-11.65 19.13-27.84 19.13-45.74 0-19.59-8.77-37.12-22.59-48.91Zm-41.69 96.1c-26.06 0-47.19-21.13-47.19-47.19s21.13-47.19 47.19-47.19 47.19 21.13 47.19 47.19-21.13 47.19-47.19 47.19" style="stroke-width:0;fill:url(#U)"/><circle cx="1206.79" cy="128.04" r="47.19" style="stroke-width:0;fill:url(#e)"/><circle cx="1206.79" cy="128.04" r="42.98" style="stroke-width:0;fill:url(#f)"/><circle cx="1206.79" cy="128.04" r="40.76" style="stroke-width:0;fill:url(#g)"/><path d="M1206.79 99.58c-15.69 0-28.46 12.77-28.46 28.46s12.77 28.46 28.46 28.46 28.46-12.77 28.46-28.46-12.77-28.46-28.46-28.46" style="stroke-width:0;fill:url(#h)"/><path d="M1206.79 102.35c-14.16 0-25.69 11.52-25.69 25.69s11.52 25.69 25.69 25.69 25.69-11.52 25.69-25.69-11.52-25.69-25.69-25.69" style="stroke-width:0;fill:url(#i)"/><circle cx="1206.79" cy="128.04" r="21.92" style="stroke-width:0;fill:url(#k)"/><circle cx="1206.79" cy="128.04" r="17.59" style="stroke-width:0;fill:url(#l)"/><circle cx="113.29" cy="128.04" r="47.19" style="stroke-width:0;fill:url(#V)"/><circle cx="113.29" cy="128.04" r="42.98" style="stroke-width:0;fill:url(#W)"/><circle cx="113.29" cy="128.04" r="40.76" style="stroke-width:0;fill:url(#X)"/><path d="M113.29 99.58c-15.69 0-28.46 12.77-28.46 28.46s12.77 28.46 28.46 28.46 28.46-12.77 28.46-28.46-12.77-28.46-28.46-28.46" style="stroke-width:0;fill:url(#Y)"/><path d="M113.29 102.35c-14.16 0-25.69 11.52-25.69 25.69s11.52 25.69 25.69 25.69 25.69-11.52 25.69-25.69-11.52-25.69-25.69-25.69" style="stroke-width:0;fill:url(#Z)"/><circle cx="113.29" cy="128.04" r="21.92" style="stroke-width:0;fill:url(#ab)"/><circle cx="113.29" cy="128.04" r="17.59" style="stroke-width:0;fill:url(#ad)"/><path d="M1664.68 110.57c1.3-5.55 2.04-11.73 2.04-18.61 0-30.38-13.68-47.56-25.15-56.63-13.42-10.6-31.19-15.98-52.82-15.98h-243.79V234h248.01c21.4 0 40.43-4.95 55.03-14.33 20.86-13.4 32.35-35.05 32.35-60.96 0-19.37-5.58-35.84-15.67-48.15Z" style="stroke-width:0;fill:url(#af)"/><path d="M1661.38 111.39c1.48-5.72 2.35-12.16 2.35-19.43 0-29.18-13.06-45.62-24.01-54.27-12.88-10.17-30.03-15.33-50.96-15.33h-240.79v208.65h245.01c20.83 0 39.3-4.79 53.41-13.85 19.97-12.82 30.97-33.58 30.97-58.44 0-19.19-5.7-35.42-15.97-47.33Z" style="stroke-width:0;fill:url(#ag)"/><path d="M1656.9 112.5c1.77-5.92 2.83-12.72 2.83-20.54 0-27.58-12.23-43.03-22.49-51.13-12.16-9.6-28.47-14.47-48.48-14.47h-236.79v200.65h241.01c48.83 0 80.38-26.8 80.38-68.29 0-18.97-5.89-34.87-16.45-46.23Z" style="stroke-width:0;fill:url(#ai)"/><path d="M1433.3 211.01h-65.33V42.36h65.33c22.75 0 44.14 8.64 60.22 24.32 16.29 15.88 25.25 37.19 25.25 60.01s-9 44.12-25.33 60.02c-16.11 15.68-37.47 24.31-60.14 24.31Zm-3.73-112.7v56.72c11.07-.83 26.07-6.07 26.07-28.35 0-17.04-9.45-27.24-26.07-28.38Z" style="stroke-width:0;fill:url(#ar)"/><path d="M1592.97 211.01h-69.94V42.36h65.72c47.83 0 54.97 31.08 54.97 49.6 0 10.69-2.46 18.84-6.1 25.04 12.74 8.15 19.73 22.56 19.73 41.72 0 18.07-7.53 32.46-21.78 41.61-10.88 6.99-25.61 10.68-42.6 10.68m-8.33-59.87v7c4.36-.18 9.32-.68 10.63-2.1-.01 0 .09-.4.09-1.16 0-1.57-.29-2.11-.29-2.12-1.23-1.22-6.21-1.56-10.43-1.64Zm0-55.23v2.43c.21-.07.37-.13.49-.19.03-.21.07-.54.07-1.01s-.03-.82-.07-1.05c-.14-.06-.3-.12-.49-.18m.41-.18" style="stroke-width:0;fill:url(#at)"/><path d="M1433.3 208.51h-62.83V44.86h62.83c22.09 0 42.86 8.38 58.48 23.61 15.8 15.4 24.5 36.08 24.5 58.22s-8.73 42.8-24.58 58.22c-15.64 15.22-36.38 23.6-58.4 23.6m-6.23-112.8v61.95c27-.48 31.07-19.55 31.07-30.97 0-19.47-11.31-30.73-31.07-30.98" style="stroke-width:0;fill:url(#av)"/><path d="M1592.97 208.51h-67.44V44.86h63.22c15.75 0 28.21 3.53 37.02 10.49 10.26 8.1 15.46 20.42 15.46 36.62 0 10.44-2.36 19.11-7.05 25.95 13.32 7.46 20.67 21.63 20.67 40.82 0 31.18-23.13 49.79-61.88 49.79Zm-10.83-59.9v12.11c5.35-.08 12.53-.54 14.9-2.9.25-.25.83-.83.83-2.93 0-1.9-.34-3.19-1-3.85-2.23-2.21-9.29-2.42-14.72-2.43Zm0-55.72v8.52c5.56-.59 5.56-2.26 5.56-4.28 0-2.22 0-3.68-5.56-4.25Z" style="stroke-width:0;fill:url(#ax)"/><path d="M1433.3 205.01h-59.33V48.36h59.33c21.17 0 41.07 8.03 56.03 22.62 15.12 14.74 23.44 34.52 23.44 55.71s-8.35 40.96-23.52 55.72c-14.98 14.58-34.86 22.61-55.96 22.61Zm-9.73-43.84h2.44c32.16 0 35.63-24.11 35.63-34.48 0-21.59-13.18-34.48-35.25-34.48h-2.83v68.96Z" style="stroke-width:0;fill:url(#n)"/><path d="M1592.97 205.01h-63.94V48.36h59.72c40.48 0 48.97 23.71 48.97 43.6 0 11.39-3.01 20.47-8.98 27.15 14.68 6.16 22.6 19.84 22.6 39.61 0 28.98-21.82 46.29-58.38 46.29Zm-14.33-40.77c6.75.03 16.9.02 20.87-3.94.8-.79 1.86-2.22 1.86-5.41 0-4.32-1.53-5.84-2.04-6.34-3.63-3.59-12.54-3.49-19.72-3.42h-.97v19.09Zm0-75.05v15.93c11.58-.32 12.56-3.81 12.56-7.98 0-5.15-1.84-7.57-12.56-7.95" style="stroke-width:0;fill:url(#az)"/><path d="M1433.3 203.01h-57.33V50.36h57.33c20.65 0 40.05 7.83 54.64 22.05 14.73 14.36 22.84 33.63 22.84 54.28s-8.14 39.9-22.91 54.28c-14.61 14.22-33.99 22.04-54.56 22.04Zm-11.73-39.84h4.44c23.56 0 37.63-13.64 37.63-36.48s-14.27-36.48-37.25-36.48h-4.83v72.96Z" style="stroke-width:0;fill:url(#o)"/><path d="M1592.97 203.01h-61.94V50.36h57.72c14.48 0 25.79 3.13 33.61 9.3 8.87 7.01 13.37 17.87 13.37 32.3 0 12.12-3.56 21.48-10.59 27.95 15.7 5.26 24.21 18.75 24.21 38.82 0 15.21-6.26 27.27-18.1 34.88-9.59 6.16-22.82 9.41-38.28 9.41Zm-16.33-36.78h1.93c7.08.01 17.79.03 22.35-4.53 1.64-1.64 2.44-3.87 2.44-6.82 0-3.47-.86-6.01-2.63-7.76-4.23-4.18-13.61-4.08-21.14-4-1.01.01-2 .02-2.95.02v23.08Zm0-59.09h.22c13.6 0 16.34-3.83 16.34-10 0-7.32-4.06-9.84-16.56-10z" style="stroke-width:0;fill:url(#aA)"/><path d="M1379.96 54.36h53.33c40.29 0 73.48 31.66 73.48 72.33s-33.38 72.33-73.48 72.33h-53.33zm37.61 112.81h8.44c22.45 0 41.63-12.28 41.63-40.48 0-25.9-17.07-40.48-41.25-40.48h-8.82z" style="stroke-width:0;fill:url(#p)"/><path d="M1535.03 199.01V54.36h53.72c25.71 0 42.97 9.98 42.97 37.6 0 13.05-4.22 23.6-15.92 29.54v.38c20.72 2.69 29.54 16.69 29.54 36.84 0 30.31-25.9 40.29-52.37 40.29zm37.61-87.86h4.22c9.98 0 20.34-1.73 20.34-14.01 0-13.24-11.7-14.01-21.87-14.01h-2.69v28.01Zm0 59.08h4.8c11.13 0 29.93.58 29.93-15.35 0-17.46-18.61-15.73-30.89-15.73h-3.84z" style="stroke-width:0;fill:url(#aB)"/></svg>