<svg xmlns="http://www.w3.org/2000/svg" viewBox="0 0 20 20"><defs><style>.b{fill:#fff}</style></defs><circle cx="10" cy="10" r="10" fill="#2281cc"/><path class="b" d="M11.67 10.41a1.74 1.74 0 001.95-1.19 2.08 2.08 0 01-1.62.32c-1.5-.18-3-4.17-6.71-4.27a7.07 7.07 0 00-2.53.3A8.45 8.45 0 001.5 10a3.61 3.61 0 00.59 1.84 3.28 3.28 0 013.57-3.61c2.89.06 3.75 2.03 6.01 2.18z"/><path class="b" d="M17.31 6.45A4.6 4.6 0 0114 12.06c-3.48.8-4.4-1.44-6.52-1.72a1.61 1.61 0 00-1.89 1.12 2 2 0 011.91-.1c1.68.67 2.77 3.85 6.55 3.88a6.78 6.78 0 003.08-.54 8.49 8.49 0 00.37-8.79.48.48 0 00-.19.54z"/><circle cx="10" cy="10" r="8.5" fill="none" stroke="#fff" stroke-width=".75"/></svg>