<svg xmlns="http://www.w3.org/2000/svg" width="469.047" height="112.694" viewBox="0 0 351.786 84.519"><title>logo_piapro</title><g data-name="レイヤー 2" fill="#000"><path d="M275.914.482L251.987 15.8s-6.787 4.136-6.787 13.877v27.508a8.818 8.818 0 0017.637 0v-22.51c0-5.6 3.87-7.35 3.87-7.35l18.707-11.986V4.7zM31.949 3.378A31.925 31.925 0 00.323 31 8.528 8.528 0 000 33.272v51.247l17.636-11.5V35.331a14.345 14.345 0 116.9 12.222v18.838a31.943 31.943 0 107.413-63.013zM131.316 3.378a31.949 31.949 0 100 63.9 31.808 31.808 0 007.41-.874V47.553a14.3 14.3 0 116.9-12.226v23.848l6.365 4.167 11.275 7.248V35.326a31.992 31.992 0 00-31.95-31.948zM204.322 3.378A31.923 31.923 0 00172.7 31a8.548 8.548 0 00-.323 2.275v39.746l17.635 11.261V35.331a14.346 14.346 0 116.9 12.221V66.39a31.943 31.943 0 107.417-63.012zM319.836 3.378a31.924 31.924 0 00-14.311 60.473V35.333a14.34 14.34 0 116.9 12.223v18.818a31.776 31.776 0 007.413.906 31.951 31.951 0 000-63.9zM81.927 0l-8.818 4.912v11.815l8.818-4.912 8.819 4.912V4.912L81.927 0zM73.109 24.227v34.061a8.818 8.818 0 0017.637 0V24.227l-8.819-4.912z"/></g></svg>