<?xml version="1.0" encoding="UTF-8"?><svg id="a" xmlns="http://www.w3.org/2000/svg" xmlns:xlink="http://www.w3.org/1999/xlink" viewBox="0 0 73 33.76"><defs><style>.d{fill:url(#c);}.e{fill:#b8e3ed;}.f{fill:#4b4ca0;}.g{fill:#fff;stroke:rgba(118,117,183,.5);stroke-width:3px;}.g,.h,.i{stroke-linejoin:round;}.j{fill:#9c5ca5;}.k{fill:#7775b7;}.h{fill:none;stroke:#fff;}.h,.i{stroke-width:2px;}.i{fill:url(#b);stroke:rgba(237,28,36,.8);stroke-linecap:round;}</style><linearGradient id="b" x1="37.36" y1="23.5" x2="37.36" y2="10.26" gradientUnits="userSpaceOnUse"><stop offset="0" stop-color="#fffffb"/><stop offset="1" stop-color="#e6e633"/></linearGradient><linearGradient id="c" x1="37.36" y1="23.5" x2="37.36" y2="10.26" gradientUnits="userSpaceOnUse"><stop offset=".17" stop-color="#fffffb"/><stop offset=".6" stop-color="#fade26"/></linearGradient></defs><path class="g" d="M20,32L2,17,20,2v30ZM53,2l18,15-18,15V2ZM53,8H20v18h33V8Z"/><path class="h" d="M20,32L2,17,20,2v30ZM53,2l18,15-18,15V2ZM53,8H20v18h33V8Z"/><path class="j" d="M20,17h51l-18,15v-6H20v6L2,17h18Z"/><path class="e" d="M53,17H2L20,2v6h33V2l18,15h-18Z"/><path class="f" d="M19.4,30.67L3,17,19.4,3.33v27.33Z"/><path class="f" d="M53.6,3.33l16.4,13.67-16.4,13.67V3.33Z"/><rect class="f" x="18.5" y="8.5" width="36" height="17"/><path class="k" d="M18.29,28.67l-14-11.67,14-11.67v23.33Z"/><path class="k" d="M54.71,5.33l14,11.67-14,11.67V5.33Z"/><rect class="k" x="18" y="9.5" width="37" height="15"/><path class="f" d="M59.48,11.82c-.18-1.03-.35-1.69-.62-2.42-.4-1.08-1.49-1.75-2.64-1.62l-1.3.15c-.2-.03-.4-.04-.61-.02l-1.33.13c-.44.04-.86.2-1.22.45-.1-.02-.19-.04-.29-.05l-2.92-.28c-1.11-.1-2.18.55-2.58,1.61-.27.72-.61,1.35-1.01,1.91-.13-.11-.28-.21-.44-.29l-2.53-1.32c-.67-.35-1.47-.38-2.17-.07-.64.28-1.12.81-1.35,1.47-.09-.07-.19-.14-.3-.21-1.59-.95-3.51-1.78-5.4-2.34-.8-.24-1.64-.06-2.27.43-.35-.19-.76-.3-1.19-.3h-11.61c-1.38,0-2.5,1.12-2.5,2.5v11.16c0,1.38,1.12,2.5,2.5,2.5h11.61c.34,0,.67-.07.96-.19.56.54,1.36.82,2.17.68,4.21-.72,6.7-1.69,8.58-3.37.35-.31.68-.62.98-.95.04.23.11.45.21.66l1.25,2.56c.42.87,1.3,1.4,2.24,1.4.14,0,.28-.01.42-.04,4.06-.69,6.59-1.85,8.46-3.89,1.81-1.96,3.05-4.54,3.69-7.66.29-.17.55-.41.76-.69.39-.55.55-1.23.43-1.9Z"/><path class="i" d="M17.71,22.71h11.61v-11.16h-11.61v11.16ZM20.49,14.13h6v6.01h-6v-6.01ZM35.44,15.91c-1.41-.93-2.63-1.55-4.57-2.26l1.18-2.33c1.6.48,3.34,1.21,4.83,2.09l-1.45,2.5ZM40.83,12.28l2.53,1.32c-.28,1.05-1.14,4.36-3.98,6.84-1.39,1.24-3.3,2.09-7.35,2.78l-.93-2.94c5.69-.52,8.28-2.47,9.73-8.01ZM55.69,12.45c-.07-.52-.31-1.5-.51-2.04l1.32-.15c.2.53.34,1.04.51,2l-1.32.2ZM53.65,12.72c-.1-.63-.3-1.67-.45-2.19l1.33-.13c.23.67.42,1.42.53,2.12l-1.42.2ZM53.28,13.23l2.74-.32c-.49,3.19-1.6,5.68-3.26,7.48-1.42,1.55-3.4,2.5-7.04,3.12l-1.25-2.56c3.02-.28,6.87-.98,8.21-5.94h-3.81c-.94,1.19-2.09,2.21-3.39,2.94l-1.74-2.04c3.18-1.56,4.29-4.5,4.57-5.24l2.92.28c-.17.44-.34.87-.67,1.52h2.6c.06.22.11.55.13.77Z"/><path class="d" d="M17.71,22.71h11.61v-11.16h-11.61v11.16ZM20.49,14.13h6v6.01h-6v-6.01ZM35.44,15.91c-1.41-.93-2.63-1.55-4.57-2.26l1.18-2.33c1.6.48,3.34,1.21,4.83,2.09l-1.45,2.5ZM40.83,12.28l2.53,1.32c-.28,1.05-1.14,4.36-3.98,6.84-1.39,1.24-3.3,2.09-7.35,2.78l-.93-2.94c5.69-.52,8.28-2.47,9.73-8.01ZM55.69,12.45c-.07-.52-.31-1.5-.51-2.04l1.32-.15c.2.53.34,1.04.51,2l-1.32.2ZM53.65,12.72c-.1-.63-.3-1.67-.45-2.19l1.33-.13c.23.67.42,1.42.53,2.12l-1.42.2ZM53.28,13.23l2.74-.32c-.49,3.19-1.6,5.68-3.26,7.48-1.42,1.55-3.4,2.5-7.04,3.12l-1.25-2.56c3.02-.28,6.87-.98,8.21-5.94h-3.81c-.94,1.19-2.09,2.21-3.39,2.94l-1.74-2.04c3.18-1.56,4.29-4.5,4.57-5.24l2.92.28c-.17.44-.34.87-.67,1.52h2.6c.06.22.11.55.13.77Z"/></svg>