<?xml version="1.0" encoding="UTF-8"?><svg id="a" xmlns="http://www.w3.org/2000/svg" xmlns:xlink="http://www.w3.org/1999/xlink" viewBox="0 0 73 33.76"><defs><style>.c{fill:url(#b);}.d{fill:#b8e3ed;}.e{fill:#4b4ca0;}.f{fill:rgba(237,28,36,.8);}.g{fill:#fff;stroke:rgba(118,117,183,.5);stroke-width:3px;}.g,.h{stroke-linejoin:round;}.i{fill:#9c5ca5;}.j{fill:#7775b7;}.h{fill:none;stroke:#fff;stroke-width:2px;}</style><linearGradient id="b" x1="36.5" y1="22.72" x2="36.5" y2="11.44" gradientUnits="userSpaceOnUse"><stop offset=".17" stop-color="#fffffb"/><stop offset=".6" stop-color="#fade26"/></linearGradient></defs><path class="g" d="M20,32L2,17,20,2v30ZM53,2l18,15-18,15V2ZM53,8H20v18h33V8Z"/><path class="h" d="M20,32L2,17,20,2v30ZM53,2l18,15-18,15V2ZM53,8H20v18h33V8Z"/><path class="i" d="M20,17h51l-18,15v-6H20v6L2,17h18Z"/><path class="d" d="M53,17H2L20,2v6h33V2l18,15h-18Z"/><path class="e" d="M19.4,30.67L3,17,19.4,3.33v27.33Z"/><path class="e" d="M53.6,3.33l16.4,13.67-16.4,13.67V3.33Z"/><rect class="e" x="18.5" y="8.5" width="36" height="17"/><path class="j" d="M18.29,28.67l-14-11.67,14-11.67v23.33Z"/><path class="j" d="M54.71,5.33l14,11.67-14,11.67V5.33Z"/><rect class="j" x="18" y="9.5" width="37" height="15"/><path class="e" d="M60.71,15.76c.01-.1.02-.2.02-.3,0-2.13-.52-3.7-1.61-4.8-1.72-1.73-4.27-1.73-6.53-1.73h-23.39c-6.68,0-7.95,2.95-7.95,8.38,0,.08,0,.15,0,.22h-1.22v-5.99c0-1.38-1.12-2.5-2.5-2.5h-2.81c-1.38,0-2.5,1.12-2.5,2.5v11.06c0,1.38,1.12,2.5,2.5,2.5,0,0,36.6.11,38.37.11,2.04,0,5.84,0,7.18-3.49.5-1.32.5-2.03.5-5.43,0-.19-.02-.37-.06-.55Z"/><path class="f" d="M59.16,15.83c.05-.12.08-.25.08-.38,0-1.74-.37-2.92-1.17-3.73-1.19-1.19-3.01-1.28-5.47-1.28-2.11,0-3.32.16-4.51,1.06-.33.26-.58.55-.79.88v-.82c0-.55-.45-1-1-1h-2.81c-.55,0-1,.45-1,1v3.29l-1.68-3.71c-.16-.36-.52-.59-.91-.59h-4.06c-.55,0-1,.45-1,1v.97c-.9-1.53-2.64-2.08-5.64-2.08-5.47,0-6.45,1.8-6.45,6.88,0,.63.03,1.21.08,1.72h-4.3v-7.49c0-.55-.45-1-1-1h-2.81c-.55,0-1,.45-1,1v11.06c0,.55.45,1,1,1h8.43c.55,0,1-.45,1-1v-.2c1.07,1.06,2.78,1.31,5.19,1.31,3.05,0,4.66-.64,5.49-2.06v.95c0,.55.45,1,1,1h2.81c.55,0,1-.45,1-1v-3.27l1.67,3.68c.16.36.52.59.91.59h4.07c.55,0,1-.45,1-1v-1.01c.07.13.15.26.24.39,1.17,1.73,3.11,1.73,5.56,1.73,2.03,0,4.81,0,5.78-2.51.39-1.02.4-1.5.4-4.9,0-.17-.04-.33-.12-.47ZM51.98,19.11c-.39-.04-.5-.09-.52-.11-.09-.16-.09-.87-.09-1.4,0-1.14,0-2.33.09-2.52.17-.08.86-.08,1.48-.08.54,0,1.2,0,1.48.06,0,.05.01.13.01.24h-1.61c-.55,0-1,.45-1,1v2.25c0,.21.06.4.17.56ZM30.75,19.05c-.18.1-.97.1-1.73.1-.47,0-1.18,0-1.3-.04-.15-.25-.15-1.54-.15-2.03,0-.53,0-1.78.11-1.98.17-.09.89-.09,1.53-.09s1.38,0,1.5.05c.15.24.15,1.49.15,2.02,0,.58,0,1.78-.1,1.97Z"/><path class="c" d="M17.53,20.04h5.63v2.57h-8.43v-11.06h2.81v8.49ZM34.66,16.84c0,4.38-.51,5.88-5.3,5.88-4.41,0-5.6-.8-5.6-5.4s.6-5.88,5.45-5.88c4.35,0,5.46.95,5.46,5.4ZM31.85,17.08c0-3.07-.2-3.07-2.65-3.07s-2.64,0-2.64,3.07.21,3.07,2.46,3.07c2.68,0,2.83,0,2.83-3.07ZM43.49,19.46l-3.59-7.91h-4.06v11.06h2.81v-7.9l3.58,7.9h4.07v-11.06h-2.81v7.91ZM52.8,16.31v2.25h2.69c.04,1.6-.58,1.6-2.58,1.6-2.54,0-2.55-.51-2.55-2.54,0-3.61.03-3.61,2.57-3.61,1.94,0,2.54.01,2.48,1.45h2.82c.01-3.82-1.96-4.01-5.64-4.01-2.09,0-3,.17-3.89.84-.86.67-1.12,1.61-1.12,4.69,0,2.47.08,3.42.79,4.46.81,1.21,2.12,1.29,4.73,1.29,1.91,0,4.13,0,4.84-1.87.32-.86.34-1.21.34-4.55h-5.47Z"/></svg>