<?xml version="1.0" encoding="UTF-8"?><svg xmlns="http://www.w3.org/2000/svg" viewBox="0 0 356 100"><defs><style>.g{fill:#288cc3;}.g,.h,.i,.j,.k,.l,.m,.n,.o,.p,.q,.r,.s{stroke-width:0px;}.h{fill:#1973b4;}.i{fill:#36a64c;}.j{fill:#d5221f;}.k{fill:#cb3d86;}.l{fill:#dd5826;}.m{fill:#8baf3f;}.n{fill:#fff;}.o{fill:#e9a445;}.p{fill:#ebc92c;}.q{fill:#002b6e;}.r{fill:#022a6a;}.s{fill:#675a9c;}</style></defs><path class="o" d="M353.5,61.33c1.61,3.47,2.52,7.33,2.52,11.39,0,14.95-12.16,27.11-27.11,27.11h-36.41v-2.44c-4.32,1.68-9.01,2.61-13.92,2.61h-35.58V22.82h35.58c4.91,0,9.6.93,13.92,2.61v-2.61h36.41c14.95,0,27.11,12.16,27.11,27.11,0,4.07-.91,7.93-2.52,11.39Z"/><path class="o" d="M252.38,39.1c0-12.59-10.25-22.84-22.84-22.84s-22.01,9.43-22.79,21.32c-4.22-.9-8.76-.92-13.03-.03v-.66h-38.99C153.59,16.36,136.52,0,115.7,0s-37.89,16.36-39.03,36.89H0v63.11h48.49c6.92,0,13.52-2.29,18.88-6.33,5.38,4.04,12,6.33,18.93,6.33h76.04c6.91,0,13.52-2.29,18.88-6.33,5.38,4.04,12,6.33,18.93,6.33h52.25v-40.27c0-3.65-.85-7.17-2.45-10.32,1.6-3.15,2.45-6.66,2.45-10.32ZM115.7,12.03c14.18,0,25.84,10.96,26.97,24.86h-4.23c-1.11-11.56-10.88-20.63-22.73-20.63s-22.01,9.44-22.79,21.34c-1.37-.29-2.77-.49-4.19-.59,1.08-13.95,12.76-24.97,26.98-24.97Z"/><path class="n" d="M115.7,3.01c19.14,0,34.96,14.96,36.03,34.05l.16,2.84h38.82v1.36l3.62-.76c1.88-.39,3.84-.59,5.83-.59,2.03,0,4.03.21,5.97.62l3.4.72.23-3.47c.68-10.38,9.37-18.51,19.79-18.51,10.93,0,19.83,8.9,19.83,19.83,0,3.16-.71,6.18-2.12,8.96l-.69,1.36.69,1.36c1.41,2.78,2.12,5.79,2.12,8.96v37.26h-49.24c-6.12,0-12.2-2.03-17.12-5.73l-1.81-1.36-1.81,1.36c-4.9,3.69-10.96,5.73-17.07,5.73h-76.04c-6.12,0-12.2-2.03-17.12-5.73l-1.81-1.36-1.81,1.36c-4.9,3.69-10.96,5.73-17.07,5.73H3.01v-57.09h76.5l.16-2.84c1.07-19.09,16.89-34.05,36.03-34.05M95.68,41.27l.23-3.48c.68-10.39,9.37-18.52,19.79-18.52,4.95,0,9.7,1.84,13.36,5.19,3.64,3.33,5.91,7.85,6.38,12.72l.26,2.72h10.23l-.26-3.25c-.61-7.5-4-14.46-9.54-19.6-5.58-5.17-12.83-8.02-20.42-8.02-15.61,0-28.78,12.19-29.98,27.75l-.23,3,3,.23c1.33.1,2.6.28,3.78.54l3.41.73"/><path class="r" d="M237.55,49.42c3.08-2.39,5.06-6.13,5.06-10.32,0-7.2-5.86-13.06-13.06-13.06s-13.06,5.86-13.06,13.06c0,4.19,1.98,7.92,5.06,10.32-1.88,1.46-3.35,3.43-4.21,5.69-3.99-5.13-10.21-8.44-17.19-8.44-6.42,0-12.2,2.8-16.19,7.24v-7.24h-57.6c1.52-2.14,2.42-4.75,2.42-7.57,0-7.2-5.86-13.06-13.06-13.06s-13.06,5.86-13.06,13.06c0,5.52,3.45,10.26,8.3,12.16-2.29,1.8-4.21,4.05-5.62,6.61-3.72-6.68-10.86-11.2-19.03-11.2-6.42,0-12.2,2.8-16.19,7.24v-7.24H9.78v43.55h4.51c4.69,0,9.04-1.5,12.59-4.05v4.05h4.51c4.69,0,9.04-1.5,12.59-4.05v4.05h4.51c8.09,0,15.15-4.47,18.86-11.07,3.74,6.6,10.83,11.07,18.95,11.07h42.47v-.03c4.45-.13,8.57-1.59,11.96-4.03v4.05h4.51c4.69,0,9.04-1.5,12.59-4.05v4.05h4.51c8.09,0,15.15-4.47,18.85-11.07,3.74,6.6,10.83,11.07,18.95,11.07h42.47v-30.49c0-4.19-1.98-7.92-5.06-10.32Z"/><g><path class="p" d="M48.49,51.18H14.29v34.53h0c9.44,0,17.1-7.66,17.1-17.1v17.1h0c9.44,0,17.1-7.66,17.1-17.1v17.1h0c9.44,0,17.1-7.66,17.1-17.1v-17.43h-17.1Z"/><path class="m" d="M107.15,39.1c0-4.72,3.83-8.55,8.55-8.55h0c4.72,0,8.55,3.83,8.55,8.55s-3.83,8.55-8.55,8.55h0c-4.72,0-8.55-3.83-8.55-8.55ZM107.15,68.28v17.43h17.1v-34.53c-9.44,0-17.1,7.66-17.1,17.1Z"/><path class="p" d="M162.33,51.18h-34.2v34.53c9.44,0,17.1-7.66,17.1-17.1v17.1c9.44,0,17.1-7.66,17.1-17.1v17.1c9.44,0,17.1-7.66,17.1-17.1v-17.43h-17.1Z"/><path class="k" d="M238.09,59.73v25.98h-17.1v-25.98c0-4.72,3.83-8.55,8.55-8.55s8.55,3.83,8.55,8.55ZM229.54,47.65c4.72,0,8.55-3.83,8.55-8.55s-3.83-8.55-8.55-8.55-8.55,3.83-8.55,8.55,3.83,8.55,8.55,8.55Z"/><path class="g" d="M86.29,51.18c-9.53,0-17.26,7.73-17.26,17.26h0c0,9.53,7.73,17.26,17.26,17.26h17.26v-17.26c0-9.53-7.73-17.26-17.26-17.26ZM86.29,71.49c-1.68,0-3.04-1.36-3.04-3.04s1.36-3.04,3.04-3.04,3.04,1.36,3.04,3.04-1.36,3.04-3.04,3.04Z"/><path class="l" d="M200.14,51.18c-9.53,0-17.26,7.73-17.26,17.26h0c0,9.53,7.73,17.26,17.26,17.26h17.26v-17.26c0-9.53-7.73-17.26-17.26-17.26ZM200.14,71.49c-1.68,0-3.04-1.36-3.04-3.04s1.36-3.04,3.04-3.04,3.04,1.36,3.04,3.04-1.36,3.04-3.04,3.04Z"/></g><g><polygon class="o" points="14.29 68.61 14.29 51.18 31.39 51.18 14.29 68.61"/><polygon class="h" points="103.56 68.28 103.56 85.71 86.46 85.71 103.56 68.28"/><polygon class="i" points="124.25 68.28 124.25 85.71 107.15 85.71 124.25 68.28"/><polygon class="j" points="217.4 68.28 217.4 85.71 200.3 85.71 217.4 68.28"/><polygon class="s" points="238.09 68.28 238.09 85.71 221 85.71 238.09 68.28"/><path class="o" d="M48.49,85.71h0c9.44,0,17.1-7.66,17.1-17.1h-17.1v17.1Z"/><polygon class="o" points="128.14 68.61 128.14 51.18 145.23 51.18 128.14 68.61"/><path class="o" d="M162.33,85.71h0c9.44,0,17.1-7.66,17.1-17.1h-17.1v17.1Z"/></g><path class="n" d="M328.9,25.83c13.29,0,24.11,10.81,24.11,24.11,0,3.53-.75,6.93-2.24,10.12l-.59,1.27.59,1.27c1.49,3.19,2.24,6.6,2.24,10.12,0,13.29-10.81,24.11-24.11,24.11h-33.4v-3.83l-4.1,1.59c-4.11,1.6-8.43,2.4-12.83,2.4h-32.57V25.83h32.57c4.41,0,8.72.81,12.83,2.4l4.1,1.59v-4h33.4"/><path class="r" d="M346.24,49.93c0-9.56-7.78-17.34-17.34-17.34h-26.63v12.45c-5.2-7.52-13.88-12.45-23.7-12.45h-25.8v57.62h25.8c9.81,0,18.49-4.94,23.7-12.45v12.29h26.63c9.56,0,17.34-7.78,17.34-17.34,0-4.28-1.56-8.29-4.27-11.39,2.71-3.1,4.27-7.12,4.27-11.39Z"/><path class="g" d="M278.57,85.71c13.42,0,24.3-10.88,24.3-24.3h0c0-13.42-10.88-24.3-24.3-24.3h-21.29v48.6h21.29Z"/><path class="m" d="M306.78,59.9h22.12c7.08,0,12.82,5.75,12.82,12.82h0c0,7.08-5.75,12.82-12.82,12.82h-22.12v-25.65h0Z"/><path class="m" d="M306.78,37.11h22.12c7.08,0,12.82,5.75,12.82,12.82h0c0,7.08-5.75,12.82-12.82,12.82h-22.12v-25.65h0Z"/><path class="q" d="M280.07,64.45c-1.68,0-3.04-1.36-3.04-3.04s1.36-3.04,3.04-3.04,3.04,1.36,3.04,3.04-1.36,3.04-3.04,3.04Z"/><path class="q" d="M328.02,53.34c-1.68,0-3.04-1.36-3.04-3.04s1.36-3.04,3.04-3.04,3.04,1.36,3.04,3.04-1.36,3.04-3.04,3.04Z"/><path class="q" d="M328.02,74.84c-1.68,0-3.04-1.36-3.04-3.04s1.36-3.04,3.04-3.04,3.04,1.36,3.04,3.04-1.36,3.04-3.04,3.04Z"/><polygon class="h" points="257.28 54.54 257.28 37.11 274.38 37.11 257.28 54.54"/><polygon class="i" points="306.78 54.54 306.78 37.11 323.88 37.11 306.78 54.54"/></svg>
