<svg xmlns="http://www.w3.org/2000/svg" xmlns:xlink="http://www.w3.org/1999/xlink" id="a" version="1.1" viewBox="0 0 520 155"><defs><linearGradient id="linear-gradient" x1="261.6" x2="261.6" y1="151.8" y2="3" gradientUnits="userSpaceOnUse"><stop offset=".2" stop-color="#dff4f5" stop-opacity=".8"/><stop offset=".5" stop-color="#fff"/></linearGradient><linearGradient id="linear-gradient1" x1="96.3" x2="118.1" y1="108.1" y2="145.9" gradientTransform="matrix(1 0 0 -1 0 156)" gradientUnits="userSpaceOnUse"><stop offset="0" stop-color="#a2de80"/><stop offset=".5" stop-color="#9ade9f"/><stop offset="1" stop-color="#b9fd59"/></linearGradient><linearGradient id="linear-gradient2" x1="170.5" x2="225.2" y1="53.1" y2="147.9" gradientTransform="matrix(1 0 0 -1 0 156)" gradientUnits="userSpaceOnUse"><stop offset="0" stop-color="#86c15d"/><stop offset=".2" stop-color="#8ed457"/><stop offset=".5" stop-color="#9bdea1"/><stop offset="1" stop-color="#b9fd59"/></linearGradient><linearGradient xlink:href="#linear-gradient1" id="linear-gradient3" x1="126.4" x2="138.1" y1="75.6" y2="95.9"/><linearGradient xlink:href="#linear-gradient2" id="linear-gradient4" x1="275.5" x2="325" y1="37.1" y2="122.9"/><linearGradient id="linear-gradient5" x1="100" x2="173.6" y1="40.7" y2="83.2" gradientTransform="matrix(1 0 0 -1 0 156)" gradientUnits="userSpaceOnUse"><stop offset="0" stop-color="#f19a94"/><stop offset=".2" stop-color="#ec6daa"/><stop offset=".5" stop-color="#dfbc99"/><stop offset="1" stop-color="#ccdfc9"/></linearGradient><linearGradient id="linear-gradient6" x1="328.6" x2="340.3" y1="89.6" y2="109.9" gradientTransform="matrix(1 0 0 -1 0 156)" gradientUnits="userSpaceOnUse"><stop offset=".2" stop-color="#ec6daa"/><stop offset=".8" stop-color="#dfbc99"/><stop offset="1" stop-color="#ccdfc9"/></linearGradient><linearGradient id="linear-gradient7" x1="38.2" x2="134.9" y1="53.4" y2="109.3" gradientTransform="matrix(1 0 0 -1 0 156)" gradientUnits="userSpaceOnUse"><stop offset=".2" stop-color="#ec6daa"/><stop offset=".7" stop-color="#dfbc99"/><stop offset="1" stop-color="#ccdfc9"/></linearGradient><linearGradient xlink:href="#linear-gradient7" id="linear-gradient8" x1="193.1" x2="250.3" y1="7.4" y2="106.5"/><linearGradient id="linear-gradient9" x1="337" x2="385.2" y1="80.9" y2="80.9" gradientUnits="userSpaceOnUse"><stop offset=".2" stop-color="#498931"/><stop offset="1" stop-color="#6ece59"/></linearGradient><linearGradient xlink:href="#linear-gradient9" id="linear-gradient10" x1="413.4" x2="461.6"/><linearGradient xlink:href="#linear-gradient9" id="linear-gradient11" x1="368.4" x2="405.5" y1="34.1" y2="98.3" gradientTransform="matrix(1 0 0 -1 0 156)"/><linearGradient xlink:href="#linear-gradient9" id="linear-gradient12" x1="445" x2="472.2" y1="34.1" y2="81.2" gradientTransform="matrix(1 0 0 -1 0 156)"/><linearGradient xlink:href="#linear-gradient9" id="linear-gradient13" x1="488.8" x2="512.2" y1="43.2" y2="43.2"/><linearGradient id="linear-gradient14" x1="124" x2="351.7" y1="-57.4" y2="170.2" gradientTransform="matrix(1 0 0 -1 0 156)" gradientUnits="userSpaceOnUse"><stop offset="0" stop-color="#a1f061" stop-opacity=".3"/><stop offset=".5" stop-opacity="0"/></linearGradient><linearGradient id="linear-gradient15" x1="381.5" x2="456.1" y1="138.9" y2="9.6" gradientUnits="userSpaceOnUse"><stop offset=".1" stop-color="#52a53c"/><stop offset=".3" stop-color="#52a53c"/><stop offset=".4" stop-color="#e3fee3"/><stop offset=".4" stop-color="#d0fe65"/><stop offset=".5" stop-color="#9edb55"/><stop offset=".6" stop-color="#52a53c"/><stop offset=".7" stop-color="#98ec5f"/><stop offset=".9" stop-color="#68bc47"/></linearGradient><linearGradient id="linear-gradient16" x1="418.4" x2="418.4" y1="46.5" y2="117.5" gradientTransform="matrix(1 0 0 -1 0 156)" gradientUnits="userSpaceOnUse"><stop offset=".3" stop-color="#7cd63e"/><stop offset=".7" stop-color="#d0fe65"/><stop offset=".9" stop-color="#e3fee3"/><stop offset="1" stop-color="#7cd63e"/></linearGradient><style>.st0{stroke:#fff;stroke-linejoin:round;stroke-width:4px}</style></defs><g id="b"><g id="c"><path d="M518.5 37c-.4-.6-.9-1.2-1.4-1.6-.1-.5-.3-1-.6-1.4-.9-1.5-2.5-2.5-4.3-2.5h-15.6c-1.6 0-3.1.7-4 2h-51.3c-1.8 0-3.4 1-4.3 2.5l-7.9 13.7c-.6 1-.8 2.1-.6 3.2l-5.7-10.7c-.1-.2-.3-.5-.5-.7 0-.3-.2-.5-.3-.8l-.8-1.5q-.45-.9-1.2-1.5l-.8-1.5c-.9-1.6-2.6-2.7-4.4-2.7h-50.1c-1.8 0-3.4 1-4.3 2.5l-7.9 13.7v.1c-.4-.6-.8-1-1.3-1.4-.1-.5-.3-1-.5-1.4-.9-1.5-2.5-2.5-4.3-2.5H336l1.4-2.5c.9-1.5.9-3.5 0-5-.4-.6-.9-1.2-1.4-1.6-.1-.5-.3-1-.6-1.4-.9-1.5-2.5-2.5-4.3-2.5h-15.6c-1.6 0-3.1.7-4 2h-.2c-1.8 0-3.4 1-4.3 2.5l-6.1 10.5H292l5.5-9.5c.8-1.4.9-3 .3-4.4l-1.3-3c-.1-.3-.3-.7-.5-1 0-.4-.2-.7-.3-1l-.7-1.7c1.5-4.7 1.3-9.3-.8-12.9-.4-.7-.9-1.5-1.5-2.1-.1-.3-.3-.6-.5-.9-2.5-4.4-7.4-6.9-13.3-6.9h-.9c-9.9 0-21.9 7.1-28.2 16.5h-.5c-1.6 0-3.1.8-4 2h-2.1c-1.8 0-3.4 1-4.3 2.5l-7.5 13c-.8 1.4-.9 3-.3 4.4l1.3 3c.1.3.3.7.5.9 0 .4.2.7.3 1.1s-16 0-16 0L231.3 22h.7c1.8 0 3.4-.9 4.3-2.5l1.5-2.5c.9-1.5.9-3.5 0-5-.4-.6-.9-1.2-1.5-1.6-.1-.5-.3-1-.5-1.4-.9-1.5-2.5-2.5-4.3-2.5h-15.6c-1.6 0-3.1.7-4 2h-.2c-1.8 0-3.4 1-4.3 2.5l-21.9 38-7.8 13.5-1.8 3.1c0-.2-.2-.4-.3-.5-.4-.6-.9-1.2-1.4-1.6-.1-.5-.3-1-.6-1.4-.4-.7-1-1.3-1.7-1.8 0 0 0-.2-.1-.2-.9-1.5-2.5-2.5-4.3-2.5h-11c-1.8 0-3.4 1-4.3 2.5l-1.9 3.3c-.3-.3-.6-.6-1-.9-.1-.5-.3-1-.6-1.4-.9-1.5-2.5-2.5-4.3-2.5h-7.3c.3-.3.6-.7.8-1l6-10.5c.1-.3.3-.5.4-.8.2-.2.3-.5.5-.7l.9-1.5c.9-1.5.9-3.5 0-5-.4-.6-.9-1.2-1.4-1.6-.1-.5-.3-1-.6-1.4-.9-1.5-2.5-2.5-4.3-2.5h-20.6l5.5-9.5h.7c1.8 0 3.4-1 4.3-2.5l1.4-2.5c.9-1.5.9-3.5 0-5-.4-.6-.9-1.2-1.4-1.6-.1-.5-.3-1-.6-1.4-.9-1.5-2.5-2.5-4.3-2.5h-15.6c-1.7 0-3.3.9-4.2 2.3-1.7.1-3.2 1-4 2.5L89 33.6H37.5c-1.8 0-3.4 1-4.3 2.5l-7.8 13.5c-.9 1.5-.9 3.5 0 5 .4.6.9 1.2 1.4 1.6.1.5.3 1 .6 1.4.9 1.5 2.5 2.5 4.3 2.5h27.1L6.3 94.4c-1.8 1.2-2.7 3.5-2 5.6.3 1.1 1 2 1.9 2.6v.4c.6 2.1 2.6 3.6 4.8 3.6h16c1 0 1.9-.3 2.7-.8l27.1-17.7-17.5 30.2c-.9 1.5-.9 3.5 0 5 .4.6.9 1.2 1.4 1.6.1.5.3 1 .6 1.4.9 1.5 2.5 2.5 4.3 2.5h12c1.6 0 3.1-.7 4-2h.7c0 .1.1.2.2.3.9 1.5 2.5 2.5 4.3 2.5H179l-6.8 11.8c-.9 1.5-.9 3.5 0 5 .4.6.9 1.2 1.4 1.6.1.5.3 1 .6 1.4.9 1.5 2.5 2.5 4.3 2.5h12c1.7 0 3.3-.9 4.2-2.3 1.8 0 3.4-1 4.3-2.5l10.1-17.5h270.6c1.8 0 3.4-.9 4.3-2.5l.9-1.5c.2-.3.3-.5.4-.8.2-.2.3-.4.5-.7l1.7-3c.9-1.5.9-3.5 0-5-.4-.6-.9-1.2-1.4-1.6-.1-.5-.3-.9-.5-1.4-.3-.6-.7-1-1.2-1.4l12-20.8c.9-1.5.9-3.5 0-5-.4-.6-.9-1.2-1.4-1.6-.1-.5-.3-1-.6-1.4-.4-.7-.9-1.3-1.6-1.7l-4.3-7.3 6.9-4.8c.6-.4 1.1-1 1.5-1.6l5.4-9.4h.3c1.8 0 3.4-1 4.3-2.5l4.9-8.4h.7c1.8 0 3.4-1 4.3-2.5l1.4-2.5c.9-1.5.9-3.5 0-5Zm-252.2-7c.9-1.5.9-3.3 0-4.9 4.1-3.6 9.4-6.1 13.3-6.1h.6c0 .2-.1.3-.2.5h-1.2c-1.8 0-3.4 1-4.3 2.5l-12.7 22c-.4.8-.7 1.6-.7 2.5h-4.5l9.5-16.5Zm-7.8 45c1.6 0 3.1-.8 4-2s0 0 .1 0c-.6.4-1 .9-1.4 1.5l-3.1 5.3-4.7 8.2c-.9 1.5-.9 3.5 0 5 .4.6.9 1.2 1.4 1.6.1.5.3 1 .6 1.4.6 1 1.4 1.7 2.5 2.1.6.2 1.2.4 1.9.4h10.8l-6.9 12h-43.4L240.8 75h17.6Zm7-3c.5-.4 1-.9 1.4-1.5l1.6-2.7c.3.5.8.9 1.3 1.3.1.5.3 1 .6 1.4.4.6.8 1.1 1.4 1.5h-6.1Zm-107.3 35c.9 1.5 2.5 2.5 4.3 2.5h12c1.6 0 3.1-.7 4-2h.2c1.8 0 3.4-1 4.3-2.5l18.5-32h10.3L190 110.8c-.5-.2-1-.2-1.5-.2h-36.6l4.1-7c0 .2.2.4.3.5.4.6.9 1.2 1.4 1.6.1.5.3 1 .6 1.4Zm-22.5-19.5h-37c-1.8 0-3.4 1-4.3 2.5l-7.8 13.5c-.9 1.5-.9 3.5 0 5 .4.6.9 1.2 1.4 1.6 0 .2 0 .3.1.5H73.8l28-48.5h1.6c-.3.3-.6.7-.8 1l-7.8 13.5c-.9 1.5-.9 3.5 0 5 .4.6.9 1.2 1.4 1.6.1.5.3 1 .6 1.4.9 1.5 2.5 2.5 4.3 2.5h29.3c1.6 0 3.1-.8 4-2 1.4 0 2.6-.6 3.6-1.5l-2.3 4Zm250.1-22.7c1.8 0 3.4-1 4.3-2.5l1.2-2.1h12.2l.9 1.6-16.8 29.1h-17.5l15-26h.7ZM460 80.6h6l2 3.7-3.8 6.6h-17.7l8.3-14.5c.1.1.2.2.4.3 0 .1 0 .3.1.4.7 2.1 2.6 3.5 4.8 3.5Zm-29.5-24.3c.1.5.3 1 .6 1.4.4.6.9 1.2 1.5 1.6l-.4.6s0-.1-.1-.2l-2-3.8c.2.1.3.3.5.4Zm-78-1.3v-.1c.4.6.8 1 1.3 1.4.1.5.3 1 .6 1.4.4.6.9 1.2 1.5 1.6L328.3 107c-.6 1.1-.8 2.3-.6 3.5H294l6.9-12h16.9c1.8 0 3.4-1 4.3-2.5l4.7-8.2 1.3-2.3c.2-.3.3-.5.4-.8.2-.2.3-.4.5-.7l.9-1.5c.9-1.5.9-3.5 0-5-.4-.6-.9-1.2-1.4-1.6-.1-.5-.3-1-.6-1.4-.4-.6-.8-1.1-1.4-1.5h6c1.6 0 3.1-.8 4-2h.2c1.8 0 3.4-1 4.3-2.5l4.9-8.4h.7c1.8 0 3.4-.9 4.3-2.5l1.5-2.5Z" style="fill:url(#linear-gradient)"/><path d="m130.3 66.5-1.1 2H109L101.2 82h29.3l1.2-2h2.9l6.3-10.9h3.6l1.4-2.5h-15.6ZM114.1 70h14.2l-.9 1.5h-14.2zm-52.6 51.8h-2.6l-1.1 2h-12l31.9-55.2-50.6 33h-16L81.4 55H31.1l7.8-13.5h52L90 43H44l-.9 1.5h48.4l14.8-25.7h2.6l1.3-2.3h15.6l-1.4 2.5h-3.6l-13 22.5h33l-.9 1.5h-33l-.9 1.5h33L133 55h-3l-1.2 2h-30l-37.4 64.8Zm133.4 22.7H192l-1.3 2.3h-12L224.2 68h-25.6l-19.9 34.6h-3l-1.1 2h-12l21.1-36.5 7.8-13.5 21.9-38h3l1.1-2h15.6l-1.5 2.5H228l-21.6 37.5h64l-.9 1.5h-64l-.9 1.5h63.9l-6 10.5h-2.9l-1.2 2h-20.5l-43 74.5Zm303.6-105-1.1 2h-54.1l-7.9 13.7h48.9l-3 5.2L460 75.7h9.4l6.3 11.8-6.4 11-2 3.4h-33l.9-1.5h29.6l.9-1.5h-29.6l22.5-39h3.6l1.4-2.5h-17.5l-1.1 1.9h-3l-30.8 53.3h18.9l-1.2 2h48l15.2-26.3h-3l1.1-1.9-6.3-10.8h-6.6l15.3-10.8 6.9-11.9h3.2L509 42h3.6l1.4-2.5h-15.6Zm-51.5 5 .9-1.5h48.7l-.9 1.5zm-380 80 .9-1.5h120l-.9 1.5zm123.4-6-1.7 3h-120l1.7-3zm290.4 4.5-.9 1.5H209l.9-1.5h271Zm-197.2-4.5 14.4-25h19.8l4.7-8.2 1.3-2.3H304l.9-1.5h19.8l.9-1.5h-19.8l7-12h19.8l1.2-2h3l6.3-10.9h3.6l1.5-2.5h-15.6l-1.1 2h-10.8l7.2-12.5h3.6l1.4-2.5h-15.6l-1.1 2h-3l-9.2 16h-17.2l.9-1.5h15l.9-1.5h-21l-7.8 13.5H298l-8.7 15h-17.2l.9-1.5h15l.9-1.5h-21l-3 5.3-4.7 8.2h23.2l-14.5 25h-56.2l-1.7 3h271l1.7-3H283.9ZM330.5 56l-.9 1.5h-10.8l.9-1.5zm-91.1-8.5 11.6-20h3.4l.4-.7c5-8.7 16.2-15.8 25-15.8h.9c4.2 0 7.4 1.6 9 4.4 1.8 3.2 1.5 7.5-1 12.1h1.4l.8 2-11.6 20h-11l12.7-22h4.1l.5-.8c2.2-3.9 2.7-7.4 1.3-9.8-1.1-1.9-3.3-2.9-6.4-2.9h-.9c-7.5 0-17.2 6-21.9 13.5h4.2l-12.7 22h-9zm43 0 9.2-16 1.3 3-7.5 13zm-43.9-2-1.3-3 7.5-13h3zm-99.5 53 19-33h11l-1.2 2h3l-25.1 43.4h-48l1.1-2h-6l7.8-13.5h37l-.9 1.5h-31.5v1.5h33.6Zm267.7-43.3h-48l7.9-13.7h50.1l.8 1.5h-45.8l-.9 1.5h47.4l9.3 17.6-5.2 9h3l-25.1 43.4h-48l1.2-2h-18.9l30.8-53.3h3.2l1.1-1.9h17.5l-1.4 2.5h-3.6l-22.5 39H389l-.9 1.5h-29.4l-.9 1.5h32.8l1.7-3 .3-.5L412 64.7l-5.4-9.6Z" style="fill:#ccdfc9"/><g id="e"><g id="f"><path d="M122.5 16h-3.6l-16.5 28.5h-12l17.9-31h15.6z" style="fill:url(#linear-gradient1)"/><path d="M164.7 99.5h12L226 14h3.6l1.5-2.5h-15.6z" style="fill:url(#linear-gradient2)"/><path d="M138.7 63.5h-10.4L120.6 77h12l6.3-11h3.6l1.4-2.5h-5.2" style="fill:url(#linear-gradient3)"/><path d="m315.2 36.5-45.6 79h12L325.8 39h3.6l1.5-2.5z" style="fill:url(#linear-gradient4)"/><path d="M156.9 64.5h12l-25.1 43.4h-48l6-10.4h36z" style="fill:url(#linear-gradient5)"/><path d="M322.8 63h12l6.3-11h3.6l1.4-2.5h-15.6z" style="fill:url(#linear-gradient6)"/><path d="m127 54 6-10.5H91l-43.5 75.3h12L97 54z" style="fill:url(#linear-gradient7)"/><path d="m230 56.5-49.1 85h12l43-74.5h20.6l6-10.5z" style="fill:url(#linear-gradient8)"/><path d="M385.2 54.3h-17.5L337 107.5h13.9l29.2-50.7h3.7z" style="fill:url(#linear-gradient9)"/><path d="M461.6 54.3h-17.5l-30.7 53.2h13.9l29.3-50.7h3.6z" style="fill:url(#linear-gradient10)"/><path d="M392.4 101.1h-36l-6 10.4h48l25.1-43.4h-12z" style="fill:url(#linear-gradient11)"/><path d="M469.1 101.1h-36l-6.1 10.4h48l15.2-26.3h-12z" style="fill:url(#linear-gradient12)"/><path d="M496.5 36.5 488.8 50h12l6.3-11h3.6l1.5-2.5z" style="fill:url(#linear-gradient13)"/></g><path d="m280.4 44.5 9.2-16 1.3 3-7.5 13zm-34.6-18h-3l-7.5 13 1.3 3zm-8.4 18.1.8 2h9l12.7-22h-4.2c4.7-7.5 14.3-13.5 21.9-13.5h.9c3.1 0 5.3 1 6.4 2.9 1.4 2.4.9 5.9-1.3 9.8l-.5.8H279l-12.7 22h11l11.6-20-.8-2h-1.4c2.4-4.6 2.8-8.9 1-12.1-1.6-2.8-4.8-4.4-9-4.4h-.9c-8.8 0-19.9 7.1-25 15.8l-.4.7H249zm-134 50.9V94h31.5l.9-1.5h-37L91 106h51l4.7-8.2 20.4-35.3h-11l-19.1 33zM131.1 52l6-10.5h-35.6l14.8-25.7h-12L89.5 41.5H41.1L42 40h46l.9-1.5h-52L29.1 52h50.3L9.1 98.5h16l50.6-33-31.9 55.2h12l39.7-68.8h35.6ZM105 40h33l.9-1.5h-33zm30.4 27 .9-1.5H107L99.2 79h29.3l6-10.5h-23.3l.9-1.5zm125.1-2 6-10.5h-63.9l.9-1.5h64l.9-1.5h-67l21.9-38h-12l-21.9 38-7.8 13.5-21.1 36.5h12L193.6 65h28.6l-45.5 78.8h12L234.2 65h26.4Zm57.2-12h19.8l.9-1.5h-19.8zm5.1 25.5.9-1.5h-19.8l-.9 1.5zm-256.1 40h120l1.7-3h-120zm119.1 1.5h-120l-.9 1.5h120zm92.8-4.5 14.5-25h22.8l4.7-8.2 1.3-2.3h-22.8l8.7-15h22.8l6-10.5h-22.8l9.2-16h-12l-9.2 16h-17.2l.9-1.5h15l.9-1.5h-21L272.6 65h23.2l-8.7 15h-17.2l.9-1.5h15l.9-1.5h-21l-3 5.3-4.7 8.2h23.2l-14.5 25h-56.2l-1.7 3h271l1.7-3H278.7Zm-71.6 6h271l.9-1.5H207.8l-.9 1.5Z"/><path d="m280.4 44.5 9.2-16 1.3 3-7.5 13zm-34.6-18h-3l-7.5 13 1.3 3zm-8.4 18.1.8 2h9l12.7-22h-4.2c4.7-7.5 14.3-13.5 21.9-13.5h.9c3.1 0 5.3 1 6.4 2.9 1.4 2.4.9 5.9-1.3 9.8l-.5.8H279l-12.7 22h11l11.6-20-.8-2h-1.4c2.4-4.6 2.8-8.9 1-12.1-1.6-2.8-4.8-4.4-9-4.4h-.9c-8.8 0-19.9 7.1-25 15.8l-.4.7H249zm-134 50.9V94h31.5l.9-1.5h-37L91 106h51l4.7-8.2 20.4-35.3h-11l-19.1 33zM131.1 52l6-10.5h-35.6l14.8-25.7h-12L89.5 41.5H41.1L42 40h46l.9-1.5h-52L29.1 52h50.3L9.1 98.5h16l50.6-33-31.9 55.2h12l39.7-68.8h35.6ZM105 40h33l.9-1.5h-33zm30.4 27 .9-1.5H107L99.2 79h29.3l6-10.5h-23.3l.9-1.5zm125.1-2 6-10.5h-63.9l.9-1.5h64l.9-1.5h-67l21.9-38h-12l-21.9 38-7.8 13.5-21.1 36.5h12L193.6 65h28.6l-45.5 78.8h12L234.2 65h26.4Zm57.2-12h19.8l.9-1.5h-19.8zm5.1 25.5.9-1.5h-19.8l-.9 1.5zm-137 41.5h-120l-.9 1.5h120zm-119.1-1.5h120l1.7-3h-120zm211.9-3 14.5-25h22.8l4.7-8.2 1.3-2.3h-22.8l8.7-15h22.8l6-10.5h-22.8l9.2-16h-12l-9.2 16h-17.2l.9-1.5h15l.9-1.5h-21L272.6 65h23.2l-8.7 15h-17.2l.9-1.5h15l.9-1.5h-21l-3 5.3-4.7 8.2h23.2l-14.5 25h-56.2l-1.7 3h271l1.7-3H278.7Zm-71.7 6h271l.9-1.5h-271z" style="fill:url(#linear-gradient14)"/></g><g id="t"><path d="M426.7 59.1c0-.2 0-.4-.1-.5L417.3 41c-.2-.3-.5-.5-.8-.5.2-.3.2-.7 0-1l-.8-1.5c-.2-.3-.5-.5-.9-.5h-50.1c-.4 0-.7.2-.9.5l-7.9 13.7c-.2.3-.2.7 0 1s.5.5.9.5h47.4l4.8 8.6-19.1 33.1-.3.5-1.4 2.5h-1.1l.9-1.5c.2-.3.2-.7 0-1s-.5-.5-.9-.5h-30.7l22-38.1c.2-.3.2-.7 0-1s-.5-.5-.9-.5h-14c-.4 0-.7.2-.9.5l-30.8 53.3c-.2.3-.2.7 0 1s.5.5.9.5h63.9c.4 0 .7-.2.9-.5l29.1-50.3c.1-.2.2-.4.2-.6Zm-30.1 50.4 29.1-50.4-9.3-17.6 9.3 17.6zM505.1 38c-.2-.3-.5-.5-.9-.5h-62.9c-.4 0-.7.2-.9.5l-7.9 13.7c-.2.3-.2.7 0 1s.5.5.9.5h47.2l-2 3.5-21.1 15.1c-.4.3-.5.7-.4 1.1s.5.7 1 .7h8.8l5.7 10.8-6.1 10.5-1.7 2.9h-1.1l.9-1.5c.2-.3.2-.7 0-1s-.5-.5-.9-.5H433l22-38.1c.2-.3.2-.7 0-1s-.5-.5-.9-.5h-14c-.4 0-.7.2-.9.5L408.4 109c-.2.3-.2.7 0 1s.5.5.9.5h63.9c.4 0 .7-.2.9-.5l15.1-26.2c.2-.3.2-.7 0-1L482.9 72c-.2-.3-.5-.5-.9-.5h-3.4l12.7-8.9c.1 0 .2-.2.3-.3L503.3 42c.2-.3.2-.7 0-1 .4 0 .7-.2.9-.5l.9-1.5c.2-.3.2-.7 0-1m-25.8 19.3 3-5.2zL458 72.6zm23.1-15.8H445z" style="fill:url(#linear-gradient15)"/><path d="m425.7 59.1-29.1 50.4h-63.9l30.8-53.3h14l-22.9 39.6h32.5l-.9 1.5h-32.5l-.9 1.5h35.9l1.7-3 .3-.5 19.4-33.6-5.4-9.6h-48l7.9-13.7h50.1l.8 1.5h-45.8l-.9 1.5h47.4l9.3 17.6ZM503.3 40l.9-1.5h-62.9l-7.9 13.7h48.9l-3 5.2L458 72.7h9.4l6.3 11.8-6.4 11-2 3.4h-35.9l.9-1.5h32.5l.9-1.5h-32.5l22.9-39.6h-14l-30.8 53.3h63.9l15.1-26.2-6.3-10.8h-6.6l15.3-10.8 11.7-20.3H445l.9-1.5h57.5Z" style="fill:url(#linear-gradient16)"/></g></g><path d="M323.6 141.1c-3.3 0-5.4-2.5-5.4-5.7s2.1-5.7 5.4-5.7 5.4 2.5 5.4 5.7-2.1 5.7-5.4 5.7Zm0-9.4c-2 0-3.2 1.8-3.2 3.5s.8 3.7 3.2 3.7 3.2-2.1 3.2-3.7-1.2-3.5-3.2-3.5ZM333.1 139.8c0 .7-.6 1.3-1.3 1.3s-1.3-.6-1.3-1.3.6-1.3 1.3-1.3 1.3.6 1.3 1.3ZM335.3 129.7h1.5l5.7 7.6V130h2.1v11.1h-1.5l-5.7-7.6v7.4h-2.1v-11.1ZM349.4 139.8c0 .7-.6 1.3-1.3 1.3s-1.3-.6-1.3-1.3.6-1.3 1.3-1.3 1.3.6 1.3 1.3ZM361.1 135v.3c0 3.1-1.6 5.8-4.9 5.8s-5.2-2.7-5.2-5.7 2.1-5.8 5.3-5.8 3.5.9 4.3 2.6l-1.9 1c-.4-1-1.4-1.7-2.5-1.7-2 0-3 2.1-3 3.9s1 3.8 3.1 3.8 2.4-1.1 2.5-2.5h-2.3V135h4.7ZM365.3 139.8c0 .7-.6 1.3-1.3 1.3s-1.3-.6-1.3-1.3.6-1.3 1.3-1.3 1.3.6 1.3 1.3ZM369.6 131.8v2.4h3.4v1.8h-3.4v2.9h3.5v1.8h-5.6v-10.8h5.6v1.8h-3.5ZM377.6 139.8c0 .7-.6 1.3-1.3 1.3s-1.3-.6-1.3-1.3.6-1.3 1.3-1.3 1.3.6 1.3 1.3ZM385.3 129.9h2.6l-4.1 5 4.3 5.8h-2.7l-3.5-4.9v4.9h-2.1v-10.8h2.1v4.6l3.4-4.6ZM391.8 139.8c0 .7-.6 1.3-1.3 1.3s-1.3-.6-1.3-1.3.6-1.3 1.3-1.3 1.3.6 1.3 1.3ZM396.1 140.8H394V130h2.1zM402.9 129.9h3c3.1 0 5.2 2.3 5.2 5.4s-2.2 5.4-5.2 5.4h-3v-10.8Zm2.1 9h.3c2.6 0 3.6-1.4 3.6-3.6s-1.2-3.6-3.6-3.6h-.3zM415 138.5l-.9 2.3h-2.2l4.2-11.1h1.6l4.1 11.1h-2.3l-.8-2.3h-3.8Zm1.8-5.7-1.2 3.9h2.6zM425.5 140.8h-2.1v-9h-2.2V130h6.5v1.8h-2.2v9ZM430.1 138.5l-.9 2.3H427l4.2-11.1h1.6l4.1 11.1h-2.3l-.8-2.3H430Zm1.8-5.7-1.2 3.9h2.6zM438.2 129.9h2.6c2 0 3.2.8 3.2 2.9s-.3 1.7-1 2.1c1.3.2 1.9 1.5 1.9 2.7 0 2.1-1.5 3.1-3.5 3.1h-3.3v-10.8Zm2.1 4.5h.3c1 0 1.5-.3 1.5-1.4s-.6-1.4-1.5-1.4h-.3v2.8Zm0 4.7h.5c1.1 0 2.1-.1 2.1-1.6s-1.1-1.5-2.2-1.5h-.3v3ZM448.9 138.5l-.9 2.3h-2.2l4.2-11.1h1.6l4.1 11.1h-2.3l-.8-2.3h-3.8Zm1.8-5.7-1.2 3.9h2.6zM462.1 132.3c-.4-.6-.9-.9-1.6-.9s-1.3.5-1.3 1.2c0 1.8 4.3 1.1 4.3 4.7s-1.4 3.7-3.6 3.7-2.6-.9-3.3-2.1l1.4-1.3c.3.8 1 1.6 2 1.6s1.4-.7 1.4-1.6-1-1.4-1.9-1.8c-1.4-.6-2.4-1.3-2.4-3s1.3-3.2 3.2-3.2 2.3.5 3 1.2l-1 1.5ZM467.2 131.8v2.4h3.4v1.8h-3.4v2.9h3.5v1.8h-5.6v-10.8h5.6v1.8h-3.5Z" class="st0"/><path d="M323.6 141.1c-3.3 0-5.4-2.5-5.4-5.7s2.1-5.7 5.4-5.7 5.4 2.5 5.4 5.7-2.1 5.7-5.4 5.7m0-9.4c-2 0-3.2 1.8-3.2 3.5s.8 3.7 3.2 3.7 3.2-2.1 3.2-3.7-1.2-3.5-3.2-3.5M333.1 139.8c0 .7-.6 1.3-1.3 1.3s-1.3-.6-1.3-1.3.6-1.3 1.3-1.3 1.3.6 1.3 1.3M335.3 129.7h1.5l5.7 7.6V130h2.1v11.1h-1.5l-5.7-7.6v7.4h-2.1v-11.1ZM349.4 139.8c0 .7-.6 1.3-1.3 1.3s-1.3-.6-1.3-1.3.6-1.3 1.3-1.3 1.3.6 1.3 1.3M361.1 135v.3c0 3.1-1.6 5.8-4.9 5.8s-5.2-2.7-5.2-5.7 2.1-5.8 5.3-5.8 3.5.9 4.3 2.6l-1.9 1c-.4-1-1.4-1.7-2.5-1.7-2 0-3 2.1-3 3.9s1 3.8 3.1 3.8 2.4-1.1 2.5-2.5h-2.3V135h4.7ZM365.3 139.8c0 .7-.6 1.3-1.3 1.3s-1.3-.6-1.3-1.3.6-1.3 1.3-1.3 1.3.6 1.3 1.3M369.6 131.8v2.4h3.4v1.8h-3.4v2.9h3.5v1.8h-5.6v-10.8h5.6v1.8h-3.5ZM377.6 139.8c0 .7-.6 1.3-1.3 1.3s-1.3-.6-1.3-1.3.6-1.3 1.3-1.3 1.3.6 1.3 1.3M385.3 129.9h2.6l-4.1 5 4.3 5.8h-2.7l-3.5-4.9v4.9h-2.1v-10.8h2.1v4.6zM391.8 139.8c0 .7-.6 1.3-1.3 1.3s-1.3-.6-1.3-1.3.6-1.3 1.3-1.3 1.3.6 1.3 1.3M396.1 140.8H394V130h2.1zM402.9 129.9h3c3.1 0 5.2 2.3 5.2 5.4s-2.2 5.4-5.2 5.4h-3zm2.1 9h.3c2.6 0 3.6-1.4 3.6-3.6s-1.2-3.6-3.6-3.6h-.3zM415 138.5l-.9 2.3h-2.2l4.2-11.1h1.6l4.1 11.1h-2.3l-.8-2.3h-3.8Zm1.8-5.7-1.2 3.9h2.6zM425.5 140.8h-2.1v-9h-2.2V130h6.5v1.8h-2.2zM430.1 138.5l-.9 2.3H427l4.2-11.1h1.6l4.1 11.1h-2.3l-.8-2.3H430Zm1.8-5.7-1.2 3.9h2.6zM438.2 129.9h2.6c2 0 3.2.8 3.2 2.9s-.3 1.7-1 2.1c1.3.2 1.9 1.5 1.9 2.7 0 2.1-1.5 3.1-3.5 3.1h-3.3v-10.8Zm2.1 4.5h.3c1 0 1.5-.3 1.5-1.4s-.6-1.4-1.5-1.4h-.3zm0 4.7h.5c1.1 0 2.1-.1 2.1-1.6s-1.1-1.5-2.2-1.5h-.3v3ZM448.9 138.5l-.9 2.3h-2.2l4.2-11.1h1.6l4.1 11.1h-2.3l-.8-2.3h-3.8Zm1.8-5.7-1.2 3.9h2.6zM462.1 132.3c-.4-.6-.9-.9-1.6-.9s-1.3.5-1.3 1.2c0 1.8 4.3 1.1 4.3 4.7s-1.4 3.7-3.6 3.7-2.6-.9-3.3-2.1l1.4-1.3c.3.8 1 1.6 2 1.6s1.4-.7 1.4-1.6-1-1.4-1.9-1.8c-1.4-.6-2.4-1.3-2.4-3s1.3-3.2 3.2-3.2 2.3.5 3 1.2l-1 1.5ZM467.2 131.8v2.4h3.4v1.8h-3.4v2.9h3.5v1.8h-5.6v-10.8h5.6v1.8h-3.5Z"/></g></svg>
