<?xml version="1.0" encoding="UTF-8"?><svg id="a" xmlns="http://www.w3.org/2000/svg" xmlns:xlink="http://www.w3.org/1999/xlink" viewBox="0 0 520 155"><defs><style>.v{fill:url(#u);}.w{fill:url(#j);}.x{fill:url(#g);}.y{fill:url(#m);}.z{fill:url(#h);}.aa{fill:url(#i);}.ab{fill:url(#q);}.ac{fill:url(#r);}.ad{fill:url(#o);}.ae{fill:url(#p);}.af{fill:url(#k);}.ag{fill:url(#n);}.ah{fill:url(#l);}.ai{fill:url(#s);}.aj{fill:#f2f2ff;}.ak,.al{fill:#fff;}.am{fill:#141528;stroke:rgba(112,108,105,.53);stroke-miterlimit:10;}.al{stroke:#000;stroke-linejoin:round;stroke-width:4px;}</style><linearGradient id="g" x1="96.27" y1="47.9" x2="118.07" y2="10.14" gradientUnits="userSpaceOnUse"><stop offset="0" stop-color="#e29bf6"/><stop offset=".5" stop-color="#8b96fd"/><stop offset=".8" stop-color="#c9e8a9"/><stop offset=".84" stop-color="#c5e7ad"/><stop offset=".89" stop-color="#b9e6b9"/><stop offset=".93" stop-color="#a5e4ce"/><stop offset=".98" stop-color="#8ae1eb"/><stop offset="1" stop-color="#78dfff"/></linearGradient><linearGradient id="h" x1="170.52" y1="102.9" x2="225.23" y2="8.14" xlink:href="#g"/><linearGradient id="i" x1="126.41" y1="80.36" x2="138.09" y2="60.14" xlink:href="#g"/><linearGradient id="j" x1="275.48" y1="118.9" x2="324.99" y2="33.14" gradientUnits="userSpaceOnUse"><stop offset="0" stop-color="#dc7df6"/><stop offset=".5" stop-color="#7f8bfd"/><stop offset=".8" stop-color="#cae8a9"/><stop offset=".84" stop-color="#c6e7ad"/><stop offset=".89" stop-color="#bde7b9"/><stop offset=".93" stop-color="#aee6ce"/><stop offset=".98" stop-color="#98e4eb"/><stop offset="1" stop-color="#8ae4ff"/></linearGradient><linearGradient id="k" x1="343.57" y1="111.31" x2="378.65" y2="50.55" gradientUnits="userSpaceOnUse"><stop offset="0" stop-color="#e6aef6"/><stop offset=".5" stop-color="#7c89fd" stop-opacity=".5"/><stop offset="1" stop-color="#bfe894" stop-opacity="0"/></linearGradient><linearGradient id="l" x1="420" y1="111.31" x2="455.07" y2="50.55" gradientUnits="userSpaceOnUse"><stop offset="0" stop-color="#e6aef6"/><stop offset=".5" stop-color="#6a79fd" stop-opacity=".5"/><stop offset="1" stop-color="#a8e868" stop-opacity="0"/></linearGradient><linearGradient id="m" x1="113.8" y1="118.32" x2="150.87" y2="54.13" gradientUnits="userSpaceOnUse"><stop offset="0" stop-color="#4cbdfe"/><stop offset=".39" stop-color="#7986fd"/><stop offset=".73" stop-color="#f99ac8"/><stop offset="1" stop-color="#f8a372"/></linearGradient><linearGradient id="n" x1="324.34" y1="64.55" x2="342.76" y2="46.13" gradientUnits="userSpaceOnUse"><stop offset="0" stop-color="#b6bdfd"/><stop offset="1" stop-color="#fc81b6"/></linearGradient><linearGradient id="o" x1="63.3" y1="127.86" x2="117.25" y2="34.42" gradientUnits="userSpaceOnUse"><stop offset="0" stop-color="#6caaf6"/><stop offset=".5" stop-color="#8490fd"/><stop offset="1" stop-color="#fc6aa9"/></linearGradient><linearGradient id="p" x1="368.4" y1="121.91" x2="405.47" y2="57.71" gradientUnits="userSpaceOnUse"><stop offset="0" stop-color="#47bbfe"/><stop offset=".39" stop-color="#8b96fd"/><stop offset="1" stop-color="#f8ad81" stop-opacity="0"/></linearGradient><linearGradient id="q" x1="445.04" y1="121.91" x2="472.22" y2="74.84" gradientUnits="userSpaceOnUse"><stop offset="0" stop-color="#47bbfe"/><stop offset=".39" stop-color="#8b96fd"/><stop offset=".73" stop-color="#f98ec2" stop-opacity=".5"/><stop offset="1" stop-color="#f8ad81" stop-opacity="0"/></linearGradient><linearGradient id="r" x1="193.1" y1="148.55" x2="250.3" y2="49.47" gradientUnits="userSpaceOnUse"><stop offset="0" stop-color="#9bc4f6"/><stop offset=".5" stop-color="#8693fd"/><stop offset="1" stop-color="#fc79b1"/></linearGradient><linearGradient id="s" x1="124.01" y1="213.43" x2="351.67" y2="-14.23" gradientUnits="userSpaceOnUse"><stop offset="0" stop-color="#685946" stop-opacity=".2"/><stop offset=".49" stop-color="#fcbbd7" stop-opacity="0"/></linearGradient><linearGradient id="u" x1="358.03" y1="134.9" x2="479.3" y2="13.63" gradientUnits="userSpaceOnUse"><stop offset="0" stop-color="#e8fdca"/><stop offset=".33" stop-color="#b1eff5" stop-opacity=".5"/><stop offset=".72" stop-color="#8693fd"/><stop offset="1" stop-color="#da80c7"/></linearGradient></defs><g id="b"><g id="c"><path id="d" class="am" d="M135.7,89.02h-37.18c-1.25,0-2.41,.67-3.03,1.75l-7.77,13.46c-.62,1.08-.62,2.41,0,3.5,.62,1.08,1.78,1.75,3.02,1.75h1.74c.03,.07,.07,.14,.11,.21,.63,1.08,1.78,1.75,3.03,1.75h48.18c1.25,0,2.41-.67,3.03-1.75l25.06-43.41c.62-1.08,.62-2.42,0-3.5-.37-.64-.93-1.14-1.58-1.44-.07-.19-.16-.38-.26-.56-.63-1.08-1.78-1.75-3.03-1.75h-11.18c-1.25,0-2.41,.67-3.03,1.75l-16.36,28.33c-.25-.05-.5-.08-.76-.08Zm379.49-54.25c-.63-1.08-1.78-1.75-3.03-1.75h-15.62c-1.25,0-2.41,.67-3.03,1.75l-.14,.25h-52.09c-1.25,0-2.41,.67-3.03,1.75l-7.89,13.67c-.62,1.08-.62,2.42,0,3.5,.63,1.08,1.78,1.75,3.03,1.75h2.94l-30.07,52.08c-.62,1.08-.62,2.42,0,3.5,.16,.28,.36,.53,.58,.75h-4.68l24.34-42.16c.62-1.08,.62-2.42,0-3.5-.16-.27-.34-.51-.56-.73l2.76-4.78c.6-1.04,.63-2.33,.06-3.39l-9.34-17.59c-.14-.26-.3-.49-.49-.7-.07-.27-.17-.54-.31-.8l-.79-1.5c-.61-1.14-1.8-1.86-3.09-1.86h-50.1c-1.25,0-2.41,.67-3.03,1.75l-7.89,13.67c-.62,1.08-.62,2.42,0,3.5,.63,1.08,1.78,1.75,3.03,1.75h2.94l-30.07,52.08c-.62,1.08-.62,2.42,0,3.5,.16,.28,.36,.53,.58,.75h-42.51l10.42-18.04h17.77c1.25,0,2.41-.67,3.03-1.75l6.04-10.46c.15-.26,.26-.53,.34-.8,.2-.21,.38-.44,.53-.69l.86-1.5c.62-1.08,.62-2.42,0-3.5-.62-1.08-1.78-1.75-3.03-1.75h-13.73l2.91-5.04h17.76c1.25,0,2.41-.67,3.03-1.75l.14-.25h1c1.25,0,2.41-.67,3.03-1.75l5.31-9.21h1.6c1.25,0,2.41-.67,3.03-1.75l1.44-2.5c.62-1.08,.62-2.42,0-3.5-.63-1.08-1.78-1.75-3.03-1.75h-15.79c-1.25,0-2.41,.67-3.03,1.75l-.14,.25h-2.54l3.18-5.5h1.6c1.25,0,2.41-.67,3.03-1.75l1.44-2.5c.62-1.08,.62-2.42,0-3.5-.63-1.08-1.78-1.75-3.03-1.75h-15.79c-1.25,0-2.41,.67-3.03,1.75l-.14,.25h-.98c-1.25,0-2.41,.67-3.03,1.75l-6.49,11.25h-17.96c1.25,0,2.41-.67,3.03-1.75l7.52-13.03c.55-.95,.62-2.1,.19-3.11l-1.27-3c-.15-.35-.34-.66-.58-.93-.03-.36-.12-.72-.26-1.07l-.83-1.97c-.03-.08-.07-.15-.11-.23,1.6-4.53,1.44-8.87-.51-12.25-2.26-3.91-6.65-6.16-12.03-6.16h-.88c-.12,0-.25,0-.3,.01-.51,0-1.03,.03-1.56,.08l-.35,.04c-9.36,.95-19.82,7.76-25.34,16.37h-1.34c-1.25,0-2.41,.67-3.03,1.75l-.14,.25h-2.98c-1.25,0-2.41,.67-3.03,1.75l-7.52,13.03c-.55,.95-.62,2.1-.19,3.11l1.27,3c.15,.35,.34,.66,.58,.93,.03,.36,.12,.72,.26,1.07l.83,1.97s.04,.09,.06,.14h-24.46l17.61-30.5h1.6c1.25,0,2.41-.67,3.03-1.75l1.44-2.5c.62-1.08,.62-2.42,0-3.5-.63-1.08-1.78-1.75-3.03-1.75h-15.79c-1.25,0-2.41,.67-3.03,1.75l-.14,.25h-.98c-1.25,0-2.41,.67-3.03,1.75l-50.81,88c-.62,1.08-.62,2.42,0,3.5,.63,1.08,1.78,1.75,3.03,1.75h12.18c1.25,0,2.41-.67,3.03-1.75l.14-.25h.98c1.25,0,2.41-.67,3.03-1.75l18.93-32.79h17.32l-25.44,44.23c-.59-.44-1.32-.69-2.08-.69H68.25c-.28,0-.55,.03-.82,.1l31.55-54.64h27.98c1.25,0,2.41-.67,3.03-1.75l.14-.25h.98c1.25,0,2.41-.67,3.03-1.75l6.04-10.46c.15-.26,.26-.53,.34-.8,.2-.21,.38-.44,.52-.69l.86-1.5c.63-1.08,.63-2.42,0-3.5-.63-1.08-1.78-1.75-3.03-1.75h-26.94l8.95-15.5h1.6c1.25,0,2.41-.67,3.03-1.75l1.44-2.5c.62-1.08,.62-2.42,0-3.5-.63-1.08-1.78-1.75-3.03-1.75h-15.79c-1.25,0-2.41,.67-3.03,1.75l-.33,.57h-.56c-1.25,0-2.41,.67-3.03,1.75l-12.09,20.94c-.07,0-.15,0-.23,0H36.7c-1.25,0-2.41,.67-3.03,1.75l-7.77,13.46c-.62,1.08-.62,2.41,0,3.5,.62,1.08,1.78,1.75,3.02,1.75h38.65S6.99,95.6,6.99,95.6c-1.29,.85-1.86,2.45-1.42,3.93,.44,1.48,1.81,2.49,3.35,2.49H25.1c.68,0,1.34-.2,1.91-.57l38.07-24.83-24.48,42.39c-.62,1.08-.62,2.42,0,3.5,.63,1.08,1.78,1.75,3.03,1.75h12.18c1.25,0,2.41-.67,3.03-1.75l.14-.25h.56c.62,0,1.22-.17,1.75-.47,.04,.51,.19,1.01,.46,1.47,.62,1.08,1.78,1.75,3.03,1.75h118.64l-9.79,17.02c-.62,1.08-.62,2.42,0,3.5,.63,1.08,1.78,1.75,3.03,1.75h14.92c1.25,0,2.41-.67,3.03-1.76l1.22-2.12s.06-.1,.09-.15l10.54-18.25c.1,0,.21,.01,.31,.01H477.96c1.25,0,2.41-.67,3.03-1.75l.87-1.5c.15-.26,.26-.53,.34-.8,.2-.21,.38-.44,.53-.69l1.73-3c.62-1.08,.62-2.42,0-3.5-.63-1.08-1.78-1.75-3.03-1.75h-2.63l14.46-25.04c.62-1.08,.62-2.42,0-3.5-.4-.69-1.02-1.22-1.74-1.5-.06-.13-.12-.26-.19-.38l-5.42-9.23,10.84-7.66c1.25-.88,1.78-2.46,1.32-3.92-.27-.84-.83-1.53-1.55-1.95l3.09-5.36h1.18c1.25,0,2.41-.67,3.03-1.75l5.31-9.21h1.6c1.25,0,2.41-.67,3.03-1.75l1.44-2.5c.62-1.08,.62-2.42,0-3.5Zm-252.2-12c-.17-.3-.39-.57-.64-.8,4.44-4.36,10.51-7.45,15.32-7.45h.88c.23,0,.44,.01,.59,.02h.12c.1,.02,.2,.03,.36,.05h.09c1.63,.29,1.96,1.01,2.07,1.25,.4,.87,.37,2.7-.87,5.18h-2.16c-1.25,0-2.41,.67-3.03,1.75l-12.7,22c-.58,1-.62,2.22-.13,3.25h-12.49l12.56-21.75c.62-1.08,.62-2.42,0-3.5Zm-49.02,89.25l23.99-41.54h18.49c1.25,0,2.41-.67,3.03-1.75l.14-.25h.93c1.25,0,2.41-.67,3.03-1.75l6.04-10.46c.14-.23,.24-.48,.32-.73,.23-.22,.43-.48,.59-.76l.86-1.5c.58-1,.62-2.22,.13-3.25h5.49l-7.62,13.21c-.62,1.08-.62,2.42,0,3.5,.63,1.08,1.78,1.75,3.03,1.75h17.14l-2.91,5.04h-21.17c-1.25,0-2.41,.67-3.03,1.75l-7.77,13.46c-.62,1.08-.62,2.42,0,3.5,.63,1.08,1.78,1.75,3.03,1.75h17.13l-10.42,18.04h-50.46Zm168.19-51.68h1.6c1.25,0,2.41-.67,3.03-1.75l1.44-2.5c.08-.13,.14-.27,.2-.41h14.23l3.42,6.09-17.8,30.83c-.4-.16-.83-.24-1.28-.24h-23.33l18.48-32.01Zm72.54,13.34c.47,1.45,1.81,2.43,3.33,2.43h7.29l4.38,8.21-4.78,8.27c-.4-.16-.83-.24-1.27-.24h-23.55l18.48-32.01h1.6c1.25,0,2.41-.67,3.03-1.75l1.44-2.5c.08-.13,.14-.27,.2-.41h10.77l-19.64,14.08c-1.24,.89-1.76,2.47-1.29,3.92ZM125.12,61.77l-.14,.25h-18.18c-1.25,0-2.41,.67-3.03,1.75l-7.77,13.46c-.62,1.08-.62,2.41,0,3.5,.62,1.08,1.78,1.75,3.02,1.75h29.5c1.25,0,2.41-.67,3.03-1.75l.14-.25h.86c1.25,0,2.41-.67,3.03-1.75l5.31-9.21h1.6c1.25,0,2.41-.67,3.03-1.75l1.44-2.5c.62-1.08,.62-2.42,0-3.5-.63-1.08-1.78-1.75-3.03-1.75h-15.79c-1.25,0-2.41,.67-3.03,1.75Z"/><g id="e"><g><g id="f"><polygon class="x" points="122.49 16.02 118.87 16.02 102.41 44.52 90.41 44.52 108.31 13.52 123.93 13.52 122.49 16.02"/><polygon class="z" points="164.66 99.52 176.66 99.52 226.02 14.02 229.64 14.02 231.09 11.52 215.47 11.52 164.66 99.52"/><polygon class="aa" points="138.71 63.52 128.33 63.52 120.56 76.97 132.56 76.97 138.88 66.02 142.5 66.02 143.94 63.52 140.33 63.52 138.71 63.52"/><polygon class="w" points="315.23 36.52 269.62 115.52 281.62 115.52 325.79 39.02 329.41 39.02 330.85 36.52 315.23 36.52"/><polygon class="af" points="385.2 54.34 367.72 54.34 337.01 107.52 350.88 107.52 380.14 56.84 383.76 56.84 385.2 54.34"/><polygon class="ah" points="461.63 54.34 444.14 54.34 413.44 107.52 427.31 107.52 456.57 56.84 460.19 56.84 461.63 54.34"/><polygon class="y" points="156.87 64.52 168.87 64.52 143.8 107.93 95.8 107.93 101.84 97.47 137.84 97.47 156.87 64.52"/><polygon class="ag" points="322.76 62.97 334.76 62.97 341.08 52.02 344.7 52.02 346.15 49.52 330.53 49.52 322.76 62.97"/><polygon class="ad" points="126.96 53.97 133 43.51 91 43.51 47.55 118.77 59.55 118.77 96.96 53.97 126.96 53.97"/><polygon class="ae" points="392.44 101.06 356.44 101.06 350.4 111.52 398.4 111.52 423.47 68.11 411.47 68.11 392.44 101.06"/><polygon class="ab" points="469.08 101.06 433.08 101.06 427.04 111.52 475.04 111.52 490.22 85.23 478.22 85.23 469.08 101.06"/><polygon points="496.54 36.52 488.78 49.97 500.78 49.97 507.1 39.02 510.72 39.02 512.16 36.52 496.54 36.52"/><polygon class="ac" points="229.98 56.51 180.9 141.51 192.9 141.51 235.94 66.97 256.45 66.97 262.49 56.51 229.98 56.51"/></g><path class="aj" d="M280.41,44.52l9.25-16.03,1.27,3-7.52,13.03h-3Zm-34.61-18h-3l-7.52,13.03,1.27,3,9.25-16.03Zm-8.41,18.03l.83,1.97h9.03l12.7-22h-4.17c4.73-7.51,14.35-13.5,21.89-13.5h.88c3.09,0,5.31,1,6.4,2.91,1.37,2.37,.88,5.93-1.33,9.79l-.55,.8h-4.12l-12.7,22h11l11.56-20.03-.83-1.97h-1.4c2.42-4.56,2.8-8.94,.97-12.09-1.64-2.84-4.84-4.41-9-4.41h-.88c-8.75,0-19.94,7.07-24.98,15.79l-.38,.71h-3.36l-11.56,20.03ZM103.37,95.51v-1.5h31.47l.86-1.5h-37l-7.77,13.46h51l4.71-8.17h0l20.37-35.29h-11l-19.05,32.99h-33.6Zm27.74-43.54l6.04-10.46h-35.58l14.82-25.67h-12l-14.82,25.67H41.15l.86-1.5h45.99l.86-1.5H36.88l-7.77,13.46h50.26L9.1,98.52H25.1l50.61-33.01-31.9,55.25h12L95.53,51.97h35.58Zm-26.1-11.96h33l.86-1.5h-33l-.86,1.5Zm30.41,27l.86-1.5h-29.31l-7.77,13.46h29.31l6.04-10.46h-23.31l.86-1.5h23.31Zm125.13-2.04l6.04-10.46h-63.95l.86-1.5h64l.86-1.5h-67l21.94-38h-12l-21.94,38h0l-7.77,13.46h0l-21.1,36.54h12l21.1-36.54h28.57l-45.5,78.81h12l45.5-78.81h26.39Zm57.15-11.96h19.78l.86-1.5h-19.78l-.86,1.5Zm5.07,25.5l.86-1.5h-19.79l-.86,1.5h19.79ZM66.69,118.52h120l1.73-3H68.42l-1.73,3Zm119.14,1.5H65.83l-.87,1.5h120l.87-1.5Zm92.8-4.5l14.46-25.04h22.79l4.71-8.17,1.33-2.3h-22.79l8.68-15.04h22.78l6.04-10.46h-22.78l9.23-15.99h-12l-9.23,15.99h-17.2l.86-1.5h14.99l.86-1.5h-20.99l-7.77,13.46h23.2l-8.68,15.04h-17.19l.86-1.5h14.99l.86-1.5h-20.99l-3.05,5.29-4.71,8.17h23.19l-14.46,25.04h-56.2l-1.73,3H479.69l1.73-3h-202.8Zm-71.66,6H477.96l.87-1.5H207.83l-.87,1.5Z"/><path class="ai" d="M280.41,44.52l9.25-16.03,1.27,3-7.52,13.03h-3Zm-34.61-18h-3l-7.52,13.03,1.27,3,9.25-16.03Zm-8.41,18.03l.83,1.97h9.03l12.7-22h-4.17c4.73-7.51,14.35-13.5,21.89-13.5h.88c3.09,0,5.31,1,6.4,2.91,1.37,2.37,.88,5.93-1.33,9.79l-.55,.8h-4.12l-12.7,22h11l11.56-20.03-.83-1.97h-1.4c2.42-4.56,2.8-8.94,.97-12.09-1.64-2.84-4.84-4.41-9-4.41h-.88c-8.75,0-19.94,7.07-24.98,15.79l-.38,.71h-3.36l-11.56,20.03ZM103.37,95.51v-1.5h31.47l.86-1.5h-37l-7.77,13.46h51l4.71-8.17h0l20.37-35.29h-11l-19.05,32.99h-33.6Zm27.74-43.54l6.04-10.46h-35.58l14.82-25.67h-12l-14.82,25.67H41.15l.86-1.5h45.99l.86-1.5H36.88l-7.77,13.46h50.26L9.1,98.52H25.1l50.61-33.01-31.9,55.25h12L95.53,51.97h35.58Zm-26.1-11.96h33l.86-1.5h-33l-.86,1.5Zm30.41,27l.86-1.5h-29.31l-7.77,13.46h29.31l6.04-10.46h-23.31l.86-1.5h23.31Zm125.13-2.04l6.04-10.46h-63.95l.86-1.5h64l.86-1.5h-67l21.94-38h-12l-21.94,38h0l-7.77,13.46h0l-21.1,36.54h12l21.1-36.54h28.57l-45.5,78.81h12l45.5-78.81h26.39Zm57.15-11.96h19.78l.86-1.5h-19.78l-.86,1.5Zm5.07,25.5l.86-1.5h-19.79l-.86,1.5h19.79Zm-136.95,41.5H65.83l-.87,1.5h120l.87-1.5Zm-119.14-1.5h120l1.73-3H68.42l-1.73,3Zm211.93-3l14.46-25.04h22.79l4.71-8.17,1.33-2.3h-22.79l8.68-15.04h22.78l6.04-10.46h-22.78l9.23-15.99h-12l-9.23,15.99h-17.2l.86-1.5h14.99l.86-1.5h-20.99l-7.77,13.46h23.2l-8.68,15.04h-17.19l.86-1.5h14.99l.86-1.5h-20.99l-3.05,5.29-4.71,8.17h23.19l-14.46,25.04h-56.2l-1.73,3H479.69l1.73-3h-202.8Zm-71.66,6H477.96l.87-1.5H207.83l-.87,1.5Z"/></g></g><g id="t"><path class="ak" d="M425.67,59.1l-29.11,50.42h-63.91l30.76-53.27h14l-22.87,39.61h32.47l-.86,1.48h-32.49l-.86,1.5h35.93l1.72-2.98,.27-.46,19.4-33.6-5.39-9.61h-47.97l7.89-13.67h50.1l.79,1.5h-45.76l-.86,1.5h47.41l9.34,17.59Zm77.66-19.09l.86-1.5h-62.91l-7.89,13.67h48.91l-2.98,5.16-21.28,15.26h9.39l6.28,11.78-6.35,11.01h0l-1.99,3.44h-35.93l.86-1.5h32.49l.86-1.48h-32.48l22.87-39.61h-14l-30.76,53.27h63.91l15.1-26.15-6.32-10.76h-6.56l15.3-10.76,11.74-20.33h-57.44l.86-1.5h57.44Z"/><path class="v" d="M425.67,59.1l-29.11,50.42h-63.91l30.76-53.27h14l-22.87,39.61h32.47l-.86,1.48h-32.49l-.86,1.5h35.93l1.72-2.98,.27-.46,19.4-33.6-5.39-9.61h-47.97l7.89-13.67h50.1l.79,1.5h-45.76l-.86,1.5h47.41l9.34,17.59Zm77.66-19.09l.86-1.5h-62.91l-7.89,13.67h48.91l-2.98,5.16-21.28,15.26h9.39l6.28,11.78-6.35,11.01h0l-1.99,3.44h-35.93l.86-1.5h32.49l.86-1.48h-32.48l22.87-39.61h-14l-30.76,53.27h63.91l15.1-26.15-6.32-10.76h-6.56l15.3-10.76,11.74-20.33h-57.44l.86-1.5h57.44Z"/></g></g><g><g><path class="al" d="M323.59,141.07c-3.31,0-5.36-2.53-5.36-5.72s2.13-5.69,5.36-5.69,5.36,2.47,5.36,5.69-2.06,5.72-5.36,5.72Zm0-9.33c-2,0-3.18,1.77-3.18,3.52s.83,3.72,3.18,3.72,3.18-2.06,3.18-3.72c0-1.75-1.18-3.52-3.18-3.52Z"/><path class="al" d="M333.15,139.78c0,.7-.57,1.29-1.28,1.29s-1.28-.59-1.28-1.29,.58-1.27,1.28-1.27,1.28,.56,1.28,1.27Z"/><path class="al" d="M335.29,129.66h1.52l5.71,7.57h.03v-7.29h2.11v11.05h-1.52l-5.71-7.58h-.03v7.36h-2.11v-11.12Z"/><path class="al" d="M349.37,139.78c0,.7-.57,1.29-1.28,1.29s-1.28-.59-1.28-1.29,.57-1.27,1.28-1.27,1.28,.56,1.28,1.27Z"/><path class="al" d="M361.09,135.02v.27c0,3.06-1.57,5.78-4.93,5.78-3.16,0-5.16-2.67-5.16-5.66s2.06-5.75,5.29-5.75c1.84,0,3.45,.93,4.28,2.59l-1.87,1.01c-.43-.98-1.35-1.72-2.47-1.72-2.04,0-3.05,2.08-3.05,3.88s1.02,3.79,3.06,3.79c1.32,0,2.43-1.15,2.47-2.46h-2.3v-1.72h4.67Z"/><path class="al" d="M365.3,139.78c0,.7-.57,1.29-1.28,1.29s-1.28-.59-1.28-1.29,.58-1.27,1.28-1.27,1.28,.56,1.28,1.27Z"/><path class="al" d="M369.56,131.78v2.39h3.36v1.84h-3.36v2.93h3.49v1.84h-5.61v-10.84h5.61v1.84h-3.49Z"/><path class="al" d="M377.62,139.78c0,.7-.57,1.29-1.28,1.29s-1.28-.59-1.28-1.29,.57-1.27,1.28-1.27,1.28,.56,1.28,1.27Z"/><path class="al" d="M385.26,129.94h2.6l-4.11,5,4.34,5.84h-2.72l-3.46-4.87h-.03v4.87h-2.11v-10.84h2.11v4.57h.03l3.35-4.57Z"/><path class="al" d="M391.84,139.78c0,.7-.57,1.29-1.28,1.29s-1.28-.59-1.28-1.29,.58-1.27,1.28-1.27,1.28,.56,1.28,1.27Z"/><path class="al" d="M396.1,140.78h-2.11v-10.84h2.11v10.84Z"/><path class="al" d="M402.94,129.94h3.02c3.13,0,5.23,2.34,5.23,5.43s-2.16,5.4-5.25,5.4h-3v-10.84Zm2.11,9h.34c2.6,0,3.61-1.44,3.61-3.58,0-2.36-1.21-3.58-3.61-3.58h-.34v7.16Z"/><path class="al" d="M415.02,138.5l-.89,2.29h-2.23l4.23-11.12h1.64l4.11,11.12h-2.26l-.83-2.29h-3.77Zm1.83-5.66h-.03l-1.19,3.94h2.57l-1.35-3.94Z"/><path class="al" d="M425.48,140.78h-2.11v-9h-2.18v-1.84h6.48v1.84h-2.18v9Z"/><path class="al" d="M430.08,138.5l-.89,2.29h-2.23l4.23-11.12h1.64l4.11,11.12h-2.26l-.83-2.29h-3.77Zm1.83-5.66h-.03l-1.19,3.94h2.57l-1.35-3.94Z"/><path class="al" d="M438.16,129.94h2.63c2.01,0,3.25,.79,3.25,2.95,0,.78-.27,1.67-.95,2.1,1.28,.23,1.85,1.52,1.85,2.72,0,2.13-1.49,3.08-3.46,3.08h-3.32v-10.84Zm2.11,4.51h.26c1.03,0,1.54-.3,1.54-1.42s-.63-1.39-1.52-1.39h-.27v2.82Zm0,4.63h.45c1.14,0,2.11-.14,2.11-1.55s-1.15-1.47-2.21-1.47h-.34v3.02Z"/><path class="al" d="M448.9,138.5l-.89,2.29h-2.23l4.23-11.12h1.64l4.11,11.12h-2.26l-.83-2.29h-3.77Zm1.83-5.66h-.03l-1.19,3.94h2.57l-1.35-3.94Z"/><path class="al" d="M462.08,132.33c-.4-.55-.92-.89-1.62-.89s-1.32,.52-1.32,1.22c0,1.83,4.3,1.06,4.3,4.7,0,2.17-1.35,3.71-3.56,3.71-1.5,0-2.59-.86-3.33-2.11l1.37-1.34c.29,.83,1.05,1.58,1.95,1.58s1.39-.73,1.39-1.57c0-1.12-1.04-1.44-1.88-1.77-1.39-.58-2.41-1.28-2.41-2.96,0-1.8,1.34-3.25,3.16-3.25,.96,0,2.3,.47,2.96,1.21l-.99,1.47Z"/><path class="al" d="M467.23,131.78v2.39h3.36v1.84h-3.36v2.93h3.49v1.84h-5.61v-10.84h5.61v1.84h-3.49Z"/></g><g><path class="ak" d="M323.59,141.07c-3.31,0-5.36-2.53-5.36-5.72s2.13-5.69,5.36-5.69,5.36,2.47,5.36,5.69-2.06,5.72-5.36,5.72Zm0-9.33c-2,0-3.18,1.77-3.18,3.52s.83,3.72,3.18,3.72,3.18-2.06,3.18-3.72c0-1.75-1.18-3.52-3.18-3.52Z"/><path class="ak" d="M333.15,139.78c0,.7-.57,1.29-1.28,1.29s-1.28-.59-1.28-1.29,.58-1.27,1.28-1.27,1.28,.56,1.28,1.27Z"/><path class="ak" d="M335.29,129.66h1.52l5.71,7.57h.03v-7.29h2.11v11.05h-1.52l-5.71-7.58h-.03v7.36h-2.11v-11.12Z"/><path class="ak" d="M349.37,139.78c0,.7-.57,1.29-1.28,1.29s-1.28-.59-1.28-1.29,.57-1.27,1.28-1.27,1.28,.56,1.28,1.27Z"/><path class="ak" d="M361.09,135.02v.27c0,3.06-1.57,5.78-4.93,5.78-3.16,0-5.16-2.67-5.16-5.66s2.06-5.75,5.29-5.75c1.84,0,3.45,.93,4.28,2.59l-1.87,1.01c-.43-.98-1.35-1.72-2.47-1.72-2.04,0-3.05,2.08-3.05,3.88s1.02,3.79,3.06,3.79c1.32,0,2.43-1.15,2.47-2.46h-2.3v-1.72h4.67Z"/><path class="ak" d="M365.3,139.78c0,.7-.57,1.29-1.28,1.29s-1.28-.59-1.28-1.29,.58-1.27,1.28-1.27,1.28,.56,1.28,1.27Z"/><path class="ak" d="M369.56,131.78v2.39h3.36v1.84h-3.36v2.93h3.49v1.84h-5.61v-10.84h5.61v1.84h-3.49Z"/><path class="ak" d="M377.62,139.78c0,.7-.57,1.29-1.28,1.29s-1.28-.59-1.28-1.29,.57-1.27,1.28-1.27,1.28,.56,1.28,1.27Z"/><path class="ak" d="M385.26,129.94h2.6l-4.11,5,4.34,5.84h-2.72l-3.46-4.87h-.03v4.87h-2.11v-10.84h2.11v4.57h.03l3.35-4.57Z"/><path class="ak" d="M391.84,139.78c0,.7-.57,1.29-1.28,1.29s-1.28-.59-1.28-1.29,.58-1.27,1.28-1.27,1.28,.56,1.28,1.27Z"/><path class="ak" d="M396.1,140.78h-2.11v-10.84h2.11v10.84Z"/><path class="ak" d="M402.94,129.94h3.02c3.13,0,5.23,2.34,5.23,5.43s-2.16,5.4-5.25,5.4h-3v-10.84Zm2.11,9h.34c2.6,0,3.61-1.44,3.61-3.58,0-2.36-1.21-3.58-3.61-3.58h-.34v7.16Z"/><path class="ak" d="M415.02,138.5l-.89,2.29h-2.23l4.23-11.12h1.64l4.11,11.12h-2.26l-.83-2.29h-3.77Zm1.83-5.66h-.03l-1.19,3.94h2.57l-1.35-3.94Z"/><path class="ak" d="M425.48,140.78h-2.11v-9h-2.18v-1.84h6.48v1.84h-2.18v9Z"/><path class="ak" d="M430.08,138.5l-.89,2.29h-2.23l4.23-11.12h1.64l4.11,11.12h-2.26l-.83-2.29h-3.77Zm1.83-5.66h-.03l-1.19,3.94h2.57l-1.35-3.94Z"/><path class="ak" d="M438.16,129.94h2.63c2.01,0,3.25,.79,3.25,2.95,0,.78-.27,1.67-.95,2.1,1.28,.23,1.85,1.52,1.85,2.72,0,2.13-1.49,3.08-3.46,3.08h-3.32v-10.84Zm2.11,4.51h.26c1.03,0,1.54-.3,1.54-1.42s-.63-1.39-1.52-1.39h-.27v2.82Zm0,4.63h.45c1.14,0,2.11-.14,2.11-1.55s-1.15-1.47-2.21-1.47h-.34v3.02Z"/><path class="ak" d="M448.9,138.5l-.89,2.29h-2.23l4.23-11.12h1.64l4.11,11.12h-2.26l-.83-2.29h-3.77Zm1.83-5.66h-.03l-1.19,3.94h2.57l-1.35-3.94Z"/><path class="ak" d="M462.08,132.33c-.4-.55-.92-.89-1.62-.89s-1.32,.52-1.32,1.22c0,1.83,4.3,1.06,4.3,4.7,0,2.17-1.35,3.71-3.56,3.71-1.5,0-2.59-.86-3.33-2.11l1.37-1.34c.29,.83,1.05,1.58,1.95,1.58s1.39-.73,1.39-1.57c0-1.12-1.04-1.44-1.88-1.77-1.39-.58-2.41-1.28-2.41-2.96,0-1.8,1.34-3.25,3.16-3.25,.96,0,2.3,.47,2.96,1.21l-.99,1.47Z"/><path class="ak" d="M467.23,131.78v2.39h3.36v1.84h-3.36v2.93h3.49v1.84h-5.61v-10.84h5.61v1.84h-3.49Z"/></g></g></g></svg>