<svg xmlns="http://www.w3.org/2000/svg" viewBox="0 0 20 20"><defs><style>.c{fill:#fff}</style></defs><circle cx="10" cy="10" r="10" fill="#e12a5b"/><circle cx="10" cy="10" r="8.5" fill="none" stroke="#fff" stroke-width=".75"/><path class="c" d="M11 8.72c-1.52-.66-2.29-1.35-2.3-2.64A2.43 2.43 0 0111 3.59a7.18 7.18 0 00-1-.09A6.5 6.5 0 003.5 10a6.09 6.09 0 006.28 6.32 3.63 3.63 0 004-3.86 3.34 3.34 0 00-.63-2.06A5.08 5.08 0 0011 8.72zm-1.91 6.61a4.11 4.11 0 01-4.16-3.77 4.94 4.94 0 011.44-4.34 3.28 3.28 0 00.14 3 2.92 2.92 0 002.58 1.1c1.73.07 2.35.92 2.35 2s-.81 1.99-2.35 2.01z"/><path class="c" d="M13.45 5.74a1.4 1.4 0 00-.3 1.69c.42 1 2.17 1.19 2.28 2.72A1.55 1.55 0 0114.31 12a2.92 2.92 0 00-.11-1.56 3.27 3.27 0 00-1.36-1.24 2.13 2.13 0 01-1.12-1.73c0-1.2 1.51-1.73 1.73-1.73z"/></svg>