<svg xmlns="http://www.w3.org/2000/svg" viewBox="0 0 28.6 20">
  <g>
    <g>
      <path fill="red" d="M27.97 3.123A3.578 3.578 0 0 0 25.445.597C23.216 0 14.283 0 14.283 0S5.348 0 3.12.597A3.582 3.582 0 0 0 .595 3.123C0 5.35 0 10 0 10s0 4.65.597 6.877a3.578 3.578 0 0 0 2.526 2.526C5.35 20 14.285 20 14.285 20s8.935 0 11.162-.597a3.577 3.577 0 0 0 2.526-2.526C28.57 14.65 28.57 10 28.57 10s-.002-4.65-.6-6.877Z"/>
      <path fill="#fff" d="M11.428 14.285 18.848 10l-7.42-4.285v8.57Z"/>
    </g>
  </g>
</svg>
