<svg xmlns="http://www.w3.org/2000/svg" viewBox="0 0 680 320"><defs><clipPath id="a"><path class="a" d="M392.76 164.58c-35.68 2.54-47.53 15.65-67.31 49.92 12.19-22.16 16.8-34.41 13.78-41.74-1.76-4.28-4.92-5.27-17.88-4.93C181.73 171.57 126.7 189.77 66 291.87c-5.3 8.91-14.86 24.88-14.86 24.88s8.6-15.84 13.2-24.83c49.08-96.05 47-127-46.09-129.36C13.35 162.44 3 162 3 162s10.78-.25 15.9-.46c98.8-4 131.23-30.24 199.26-136.16C222.53 18.59 231.72 4 231.72 4s-8.34 14.63-12 21.4C162.77 130.26 181.17 150 321.85 157.11c14.46.73 23.6-.6 30.12-5.07 10.93-7.49 20.24-20.39 33.67-41.8-22.59 39.14-21.62 48.6 16.72 49.81 27.91.76 79.14 1.95 79.14 1.95s-74.13 1.81-88.74 2.58z"/></clipPath><clipPath id="c"><path class="a" d="M326.13 85.87l9.25-16 1.27 3-7.52 13zm-34.61-18h-3L281 80.9l1.26 3zm-8.41 18l.83 2h9l12.7-22h-4.14c4.73-7.5 14.35-13.5 21.89-13.5h.89c3.09 0 5.3 1 6.4 2.91 1.37 2.37.88 5.93-1.34 9.79l-.55.8h-4.12l-12.7 22h11l11.57-20-.84-2h-1.4c2.42-4.56 2.8-8.93 1-12.09-1.64-2.84-4.84-4.41-9-4.41h-.89c-8.75 0-19.94 7.07-25 15.8l-.38.7h-3.36zm-134 51v-1.5h31.47l.86-1.5h-37l-7.76 13.46h51l4.71-8.17 20.37-35.29h-11l-19 33zm27.74-43.54l6-10.46h-35.57L162.1 57.2h-12l-14.82 25.67H86.86l.87-1.5h46l.86-1.5h-52l-7.77 13.46h50.26l-70.27 46.54h16l50.62-33-31.91 55.25h12l39.72-68.79zm-26.09-12h33l.86-1.5h-33zm30.41 27l.86-1.5h-29.34l-7.77 13.46h29.31l6-10.46H157l.86-1.5zm125.13-2l6-10.46h-63.94l.86-1.5h64l.87-1.5h-67l21.93-38H257l-21.93 38-7.77 13.46-21.1 36.54h12l21.1-36.54h28.56l-45.5 78.81h12l45.5-78.81zm57.15-12h19.75l.87-1.5h-19.78zm5.07 25.5l.86-1.5h-19.82l-.86 1.5zm-137 41.5h-120l-.87 1.5h120zm-119.14-1.5h120l1.73-3h-120zm211.93-3l14.46-25h22.8l4.71-8.17 1.33-2.29h-22.8l8.69-15h22.8l6-10.46h-22.74l9.23-16h-12l-9.23 16h-17.2l.86-1.5h15l.87-1.5h-21l-7.77 13.46h23.2l-8.69 15h-17.19l.87-1.5h15l.87-1.5h-21l-3.05 5.29-4.72 8.17h23.19l-14.46 25h-56.2l-1.73 3h271l1.73-3zm-71.66 6h271l.87-1.5h-271z"/></clipPath><clipPath id="d"><path class="a" d="M471.38 100.46l-29.11 50.41h-63.91l30.76-53.27h14l-22.87 39.61h32.47l-.86 1.48h-32.49l-.86 1.5h35.93l1.72-3 .27-.46 19.39-33.6-5.39-9.61h-48l7.89-13.67h50.1l.79 1.5h-45.72l-.87 1.5H462zM549 81.37l.86-1.5H487l-7.9 13.67H528l-3 5.16-21.25 15.3h9.39l6.28 11.78-6.36 11-2 3.44h-35.9l.86-1.5h32.49l.86-1.48h-32.48l22.87-39.64h-14L455 150.87h63.91L534 124.72 527.69 114h-6.55l15.29-10.76 11.74-20.33h-57.44l.86-1.5z"/></clipPath><linearGradient id="e" x1="552.05" y1="167.37" x2="655.54" y2="107.62" gradientUnits="userSpaceOnUse"><stop offset=".5" stop-color="#fd2a25"/><stop offset=".58" stop-color="#fd3322"/><stop offset=".72" stop-color="#fe4d18"/><stop offset=".9" stop-color="#ff7609"/><stop offset=".99" stop-color="#ff8e00"/></linearGradient><filter id="b"><feGaussianBlur stdDeviation="1"/></filter><style>.a{fill:none}.n{fill:#ff6153}.d,.e,.f,.g,.h{fill:#ffc45e}.d{opacity:.4}.e{opacity:.8}.f{opacity:.6}.g{opacity:.5}.h,.n{opacity:.2}.ai{fill:#fff}.t{fill:#141528}.w{fill:#2a4097}.x{fill:#1d2c5a}.y{fill:#1d2b59}.aa{fill:#1e2a6b}.ab{fill:#2f4a9d}.ac{fill:#294197}.ai{opacity:.23}.ak{fill:#27aae2}.al{fill:#2f4c9e}.am{fill:#3657a5}.an{fill:#3355a3}.ap{fill:#2d479b}.av{fill:#3251ff}.aw{fill:#405ffd}.ay{fill:#5a37ff}.ba{fill:#443aff}.bd{fill:#2e8efe}</style></defs><g clip-path="url(#a)"><path fill="#ff6153" d="M-5.56 4h565.33v312.75H-5.56z"/><path class="d" d="M127.48 175.12l-17.58 30.45h35.16l-17.58-30.45zM109.9 144.66l-17.58 30.46h35.16l-17.58-30.46z"/><path class="e" d="M215.38 144.66l-17.58 30.46h35.17l-17.59-30.46z"/><path class="f" d="M145.06 144.66l-17.58 30.46h35.16l-17.58-30.46z"/><path class="g" d="M162.64 175.12l-17.58 30.45h35.16l-17.58-30.45z"/><path class="h" d="M162.64 175.12l17.58-30.46h-35.16l17.58 30.46z"/><path class="f" d="M145.06 205.57l17.58-30.45h-35.16l17.58 30.45z"/><path class="h" d="M127.48 175.12l17.58-30.46H109.9l17.58 30.46z"/><path class="f" d="M197.8 114.21l17.58-30.45h-35.16l17.58 30.45z"/><path class="h" d="M180.22 144.66l17.58-30.45h-35.16l17.58 30.45z"/><path class="d" d="M145.06 144.66l17.58-30.45h-35.16l17.58 30.45z"/><path class="f" d="M162.64 114.21l17.58-30.45h-35.16l17.58 30.45zM180.22 83.76l17.58-30.45h-35.16l17.58 30.45zM268.13 175.12l17.58-30.46h-35.16l17.58 30.46z"/><path class="f" d="M232.97 175.12l17.58-30.46h-35.17l17.59 30.46z"/><path class="h" d="M127.48 236.12l17.58-30.45H109.9l17.58 30.45zM109.9 205.57l17.58-30.45H92.32l17.58 30.45zM92.32 175.12l17.58-30.46H74.74l17.58 30.46z"/><path class="g" d="M180.22 144.66l-17.58 30.46h35.16l-17.58-30.46z"/><path class="f" d="M285.71 144.66l-17.58 30.46h35.16l-17.58-30.46z"/><path class="g" d="M250.55 144.66l-17.58 30.46h35.16l-17.58-30.46z"/><path fill="#fdee9f" opacity=".6" d="M338.45 175.12l17.58-30.46h-35.16l17.58 30.46z"/><path class="e" d="M303.29 175.12l17.58-30.46h-35.16l17.58 30.46z"/><path fill="#fddf29" opacity=".8" d="M356.03 144.66l-17.58 30.46h35.16l-17.58-30.46z"/><path class="f" d="M373.61 114.21l-17.58 30.45h35.16l-17.58-30.45z"/><path class="g" d="M320.87 144.66l-17.58 30.46h35.16l-17.58-30.46z"/><path opacity=".9" fill="#ffc45e" d="M356.03 205.57l17.58-30.45h-35.16l17.58 30.45z"/><path class="e" d="M338.45 175.12l-17.58 30.45h35.16l-17.58-30.45z"/><path opacity=".1" fill="#ffc45e" d="M408.77 175.12l17.58-30.46h-35.16l17.58 30.46z"/><path opacity=".05" fill="#ffc45e" d="M426.35 144.66l-17.58 30.46h35.16l-17.58-30.46z"/><path class="e" d="M180.22 83.76l-17.58 30.45h35.16l-17.58-30.45z"/><path class="g" d="M197.8 114.21l-17.58 30.45h35.16l-17.58-30.45z"/><path class="e" d="M197.8 53.31l-17.58 30.45h35.16L197.8 53.31z"/><path class="g" d="M215.38 83.76l-17.58 30.45h35.17l-17.59-30.45z"/><path class="d" d="M215.38 83.76l17.59-30.45H197.8l17.58 30.45z"/><path class="h" d="M215.38 22.86L197.8 53.31h35.17l-17.59-30.45z"/><path class="n" d="M373.61 144.65l-17.58 30.45h35.16l-17.58-30.45zM338.45 144.65l-17.58 30.45h35.16l-17.58-30.45z"/><path class="f" d="M373.61 175.12l17.58-30.46h-35.16l17.58 30.46zM391.19 144.66l-17.58 30.46h35.16l-17.58-30.46z"/></g><g filter="url(#b)"><path d="M172.71 106.87h-20.2l-7.77 13.46h29.32l1.15-2h2.88l6.33-11H188l1.44-2.5h-15.58zm-1.73 3h-14.2l.87-1.5h14.19zm-28.49-14.54l-37.41 64.79h-2.58l-1.15 2h-12l31.9-55.25-50.61 33h-16l70.27-46.54H74.65l7.77-13.46h52l-.86 1.5h-46l-.86 1.5h48.42l14.81-25.67h2.58l1.34-2.33h15.62l-1.47 2.5h-3.61l-14.72 25.5h33l-6 10.46h-3l-1.16 2zm139 13l-44.19 76.81h-14.92l45.33-78.81h-25.57l-19.94 34.54h-3l-1.16 2H206c5.46-9.44 23.73-41.09 28.87-50l21.94-38h3l1.15-2h15.62l-1.44 2.5h-3.62l-21.65 37.5h64l-.86 1.5h-64l-.87 1.5h63.95l-6 10.46h-2.95l-1.15 2zM326 85.87l9.26-16 1.26 3-7.52 13zm-43.86-2l-1.27-3 7.52-13h3zm.84 2l11.57-20h3.36l.37-.7c5.28-9 16.67-16.14 25.87-15.8 9.62 0 12.61 8.29 8 16.5h1.4l.83 2-11.56 20h-11l12.7-22h4.12l.55-.8c4.09-7 2.21-13.18-5.95-12.7-7.54 0-17.17 6-21.89 13.5h4.17l-12.7 22h-9zm-100.42 51l19.05-33h11l-1.16 2h3l-25.06 43.42h-48l1.13-2h-6l7.77-13.46h37l-.87 1.5h-31.51v1.5zm-31.09-57h33l-.87 1.5h-33zm198 38.5h19.79l-.87 1.5h-19.87zM114 156.87h120l-1.73 3h-120zm116.54 6h-120l.86-1.5h120zm96.66-6H527l-1.73 3h-271l1.73-3h56.2l14.46-25h-23.23l7.77-13.46h21l-.86 1.5h-15l-.86 1.5h17.19l8.68-15h-23.2l7.77-13.46h21l-.86 1.5h-15l-.87 1.5h17.2l9.24-16h3l1.15-2h15.62l-1.4 2.42h-3.62l-8.95 15.5h10.8l.87-1.5h-10.8l.86-1.5h10.8l1.15-2h15.62l-1.44 2.5h-3.62l-6.32 11h-3l-1.16 2h-19.85l-8.68 15h19.79l-6 10.46h-19.83zm-73.8 4.5h271l-.86 1.5h-271zm197.03-67.83h-48l7.89-13.67h50.1l.79 1.5h-45.72l-.87 1.5H462l9.34 17.59-5.2 9h3l-25.06 43.41h-48l1.15-2h-18.87l30.76-53.27h3.21l1.1-1.9h17.49l-1.45 2.5h-3.62l-22.52 39h29.39l-.86 1.48h-29.39l-.86 1.5h32.83l21.38-37zm91.83-15.67l-1.16 2H487l-7.9 13.67H528l-3 5.16-21.25 15.3h9.39l6.28 11.78-6.36 11-2 3.44H478l.86-1.5h29.61l.86-1.48h-29.57l22.52-39h3.62l1.44-2.5h-17.48l-1.1 1.9h-3L455 150.87h18.91l-1.16 2h48l15.18-26.28h-3l1.08-1.87-6.32-10.72h-2.48l15.22-10.76h-4l6.86-11.87h3.2l6.32-11h3.62l1.44-2.5zm-2.89 5h-48.64l.86-1.5h48.65z" fill="#fff"/><path d="M172.71 106.87h-20.2l-7.77 13.46h29.32l1.15-2h2.88l6.33-11H188l1.44-2.5h-15.58zm-1.73 3h-14.2l.87-1.5h14.19zm-28.49-14.54l-37.41 64.79h-2.58l-1.15 2h-12l31.9-55.25-50.61 33h-16l70.27-46.54H74.65l7.77-13.46h52l-.86 1.5h-46l-.86 1.5h48.42l14.81-25.67h2.58l1.34-2.33h15.62l-1.47 2.5h-3.61l-14.72 25.5h33l-6 10.46h-3l-1.16 2zm139 13l-44.19 76.81h-14.92l45.33-78.81h-25.57l-19.94 34.54h-3l-1.16 2H206c5.46-9.44 23.73-41.09 28.87-50h0l21.94-38h3l1.15-2h15.62l-1.44 2.5h-3.62l-21.65 37.5h64l-.86 1.5h-64l-.87 1.5h63.95l-6 10.46h-2.95l-1.15 2zM326 85.87l9.26-16 1.26 3-7.52 13zm-43.86-2l-1.27-3 7.52-13h3zm.84 2l11.57-20h3.36l.37-.7c5.28-9 16.67-16.14 25.87-15.8 9.62 0 12.61 8.29 8 16.5h1.4l.83 2-11.56 20h-11l12.7-22h4.12l.55-.8c4.09-7 2.21-13.18-5.95-12.7-7.54 0-17.17 6-21.89 13.5h4.17l-12.7 22h-9zm-100.42 51l19.05-33h11l-1.16 2h3l-25.06 43.42h-48l1.13-2h-6l7.77-13.46h37l-.87 1.5h-31.51v1.5zm-31.09-57h33l-.87 1.5h-33zm198 38.5h19.79l-.87 1.5h-19.87zM114 156.87h120l-1.73 3h-120zm116.54 6h-120l.86-1.5h120zm96.66-6H527l-1.73 3h-271l1.73-3h56.2l14.46-25h-23.23l7.77-13.46h21l-.86 1.5h-15l-.86 1.5h17.19l8.68-15h-23.2l7.77-13.46h21l-.86 1.5h-15l-.87 1.5h17.2l9.24-16h3l1.15-2h15.62l-1.4 2.42h-3.62l-8.95 15.5h10.8l.87-1.5h-10.8l.86-1.5h10.8l1.15-2h15.62l-1.44 2.5h-3.62l-6.32 11h-3l-1.16 2h-19.85l-8.68 15h19.79l-6 10.46h-19.83zm-73.8 4.5h271l-.86 1.5h-271zm197.03-67.83h-48l7.89-13.67h50.1l.79 1.5h-45.72l-.87 1.5H462l9.34 17.59-5.2 9h3l-25.06 43.41h-48l1.15-2h-18.87l30.76-53.27h3.21l1.1-1.9h17.49l-1.45 2.5h-3.62l-22.52 39h29.39l-.86 1.48h-29.39l-.86 1.5h32.83l21.38-37zm91.83-15.67l-1.16 2H487l-7.9 13.67H528l-3 5.16-21.25 15.3h9.39l6.28 11.78-6.36 11h0l-2 3.44H478l.86-1.5h29.61l.86-1.48h-29.57l22.52-39h3.62l1.44-2.5h-17.48l-1.1 1.9h-3L455 150.87h18.91l-1.16 2h48l15.18-26.28h-3l1.08-1.87-6.32-10.72h-2.48l15.22-10.76h-4l6.86-11.87h3.2l6.32-11h3.62l1.44-2.5zm-2.89 5h-48.64l.86-1.5h48.65z" stroke="#fff" stroke-miterlimit="10" stroke-width="4" fill="none"/></g><path d="M168.2 57.37h-3.62l-16.45 28.5h-12l17.89-31h15.62zm42.17 83.5h12l49.37-85.5h3.61l1.45-2.5h-15.62zm-26-36H174l-7.77 13.46h12l6.32-11h3.62l1.45-2.5h-5.24zm176.63-27l-45.62 79h12l44.17-76.5h3.62l1.44-2.5zm70 17.83h-17.57l-30.7 53.17h13.86l29.26-50.67h3.62zm76.42 0h-17.56l-30.71 53.17H473l29.28-50.67h3.62zm33.09 7.5h-17.8l-15 10.76h17.46z" fill="#93caff"/><path d="M202.58 105.87h12l-25.06 43.42h-48l6-10.47h36zm22.72 79.27h12l44.35-76.81h20.51l6-10.46h-32.47zm143.17-80.81h12l6.33-11h3.62l1.44-2.5h-15.62zm-195.8-9l6-10.46h-42l-43.41 75.25h12l37.41-64.79zm265.49 47.08h-36l-6 10.46h48l25.06-43.41h-12zm76.64 0h-36l-6 10.46h48l15.18-26.28h-12zm27.46-64.54l-7.77 13.46h12l6.32-11h3.62l1.44-2.5z" fill="#ff7271"/><path class="t" d="M326.13 85.87l9.25-16 1.27 3-7.52 13zm-34.61-18h-3L281 80.9l1.26 3zm-8.41 18l.83 2h9l12.7-22h-4.14c4.73-7.5 14.35-13.5 21.89-13.5h.89c3.09 0 5.3 1 6.4 2.91 1.37 2.37.88 5.93-1.34 9.79l-.55.8h-4.12l-12.7 22h11l11.57-20-.84-2h-1.4c2.42-4.56 2.8-8.93 1-12.09-1.64-2.84-4.84-4.41-9-4.41h-.89c-8.75 0-19.94 7.07-25 15.8l-.38.7h-3.36zm-134 51v-1.5h31.47l.86-1.5h-37l-7.76 13.46h51l4.71-8.17 20.37-35.29h-11l-19 33zm27.74-43.54l6-10.46h-35.57L162.1 57.2h-12l-14.82 25.67H86.86l.87-1.5h46l.86-1.5h-52l-7.77 13.46h50.26l-70.27 46.54h16l50.62-33-31.91 55.25h12l39.72-68.79zm-26.09-12h33l.86-1.5h-33zm30.41 27l.86-1.5h-29.34l-7.77 13.46h29.31l6-10.46H157l.86-1.5zm125.13-2l6-10.46h-63.94l.86-1.5h64l.87-1.5h-67l21.93-38H257l-21.93 38-7.77 13.46-21.1 36.54h12l21.1-36.54h28.56l-45.5 78.81h12l45.5-78.81zm57.15-12h19.75l.87-1.5h-19.78zm5.07 25.5l.86-1.5h-19.82l-.86 1.5zm-256.09 40h120l1.73-3h-120zm119.14 1.5h-120l-.87 1.5h120zm92.79-4.5l14.46-25h22.8l4.71-8.17 1.33-2.29h-22.8l8.69-15h22.75l6-10.46h-22.74l9.23-16h-12l-9.23 16h-17.2l.86-1.5h15l.87-1.5h-21l-7.77 13.46h23.2l-8.69 15h-17.19l.87-1.5h15l.87-1.5h-21l-3.05 5.29-4.72 8.17h23.19l-14.46 25h-56.2l-1.73 3h271l1.73-3zm-71.66 6h271l.87-1.5h-271z"/><g clip-path="url(#c)"><path fill="#2a4298" d="M235.8 69.5l-13.47 23.32h26.93L235.8 69.5z"/><path class="w" d="M222.33 92.82l-13.46 23.32h26.93l-13.47-23.32z"/><path class="x" d="M195.41 92.82l-13.47 23.32h26.93l-13.46-23.32z"/><path class="y" d="M208.87 116.14l-13.46 23.32h26.92l-13.46-23.32z"/><path fill="#121425" d="M262.72 116.14l-13.46 23.32h26.93l-13.47-23.32z"/><path class="aa" d="M195.41 139.46l13.46-23.32h-26.93l13.47 23.32zM222.33 139.46l13.47-23.32h-26.93l13.46 23.32z"/><path class="t" d="M181.94 116.14l13.47-23.32h-26.93l13.46 23.32z"/><path class="w" d="M208.87 116.14l13.46-23.32h-26.92l13.46 23.32z"/><path class="ab" d="M249.26 92.82l13.46-23.32H235.8l13.46 23.32z"/><path class="ac" d="M276.19 92.82l13.46-23.32h-26.93l13.47 23.32z"/><path fill="#1f2b64" d="M303.11 92.82l13.47-23.32h-26.93l13.46 23.32z"/><path fill="#3253a2" d="M262.72 69.5l13.47-23.31h-26.93l13.46 23.31z"/><path class="ac" d="M289.65 69.5l13.46-23.31h-26.92l13.46 23.31z"/><path fill="#063b98" d="M316.58 69.5l13.46-23.31h-26.93l13.47 23.31z"/><path class="ac" d="M276.19 46.19L262.72 69.5h26.93l-13.46-23.31z"/><path fill="#3758a5" d="M249.26 46.19L235.8 69.5h26.92l-13.46-23.31z"/><path class="ac" d="M289.65 69.5l-13.46 23.32h26.92L289.65 69.5z"/><path fill="#183d98" d="M303.11 46.19L289.65 69.5h26.93l-13.47-23.31z"/><path class="ai" d="M383.89 46.19L370.43 69.5h26.93l-13.47-23.31z"/><path fill="#3479bd" d="M330.04 46.19L316.58 69.5h26.92l-13.46-23.31z"/><path class="ak" d="M370.43 69.5l-13.46 23.32h26.92L370.43 69.5z"/><path class="al" d="M343.5 69.5l-13.46 23.32h26.93L343.5 69.5zM316.58 69.5l-13.47 23.32h26.93L316.58 69.5z"/><path class="am" d="M356.97 92.82l13.46-23.32H343.5l13.47 23.32z"/><path class="ak" d="M383.89 92.82l13.47-23.32h-26.93l13.46 23.32z"/><path class="ai" d="M370.43 69.5l13.46-23.31h-26.92l13.46 23.31z"/><path class="an" d="M330.04 92.82L343.5 69.5h-26.92l13.46 23.32z"/><path fill="#2d4a9c" d="M356.97 92.82l-13.47 23.32h26.93l-13.46-23.32z"/><path class="ap" d="M330.04 92.82l-13.46 23.32h26.92l-13.46-23.32z"/><path class="y" d="M343.5 116.14l-13.46 23.32h26.93l-13.47-23.32z"/><path fill="#13162a" d="M316.58 116.14l-13.47 23.32h26.93l-13.46-23.32z"/><path class="ac" d="M356.97 139.46l13.46-23.32H343.5l13.47 23.32z"/><path class="al" d="M343.5 116.14l13.47-23.32h-26.93l13.46 23.32z"/><path fill="#336ab2" d="M370.43 116.14l13.46-23.32h-26.92l13.46 23.32z"/><path class="aa" d="M330.04 139.46l13.46-23.32h-26.92l13.46 23.32z"/><path class="y" d="M276.19 139.46l13.46-23.32h-26.93l13.47 23.32z"/><path fill="#0b0e24" d="M303.11 139.46l13.47-23.32h-26.93l13.46 23.32z"/><path class="x" d="M235.8 116.14l13.46-23.32h-26.93l13.47 23.32z"/><path class="an" d="M262.72 116.14l13.47-23.32h-26.93l13.46 23.32z"/><path class="y" d="M289.65 116.14l13.46-23.32h-26.92l13.46 23.32z"/><path class="aa" d="M316.58 116.14l13.46-23.32h-26.93l13.47 23.32z"/><path class="ap" d="M249.26 92.82l-13.46 23.32h26.92l-13.46-23.32z"/><path fill="#2b4499" d="M276.19 92.82l-13.47 23.32h26.93l-13.46-23.32z"/><path class="aa" d="M303.11 92.82l-13.46 23.32h26.93l-13.47-23.32z"/></g><g clip-path="url(#d)"><path class="t" d="M378.36 79.87H549.9v71H378.36z"/><path class="av" d="M447.38 70.3l-13.46 23.32h26.93L447.38 70.3z"/><path class="w" d="M433.92 93.62l-13.47 23.32h26.93l-13.46-23.32z"/><path class="aw" d="M406.99 93.62l-13.46 23.32h26.92l-13.46-23.32z"/><path class="y" d="M420.45 116.94l-13.46 23.32h26.93l-13.47-23.32z"/><path class="t" d="M474.31 116.94l-13.46 23.32h26.92l-13.46-23.32z"/><path class="ac" d="M501.24 116.94l-13.47 23.32h26.93l-13.46-23.32z"/><path class="al" d="M406.99 140.26l13.46-23.32h-26.92l13.46 23.32z"/><path class="aa" d="M433.92 140.26l13.46-23.32h-26.93l13.47 23.32z"/><path class="y" d="M447.38 116.94l-13.46 23.32h26.93l-13.47-23.32z"/><path class="al" d="M460.85 140.26l13.46-23.32h-26.93l13.47 23.32z"/><path class="t" d="M393.53 116.94l13.46-23.32h-26.92l13.46 23.32z"/><path fill="#46a7ff" d="M420.45 116.94l13.47-23.32h-26.93l13.46 23.32z"/><path class="ay" d="M460.85 93.62l13.46-23.32h-26.93l13.47 23.32z"/><path class="aw" d="M487.77 93.62l13.47-23.32h-26.93l13.46 23.32z"/><path fill="#3354ff" d="M514.7 93.62l13.46-23.32h-26.92l13.46 23.32z"/><path class="ba" d="M474.31 70.3l-13.46 23.32h26.92L474.31 70.3z"/><path class="av" d="M393.53 70.3l-13.46 23.32h26.92L393.53 70.3z"/><path class="ab" d="M406.99 93.62l13.46-23.32h-26.92l13.46 23.32z"/><path class="aw" d="M433.92 93.62l13.46-23.32h-26.93l13.47 23.32z"/><path class="ba" d="M420.45 70.3l-13.46 23.32h26.93L420.45 70.3z"/><path class="aw" d="M501.24 70.3l-13.47 23.32h26.93L501.24 70.3z"/><path class="al" d="M555.09 70.3l-13.47 23.32h26.93L555.09 70.3z"/><path fill="#2f78fe" d="M528.16 70.3L514.7 93.62h26.92L528.16 70.3z"/><path class="am" d="M568.55 93.62l13.46-23.32h-26.92l13.46 23.32z"/><path class="ay" d="M541.62 93.62l13.47-23.32h-26.93l13.46 23.32z"/><path class="aa" d="M433.92 140.26l-13.47 23.32h26.93l-13.46-23.32z"/><path class="aa" d="M447.38 163.58l13.47-23.32h-26.93l13.46 23.32z"/><path class="t" d="M474.31 163.58l13.46-23.32h-26.92l13.46 23.32zM501.24 163.58l13.46-23.32h-26.93l13.47 23.32z"/><path class="t" d="M460.85 140.26l-13.47 23.32h26.93l-13.46-23.32zM380.07 140.26l-13.47 23.32h26.93l-13.46-23.32z"/><path class="x" d="M393.43 116.94l-13.46 23.32h26.92l-13.46-23.32z"/><path class="t" d="M393.53 163.58l13.46-23.32h-26.92l13.46 23.32z"/><path class="aa" d="M420.45 163.58l13.47-23.32h-26.93l13.46 23.32z"/><path class="t" d="M406.99 140.26l-13.46 23.32h26.92l-13.46-23.32zM487.77 140.26l-13.46 23.32h26.93l-13.47-23.32z"/><path class="aa" d="M514.7 140.26l-13.46 23.32h26.92l-13.46-23.32z"/><path class="aa" d="M528.16 163.58l13.46-23.32H514.7l13.46 23.32z"/><path class="ap" d="M541.62 93.62l-13.46 23.32h26.93l-13.47-23.32z"/><path class="y" d="M528.16 116.94l-13.46 23.32h26.92l-13.46-23.32z"/><path class="al" d="M555.09 116.94l13.46-23.32h-26.93l13.47 23.32z"/><path class="aa" d="M541.62 140.26l13.47-23.32h-26.93l13.46 23.32z"/><path class="al" d="M487.77 140.26l13.47-23.32h-26.93l13.46 23.32zM514.7 140.26l13.46-23.32h-26.92l13.46 23.32z"/><path fill="#3378fe" d="M447.38 116.94l13.47-23.32h-26.93l13.46 23.32z"/><path class="bd" d="M474.31 116.94l13.46-23.32h-26.92l13.46 23.32z"/><path class="aw" d="M501.24 116.94l13.46-23.32h-26.93l13.47 23.32z"/><path class="bd" d="M528.16 116.94l13.46-23.32H514.7l13.46 23.32z"/><path fill="#5cafff" d="M460.85 93.62l-13.47 23.32h26.93l-13.46-23.32z"/><path class="aw" d="M487.77 93.62l-13.46 23.32h26.93l-13.47-23.32zM514.7 93.62l-13.46 23.32h26.92L514.7 93.62z"/></g><path class="t" d="M565.17 101.51H569v2h-3.8zM579 96.06l2.41 6.09 2.43-6.09h2.82l-4.21 10h-2.07l-4.2-10zM594.67 98.26h-3.09v1.67h2.92v2.2h-2.92v1.73h3.09v2.2H589v-10h5.69zM606.17 106.06h-3.23l-2.48-3.85v3.85h-2.6v-10h4a3.8 3.8 0 011.45.25 2.67 2.67 0 011 .67 2.84 2.84 0 01.61 1 3.35 3.35 0 01.21 1.19 3 3 0 01-.55 1.85 2.81 2.81 0 01-1.63 1zm-5.71-5.53h.54a1.91 1.91 0 001.18-.32 1.23 1.23 0 000-1.83 1.91 1.91 0 00-1.18-.32h-.49zM614.07 98.62a3.15 3.15 0 00-.84-.51 2.32 2.32 0 00-.83-.17 1.33 1.33 0 00-.82.24.76.76 0 00-.32.63.63.63 0 00.16.43 1.33 1.33 0 00.42.3 3 3 0 00.58.22l.65.2a4 4 0 011.86 1.13 2.81 2.81 0 01.59 1.85 3.62 3.62 0 01-.26 1.39 2.8 2.8 0 01-.76 1.07 3.33 3.33 0 01-1.21.69 5.24 5.24 0 01-1.64.24 6 6 0 01-3.51-1.12l1.11-2.1a4.45 4.45 0 001.15.77 2.75 2.75 0 001.13.25 1.34 1.34 0 001-.29.9.9 0 00.31-.66.93.93 0 00-.08-.39.85.85 0 00-.27-.31 1.78 1.78 0 00-.48-.25l-.72-.27c-.34-.11-.67-.22-1-.35a3.21 3.21 0 01-.86-.51 2.33 2.33 0 01-.61-.8 2.79 2.79 0 01-.23-1.23 3.59 3.59 0 01.24-1.34 3.15 3.15 0 01.69-1 3.08 3.08 0 011.09-.67 4.1 4.1 0 011.44-.24 6.2 6.2 0 011.55.21 7.31 7.31 0 011.55.6zM621.07 96.06v10h-2.6v-10zM624 101.06a5.36 5.36 0 01.41-2.08 5.15 5.15 0 012.88-2.79 6.27 6.27 0 014.46 0A5.16 5.16 0 01634.7 99a5.36 5.36 0 01.41 2.08 5.15 5.15 0 01-3.32 4.87 6.42 6.42 0 01-4.46 0 5.17 5.17 0 01-3.29-4.87zm2.72 0a2.67 2.67 0 00.22 1.1 2.73 2.73 0 00.61.87 2.84 2.84 0 00.9.58 2.88 2.88 0 002.16 0 2.84 2.84 0 00.9-.58 2.45 2.45 0 00.61-.87 2.67 2.67 0 00.23-1.1 2.64 2.64 0 00-.23-1.1 2.58 2.58 0 00-.61-.88 2.91 2.91 0 00-4 0 2.89 2.89 0 00-.61.88 2.64 2.64 0 00-.14 1.1zM638.08 106.06v-10h2.59l4.8 6.11v-6.11h2.59v10h-2.59l-4.8-6.11v6.11zM656.26 101.51h3.8v2h-3.8z"/><path d="M582.36 119.78c-1.21-1.88-4-2.82-7.11-2.82h-13.83l-19.23 33.32h8.24l7.36-12.75h2.38l.37 12.75h8l-.4-13.5a28.26 28.26 0 008.39-3.57 17.49 17.49 0 005.38-6c1.7-2.94 1.68-5.43.45-7.43zm-8.3 7.53a7.33 7.33 0 01-2.66 2.7 7.75 7.75 0 01-3.7 1.1h-6.21l4.34-7.5H572a2.52 2.52 0 012.33 1 2.57 2.57 0 01-.27 2.7zm31.26-3l-3.26 5.64h15.44l-4.19 7.25h-15.44l-3.27 5.68h16.25l-4.3 7.44h-24.39q.42-.65.69-1.11l17.95-31.1a11.74 11.74 0 00.54-1.11h24.45l-4.22 7.31zm58.36-2.5c-1.33-2.78-3.88-4.81-9.82-4.81h-12.31a9.64 9.64 0 01-.54 1.11l-18 31.1q-.28.51-.69 1.11H636a27.14 27.14 0 0015.24-4.81A33.94 33.94 0 00662 133.62c2.44-4.62 3.08-8.94 1.68-11.85zm-10.07 11.85a22 22 0 01-5.32 6.09c-2.9 2.17-5.47 3.42-9 3.42h-4.7l11-19h5.09c2.42 0 4 1.18 4.63 3s-.18 3.83-1.7 6.45zm-75.79 15.52a2.59 2.59 0 11-2.59-2.59 2.59 2.59 0 012.59 2.55zm39.61 0a2.59 2.59 0 11-2.59-2.59 2.59 2.59 0 012.59 2.55zm41.54 0a2.6 2.6 0 11-2.6-2.59 2.59 2.59 0 012.63 2.55z" fill="url(#e)"/></svg>