<?xml version="1.0" encoding="UTF-8"?><svg id="a" xmlns="http://www.w3.org/2000/svg" xmlns:xlink="http://www.w3.org/1999/xlink" viewBox="0 0 520 155"><defs><style>.q{fill:url(#h);}.r{fill:url(#i);}.s{fill:#fff;}.t{fill:#97ebff;}.u{fill:#b3fbff;}.v{fill:#c0f3ff;}.w{fill:#405ffd;}.x{fill:#88dbff;}.y{fill:#47b0ff;}.z{fill:#36caff;}.aa{fill:#3aa5ff;}.ab{fill:#48b3ff;}.ac{fill:#4bb8ff;}.ad{fill:#44adff;}.ae{fill:#76d1ff;}.af{fill:#4bbaff;}.ag{fill:#76d8ff;}.ah{filter:url(#d);opacity:.2;}.ai{fill:none;stroke:#000;stroke-miterlimit:10;stroke-width:4px;}.aj{clip-path:url(#o);}</style><filter id="d"><feGaussianBlur stdDeviation="1"/></filter><linearGradient id="h" x1="90.41" y1="63.52" x2="494.72" y2="63.52" gradientUnits="userSpaceOnUse"><stop offset="0" stop-color="#fecbf3"/><stop offset=".5" stop-color="#b6bdfd" stop-opacity=".5"/><stop offset="1" stop-color="#f0ffb8"/></linearGradient><linearGradient id="i" x1="47.55" y1="90.15" x2="512.16" y2="90.15" xlink:href="#h"/><clipPath id="o"><path class="w" d="M425.67,59.1l-29.11,50.42h-63.91l30.76-53.27h14l-22.87,39.61h32.47l-.86,1.48h-32.49l-.86,1.5h35.93l1.72-2.98,.27-.46,19.4-33.6-5.39-9.61h-47.97l7.89-13.67h50.1l.79,1.5h-45.76l-.86,1.5h47.41l9.34,17.59Zm77.66-19.09l.86-1.5h-62.91l-7.89,13.67h48.91l-2.98,5.16-21.28,15.26h9.39l6.28,11.78-6.35,11.01h0l-1.99,3.44h-35.93l.86-1.5h32.49l.86-1.48h-32.48l22.87-39.61h-14l-30.76,53.27h63.91l15.1-26.15-6.32-10.76h-6.56l15.3-10.76,11.74-20.33h-57.44l.86-1.5h57.44Z"/></clipPath></defs><g id="b"><g id="c"><g id="e" class="ah"><path d="M128.15,63.52l-1.15,2h-20.2l-7.77,13.46h29.31l1.15-2h2.88l6.33-10.96h3.62l1.44-2.5h-15.62Zm-2.88,4.99h-14.2l.86-1.5h14.2l-.86,1.5Zm-28.49-14.54L59.37,118.77h-2.58l-1.15,2h-12l31.9-55.26L24.92,98.52H8.92L79.19,51.97H28.93l7.77-13.46h51.99l-.86,1.5H41.84l-.86,1.5h48.42l14.82-25.67h2.58l1.34-2.32h15.62l-1.44,2.5h-3.62l-14.72,25.49h33l-6.04,10.46h-3l-1.15,2h-30Zm138.98,13l-44.17,76.81h-14.92l45.32-78.81h-25.57l-19.94,34.54h-3l-1.15,2h-12c5.56-9.63,23.62-40.92,28.87-50h0l21.94-38h3l1.15-2h15.62l-1.44,2.5h-3.62l-21.65,37.5h64l-.86,1.5h-64l-.86,1.5h25.57s12,0,12,0h0s26.39,0,26.39,0l-6.04,10.46h-2.95l-1.15,2h-20.51Zm44.48-22.46l9.25-16.03,1.27,3-7.52,13.03h-3Zm-43.86-1.97l-1.27-3,7.52-13.03h3l-9.25,16.03Zm.85,2l11.56-20.03h3.36c6.5-16.25,45.08-26.91,34.27,0h1.4l.83,1.97-11.56,20.03h-11l12.7-22h4.12c11.88-22.41-21.59-12.83-27.29,0h4.17l-12.7,22h-9.03l-.83-1.97Zm-100.42,50.96l19.05-32.99h11l-1.15,2h3l-25.06,43.41h-48l1.13-1.96h-6l7.77-13.46h37l-.86,1.5h-31.47v1.5h33.6Zm-31.1-56.99h33l-.86,1.5h-33l.86-1.5Zm197.97,38.5h19.79l-.86,1.5h-19.79l.86-1.5ZM68.25,115.52h120l-1.73,3H66.52l1.73-3Zm116.54,6H64.78l.87-1.5h120l-.87,1.5Zm96.66-6h199.8l-1.73,3H208.52l1.73-3h56.2l14.46-25.04h-23.19c1.86-3.22,5.95-10.3,7.77-13.46h20.99l-.86,1.5h-14.99l-.86,1.5h17.19l8.68-15.04h-23.2l7.77-13.46h20.99l-.86,1.5h-14.99l-.86,1.5h17.2l9.23-15.99h3l1.15-2h15.62l-1.44,2.5h-3.62l-8.94,15.49h10.8l.86-1.5h-10.8l.86-1.5h10.8l1.15-2h15.62l-1.44,2.5h-3.62l-6.33,10.96h-3.02l-1.15,2h-19.78l-8.68,15.04h19.79c-.87,1.51-5.08,8.8-6.04,10.46h-19.79l-14.46,25.04Zm-73.8,4.5H478.65l-.87,1.5H206.78l.87-1.5ZM404.72,52.18h-47.97l7.89-13.67h50.1l.79,1.5h-45.76l-.86,1.5h47.41l9.34,17.59-5.2,9h3l-25.06,43.41h-48l1.15-2h-18.91l30.76-53.27h3.21l1.1-1.91h17.49l-1.44,2.5h-3.62l-22.53,39.01h29.39l-.86,1.48h-29.39l-.86,1.5h32.83c.47-.82,20.17-34.93,21.38-37.04l-5.39-9.61Zm91.83-15.67l-1.15,2h-54.11l-7.89,13.67h48.91l-2.98,5.16-21.28,15.26h9.39l6.28,11.78-6.35,11.01h0l-1.99,3.44h-33.05l.86-1.5h29.61l.86-1.48h-29.61l22.53-39.01h3.62l1.44-2.5h-17.49l-1.1,1.91h-3l-30.76,53.27h18.91l-1.15,2h48l15.18-26.29h-3l1.08-1.86-6.32-10.76h-2.48l15.23-10.76h-4s6.85-11.87,6.85-11.87h3.2l6.33-10.96h3.62l1.44-2.5h-15.62Zm-2.88,4.99h-48.64l.86-1.5h48.64l-.86,1.5Z"/><path class="ai" d="M128.15,63.52l-1.15,2h-20.2l-7.77,13.46h29.31l1.15-2h2.88l6.33-10.96h3.62l1.44-2.5h-15.62Zm-2.88,4.99h-14.2l.86-1.5h14.2l-.86,1.5Zm-28.49-14.54L59.37,118.77h-2.58l-1.15,2h-12l31.9-55.26L24.92,98.52H8.92L79.19,51.97H28.93l7.77-13.46h51.99l-.86,1.5H41.84l-.86,1.5h48.42l14.82-25.67h2.58l1.34-2.32h15.62l-1.44,2.5h-3.62l-14.72,25.49h33l-6.04,10.46h-3l-1.15,2h-30Zm138.98,13l-44.17,76.81h-14.92l45.32-78.81h-25.57l-19.94,34.54h-3l-1.15,2h-12c5.56-9.63,23.62-40.92,28.87-50h0l21.94-38h3l1.15-2h15.62l-1.44,2.5h-3.62l-21.65,37.5h64l-.86,1.5h-64l-.86,1.5h25.57s12,0,12,0h0s26.39,0,26.39,0l-6.04,10.46h-2.95l-1.15,2h-20.51Zm44.48-22.46l9.25-16.03,1.27,3-7.52,13.03h-3Zm-43.86-1.97l-1.27-3,7.52-13.03h3l-9.25,16.03Zm.85,2l11.56-20.03h3.36c6.5-16.25,45.08-26.91,34.27,0h1.4l.83,1.97-11.56,20.03h-11l12.7-22h4.12c11.88-22.41-21.59-12.83-27.29,0h4.17l-12.7,22h-9.03l-.83-1.97Zm-100.42,50.96l19.05-32.99h11l-1.15,2h3l-25.06,43.41h-48l1.13-1.96h-6l7.77-13.46h37l-.86,1.5h-31.47v1.5h33.6Zm-31.1-56.99h33l-.86,1.5h-33l.86-1.5Zm197.97,38.5h19.79l-.86,1.5h-19.79l.86-1.5ZM68.25,115.52h120l-1.73,3H66.52l1.73-3Zm116.54,6H64.78l.87-1.5h120l-.87,1.5Zm96.66-6h199.8l-1.73,3H208.52l1.73-3h56.2l14.46-25.04h-23.19c1.86-3.22,5.95-10.3,7.77-13.46h20.99l-.86,1.5h-14.99l-.86,1.5h17.19l8.68-15.04h-23.2l7.77-13.46h20.99l-.86,1.5h-14.99l-.86,1.5h17.2l9.23-15.99h3l1.15-2h15.62l-1.44,2.5h-3.62l-8.94,15.49h10.8l.86-1.5h-10.8l.86-1.5h10.8l1.15-2h15.62l-1.44,2.5h-3.62l-6.33,10.96h-3.02l-1.15,2h-19.78l-8.68,15.04h19.79c-.87,1.51-5.08,8.8-6.04,10.46h-19.79l-14.46,25.04Zm-73.8,4.5H478.65l-.87,1.5H206.78l.87-1.5ZM404.72,52.18h-47.97l7.89-13.67h50.1l.79,1.5h-45.76l-.86,1.5h47.41l9.34,17.59-5.2,9h3l-25.06,43.41h-48l1.15-2h-18.91l30.76-53.27h3.21l1.1-1.91h17.49l-1.44,2.5h-3.62l-22.53,39.01h29.39l-.86,1.48h-29.39l-.86,1.5h32.83c.47-.82,20.17-34.93,21.38-37.04l-5.39-9.61Zm91.83-15.67l-1.15,2h-54.11l-7.89,13.67h48.91l-2.98,5.16-21.28,15.26h9.39l6.28,11.78-6.35,11.01h0l-1.99,3.44h-33.05l.86-1.5h29.61l.86-1.48h-29.61l22.53-39.01h3.62l1.44-2.5h-17.49l-1.1,1.91h-3l-30.76,53.27h18.91l-1.15,2h48l15.18-26.29h-3l1.08-1.86-6.32-10.76h-2.48l15.23-10.76h-4s6.85-11.87,6.85-11.87h3.2l6.33-10.96h3.62l1.44-2.5h-15.62Zm-2.88,4.99h-48.64l.86-1.5h48.64l-.86,1.5Z"/></g><g id="f"><g><g id="g"><path class="q" d="M122.49,16.02h-3.62l-16.45,28.5h-12l17.9-31h15.62l-1.44,2.5Zm108.6-4.5h-15.62l-50.81,88h12L226.02,14.02h3.62l1.44-2.5Zm-87.14,52h-15.62l-7.77,13.46h12l6.33-10.96h3.62l1.44-2.5Zm186.91-27h-15.62l-45.61,79h12l44.17-76.5h3.62l1.44-2.5Zm54.35,17.82h-17.49l-30.7,53.18h13.87l29.26-50.68h3.62l1.44-2.5Zm76.43,0h-17.49l-30.7,53.18h13.87l29.26-50.68h3.62l1.44-2.5Zm33.09,7.51h-17.72s-14.97,10.76-14.97,10.76h17.46l15.23-10.76Z"/><path class="r" d="M126.96,53.97h-30L59.55,118.77h-12L91,43.51h42l-6.04,10.46Zm135.53,2.54h-32.51l-50.39,87.27h12l44.34-76.81h20.51l6.04-10.46ZM95.8,107.93h48l25.06-43.41h-12l-19.02,32.95h-36l-6.04,10.46Zm250.34-58.41h-15.62l-7.77,13.46h12l6.33-10.96h3.62l1.44-2.5Zm4.26,62h48l25.06-43.41h-12l-19.02,32.95h-36l-6.04,10.46Zm76.64,0h48l15.18-26.29h-12l-9.14,15.82h-36l-6.04,10.46Zm85.12-75h-15.62l-7.77,13.46h12l6.33-10.96h3.62l1.44-2.5Z"/></g><g id="j"><polygon class="s" points="130.93 105.97 156.02 62.52 167.02 62.52 141.93 105.97 130.93 105.97"/><polygon class="s" points="160.51 101.52 211.31 13.52 223.31 13.52 172.51 101.52 160.51 101.52"/><polygon class="s" points="266.62 115.52 311.08 38.52 323.08 38.52 278.62 115.52 266.62 115.52"/><polygon class="s" points="9.1 98.52 86.11 47.51 75.71 65.51 25.1 98.52 9.1 98.52"/><path class="s" d="M287.99,24.52l.83,1.97-11.56,20.03h-11l12.7-22h9.03Zm1.68,3.97l-9.25,16.03h3l7.52-13.03-1.27-3Z"/><path class="s" d="M238.23,46.52l-.83-1.97,11.56-20.03h11l-12.7,22h-9.03Zm-1.68-3.97l9.25-16.03h-3l-7.52,13.03,1.27,3Z"/><path class="s" d="M285.09,26.89l-2.47-1.7,1.01-1.47c2.21-3.86,2.7-7.43,1.33-9.79-1.1-1.9-3.31-2.91-6.4-2.91h-.88c-7.79,0-17.82,6.39-22.36,14.25l-.65,1.22-2.65-1.41,.67-1.27c5.04-8.73,16.24-15.79,24.98-15.79h.88c4.17,0,7.36,1.56,9,4.41,1.92,3.33,1.42,8.01-1.37,12.84l-.06,.1-1.05,1.52Z"/><polygon class="s" points="136.65 97.81 137.97 95.51 103.37 95.51 103.37 94.02 134.84 94.02 135.7 92.52 98.7 92.52 90.93 105.97 141.93 105.97 146.65 97.81 136.65 97.81"/><g><polygon class="s" points="41.15 41.51 42.01 40.02 88.01 40.02 88.87 38.52 36.88 38.52 29.11 51.97 131.11 51.97 137.15 41.51 41.15 41.51"/><polygon class="s" points="105.88 38.52 105.01 40.02 138.01 40.02 138.88 38.52 105.88 38.52"/></g><polygon class="s" points="111.25 68.51 112.11 67.02 135.43 67.02 136.29 65.52 106.98 65.52 99.21 78.97 128.52 78.97 134.56 68.51 111.25 68.51"/><polygon class="s" points="202.64 54.51 203.51 53.02 267.51 53.02 268.37 51.52 189.37 51.52 181.6 64.97 260.56 64.97 266.6 54.51 202.64 54.51"/><g><polygon class="s" points="284.64 54.51 285.51 53.02 300.5 53.02 301.37 51.52 280.37 51.52 272.6 64.97 330.59 64.97 336.63 54.51 284.64 54.51"/><polygon class="s" points="318.57 51.52 317.71 53.02 337.49 53.02 338.36 51.52 318.57 51.52"/></g><g><polygon class="s" points="269.93 80.01 270.8 78.52 285.79 78.52 286.65 77.02 265.66 77.02 262.61 82.31 257.89 90.47 294.89 90.47 315.87 90.47 320.59 82.31 321.91 80.01 269.93 80.01"/><polygon class="s" points="303.85 77.02 302.99 78.52 322.78 78.52 323.64 77.02 303.85 77.02"/></g><path id="k" class="s" d="M188.42,115.52l-1.73,3H66.69l1.73-3h120Zm-123.46,6h120l.87-1.5H65.83l-.87,1.5Z"/><g id="l"><polygon class="s" points="210.42 115.52 208.69 118.52 479.69 118.52 481.42 115.52 210.42 115.52"/><polygon class="s" points="206.96 121.52 477.96 121.52 478.83 120.01 207.83 120.01 206.96 121.52"/></g><polygon class="s" points="188.67 143.78 240.21 54.51 228.21 54.51 176.67 143.78 188.67 143.78"/><polygon class="s" points="43.81 120.77 104.39 15.84 116.39 15.84 55.81 120.77 43.81 120.77"/></g></g></g><g id="m"><g id="n"><path class="w" d="M425.67,59.1l-29.11,50.42h-63.91l30.76-53.27h14l-22.87,39.61h32.47l-.86,1.48h-32.49l-.86,1.5h35.93l1.72-2.98,.27-.46,19.4-33.6-5.39-9.61h-47.97l7.89-13.67h50.1l.79,1.5h-45.76l-.86,1.5h47.41l9.34,17.59Zm77.66-19.09l.86-1.5h-62.91l-7.89,13.67h48.91l-2.98,5.16-21.28,15.26h9.39l6.28,11.78-6.35,11.01h0l-1.99,3.44h-35.93l.86-1.5h32.49l.86-1.48h-32.48l22.87-39.61h-14l-30.76,53.27h63.91l15.1-26.15-6.32-10.76h-6.56l15.3-10.76,11.74-20.33h-57.44l.86-1.5h57.44Z"/><g class="aj"><rect id="p" class="w" x="332.65" y="38.52" width="171.54" height="71"/><g><polygon class="ab" points="401.67 28.95 388.21 52.27 415.13 52.27 401.67 28.95"/><polygon class="ag" points="388.21 52.27 374.74 75.59 401.67 75.59 388.21 52.27"/><polygon class="t" points="361.28 52.27 347.82 75.59 374.74 75.59 361.28 52.27"/><polygon class="t" points="374.74 75.59 361.28 98.91 388.21 98.91 374.74 75.59"/><polygon class="u" points="428.6 75.59 415.13 98.91 442.06 98.91 428.6 75.59"/><polygon class="ac" points="455.52 75.59 442.06 98.91 468.99 98.91 455.52 75.59"/><polygon class="x" points="361.28 98.91 374.74 75.59 347.82 75.59 361.28 98.91"/><polygon class="v" points="388.21 98.91 401.67 75.59 374.74 75.59 388.21 98.91"/><polygon class="t" points="401.67 75.59 388.21 98.91 415.13 98.91 401.67 75.59"/><polygon class="x" points="415.13 98.91 428.6 75.59 401.67 75.59 415.13 98.91"/><polygon class="u" points="347.82 75.59 361.28 52.27 334.35 52.27 347.82 75.59"/><polygon class="t" points="374.74 75.59 388.21 52.27 361.28 52.27 374.74 75.59"/><polygon class="t" points="415.13 52.27 428.6 28.95 401.67 28.95 415.13 52.27"/><polygon class="aa" points="442.06 52.27 455.52 28.95 428.6 28.95 442.06 52.27"/><polygon class="y" points="468.99 52.27 482.45 28.95 455.52 28.95 468.99 52.27"/><polygon class="z" points="428.6 28.95 415.13 52.27 442.06 52.27 428.6 28.95"/><polygon class="ab" points="347.82 28.95 334.35 52.27 361.28 52.27 347.82 28.95"/><polygon class="af" points="361.28 52.27 374.74 28.95 347.82 28.95 361.28 52.27"/><polygon class="aa" points="388.21 52.27 401.67 28.95 374.74 28.95 388.21 52.27"/><polygon class="z" points="374.74 28.95 361.28 52.27 388.21 52.27 374.74 28.95"/><polygon class="aa" points="455.52 28.95 442.06 52.27 468.99 52.27 455.52 28.95"/><polygon class="x" points="509.37 28.95 495.91 52.27 522.84 52.27 509.37 28.95"/><polygon class="z" points="482.45 28.95 468.99 52.27 495.91 52.27 482.45 28.95"/><polygon class="ad" points="522.84 52.27 536.3 28.95 509.37 28.95 522.84 52.27"/><polygon class="t" points="495.91 52.27 509.37 28.95 482.45 28.95 495.91 52.27"/><polygon class="v" points="388.21 98.91 374.74 122.22 401.67 122.22 388.21 98.91"/><polygon class="v" points="401.67 122.22 415.13 98.91 388.21 98.91 401.67 122.22"/><polygon class="u" points="428.6 122.22 442.06 98.91 415.13 98.91 428.6 122.22"/><polygon class="u" points="455.52 122.22 468.99 98.91 442.06 98.91 455.52 122.22"/><polygon class="u" points="415.13 98.91 401.67 122.22 428.6 122.22 415.13 98.91"/><polygon class="u" points="334.35 98.91 320.89 122.22 347.82 122.22 334.35 98.91"/><polygon class="ae" points="347.72 75.59 334.25 98.91 361.18 98.91 347.72 75.59"/><polygon class="u" points="347.82 122.22 361.28 98.91 334.35 98.91 347.82 122.22"/><polygon class="v" points="374.74 122.22 388.21 98.91 361.28 98.91 374.74 122.22"/><polygon class="u" points="361.28 98.91 347.82 122.22 374.74 122.22 361.28 98.91"/><polygon class="u" points="442.06 98.91 428.6 122.22 455.52 122.22 442.06 98.91"/><polygon class="v" points="468.99 98.91 455.52 122.22 482.45 122.22 468.99 98.91"/><polygon class="v" points="482.45 122.22 495.91 98.91 468.99 98.91 482.45 122.22"/><polygon class="af" points="495.91 52.27 482.45 75.59 509.37 75.59 495.91 52.27"/><polygon class="t" points="482.45 75.59 468.99 98.91 495.91 98.91 482.45 75.59"/><polygon class="x" points="509.37 75.59 522.84 52.27 495.91 52.27 509.37 75.59"/><polygon class="v" points="495.91 98.91 509.37 75.59 482.45 75.59 495.91 98.91"/><polygon class="x" points="442.06 98.91 455.52 75.59 428.6 75.59 442.06 98.91"/><polygon class="x" points="468.99 98.91 482.45 75.59 455.52 75.59 468.99 98.91"/><polygon class="z" points="401.67 75.59 415.13 52.27 388.21 52.27 401.67 75.59"/><polygon class="z" points="428.6 75.59 442.06 52.27 415.13 52.27 428.6 75.59"/><polygon class="aa" points="455.52 75.59 468.99 52.27 442.06 52.27 455.52 75.59"/><polygon class="z" points="482.45 75.59 495.91 52.27 468.99 52.27 482.45 75.59"/><polygon class="aa" points="415.13 52.27 401.67 75.59 428.6 75.59 415.13 52.27"/><polygon class="aa" points="442.06 52.27 428.6 75.59 455.52 75.59 442.06 52.27"/><polygon class="aa" points="468.99 52.27 455.52 75.59 482.45 75.59 468.99 52.27"/></g></g></g></g></g><g><path class="s" d="M323.59,144.07c-3.31,0-5.36-2.53-5.36-5.72s2.13-5.69,5.36-5.69,5.36,2.47,5.36,5.69-2.06,5.72-5.36,5.72Zm0-9.33c-2,0-3.18,1.77-3.18,3.52s.83,3.72,3.18,3.72,3.18-2.06,3.18-3.72c0-1.75-1.18-3.52-3.18-3.52Z"/><path class="s" d="M333.15,142.78c0,.7-.57,1.29-1.28,1.29s-1.28-.59-1.28-1.29,.58-1.27,1.28-1.27,1.28,.56,1.28,1.27Z"/><path class="s" d="M335.29,132.66h1.52l5.71,7.57h.03v-7.29h2.11v11.05h-1.52l-5.71-7.58h-.03v7.36h-2.11v-11.12Z"/><path class="s" d="M349.37,142.78c0,.7-.57,1.29-1.28,1.29s-1.28-.59-1.28-1.29,.57-1.27,1.28-1.27,1.28,.56,1.28,1.27Z"/><path class="s" d="M361.09,138.02v.27c0,3.06-1.57,5.78-4.93,5.78-3.16,0-5.16-2.67-5.16-5.66s2.06-5.75,5.29-5.75c1.84,0,3.45,.93,4.28,2.59l-1.87,1.01c-.43-.98-1.35-1.72-2.47-1.72-2.04,0-3.05,2.08-3.05,3.88s1.02,3.79,3.06,3.79c1.32,0,2.43-1.15,2.47-2.46h-2.3v-1.72h4.67Z"/><path class="s" d="M365.3,142.78c0,.7-.57,1.29-1.28,1.29s-1.28-.59-1.28-1.29,.58-1.27,1.28-1.27,1.28,.56,1.28,1.27Z"/><path class="s" d="M369.56,134.78v2.39h3.36v1.84h-3.36v2.93h3.49v1.84h-5.61v-10.84h5.61v1.84h-3.49Z"/><path class="s" d="M377.62,142.78c0,.7-.57,1.29-1.28,1.29s-1.28-.59-1.28-1.29,.57-1.27,1.28-1.27,1.28,.56,1.28,1.27Z"/><path class="s" d="M385.26,132.94h2.6l-4.11,5,4.34,5.84h-2.72l-3.46-4.87h-.03v4.87h-2.11v-10.84h2.11v4.57h.03l3.35-4.57Z"/><path class="s" d="M391.84,142.78c0,.7-.57,1.29-1.28,1.29s-1.28-.59-1.28-1.29,.58-1.27,1.28-1.27,1.28,.56,1.28,1.27Z"/><path class="s" d="M396.1,143.78h-2.11v-10.84h2.11v10.84Z"/><path class="s" d="M402.94,132.94h3.02c3.13,0,5.23,2.34,5.23,5.43s-2.16,5.4-5.25,5.4h-3v-10.84Zm2.11,9h.34c2.6,0,3.61-1.44,3.61-3.58,0-2.36-1.21-3.58-3.61-3.58h-.34v7.16Z"/><path class="s" d="M415.02,141.5l-.89,2.29h-2.23l4.23-11.12h1.64l4.11,11.12h-2.26l-.83-2.29h-3.77Zm1.83-5.66h-.03l-1.19,3.94h2.57l-1.35-3.94Z"/><path class="s" d="M425.48,143.78h-2.11v-9h-2.18v-1.84h6.48v1.84h-2.18v9Z"/><path class="s" d="M430.08,141.5l-.89,2.29h-2.23l4.23-11.12h1.64l4.11,11.12h-2.26l-.83-2.29h-3.77Zm1.83-5.66h-.03l-1.19,3.94h2.57l-1.35-3.94Z"/><path class="s" d="M438.16,132.94h2.63c2.01,0,3.25,.79,3.25,2.95,0,.78-.27,1.67-.95,2.1,1.28,.23,1.85,1.52,1.85,2.72,0,2.13-1.49,3.08-3.46,3.08h-3.32v-10.84Zm2.11,4.51h.26c1.03,0,1.54-.3,1.54-1.42s-.63-1.39-1.52-1.39h-.27v2.82Zm0,4.63h.45c1.14,0,2.11-.14,2.11-1.55s-1.15-1.47-2.21-1.47h-.34v3.02Z"/><path class="s" d="M448.9,141.5l-.89,2.29h-2.23l4.23-11.12h1.64l4.11,11.12h-2.26l-.83-2.29h-3.77Zm1.83-5.66h-.03l-1.19,3.94h2.57l-1.35-3.94Z"/><path class="s" d="M462.08,135.33c-.4-.55-.92-.89-1.62-.89s-1.32,.52-1.32,1.22c0,1.83,4.3,1.06,4.3,4.7,0,2.17-1.35,3.71-3.56,3.71-1.5,0-2.59-.86-3.33-2.11l1.37-1.34c.29,.83,1.05,1.58,1.95,1.58s1.39-.73,1.39-1.57c0-1.12-1.04-1.44-1.88-1.77-1.39-.58-2.41-1.28-2.41-2.96,0-1.8,1.34-3.25,3.16-3.25,.96,0,2.3,.47,2.96,1.21l-.99,1.47Z"/><path class="s" d="M467.23,134.78v2.39h3.36v1.84h-3.36v2.93h3.49v1.84h-5.61v-10.84h5.61v1.84h-3.49Z"/></g></g></svg>