<?xml version="1.0" encoding="UTF-8"?><svg id="a" xmlns="http://www.w3.org/2000/svg" xmlns:xlink="http://www.w3.org/1999/xlink" viewBox="0 0 520 155"><defs><style>.m{fill:url(#g);}.n{fill:url(#h);}.o,.p{fill:none;}.q{fill:#fff;}.r{fill:#3251ff;}.s{fill:#2f78fe;}.t{fill:#2e8efe;}.u{fill:#1e2a6b;}.v{fill:#405ffd;}.w{fill:#141528;}.x{fill:#1d2c5a;}.y{fill:#1d2b59;}.z{fill:#443aff;}.aa{fill:#3657a5;}.ab{fill:#5a37ff;}.ac{fill:#2a4097;}.ad{fill:#2d479b;}.ae{fill:#294197;}.af{fill:#2f4c9e;}.ag{fill:#2f4a9d;}.ah{fill:#3354ff;}.ai{fill:#5cafff;}.aj{fill:#46a7ff;}.ak{fill:#3378fe;}.al{filter:url(#d);}.am{stroke-linejoin:round;}.am,.p{stroke:#fff;stroke-width:4px;}.p{stroke-miterlimit:10;}.an{clip-path:url(#k);}</style><filter id="d"><feGaussianBlur stdDeviation="1"/></filter><linearGradient id="g" x1="292.57" y1="115.52" x2="292.57" y2="11.52" gradientUnits="userSpaceOnUse"><stop offset="0" stop-color="#fecbf3"/><stop offset=".5" stop-color="#b6bdfd" stop-opacity=".5"/><stop offset="1" stop-color="#f0ffb8"/></linearGradient><linearGradient id="h" x1="279.85" y1="143.78" x2="279.85" y2="36.52" gradientUnits="userSpaceOnUse"><stop offset="0" stop-color="#9bc4f6"/><stop offset=".5" stop-color="#b6bdfd"/><stop offset="1" stop-color="#fcbbd7"/></linearGradient><clipPath id="k"><path class="o" d="M425.67,59.1l-29.11,50.42h-63.91l30.76-53.27h14l-22.87,39.61h32.47l-.86,1.48h-32.49l-.86,1.5h35.93l1.72-2.98,.27-.46,19.4-33.6-5.39-9.61h-47.97l7.89-13.67h50.1l.79,1.5h-45.76l-.86,1.5h47.41l9.34,17.59Zm77.66-19.09l.86-1.5h-62.91l-7.89,13.67h48.91l-2.98,5.16-21.28,15.26h9.39l6.28,11.78-6.35,11.01h0l-1.99,3.44h-35.93l.86-1.5h32.49l.86-1.48h-32.48l22.87-39.61h-14l-30.76,53.27h63.91l15.1-26.15-6.32-10.76h-6.56l15.3-10.76,11.74-20.33h-57.44l.86-1.5h57.44Z"/></clipPath></defs><g id="b"><g id="c"><g class="al"><path class="q" d="M127,65.52h-20.2l-7.77,13.46h29.31l1.15-2h2.88l6.33-10.96h3.62l1.44-2.5h-15.62l-1.15,2Zm-1.73,2.99h-14.2l.86-1.5h14.2l-.86,1.5Zm-28.49-14.54L59.37,118.77h-2.58l-1.15,2h-12l31.9-55.26L24.92,98.52H8.92L79.19,51.97H28.93l7.77-13.46h51.99l-.86,1.5H41.84l-.86,1.5h48.42l14.82-25.67h2.58l1.34-2.32h15.62l-1.44,2.5h-3.62l-14.72,25.49h33l-6.04,10.46h-3l-1.15,2h-30Zm138.98,13l-44.17,76.81h-14.92l45.32-78.81h-25.57l-19.94,34.54h-3l-1.15,2h-12c5.45-9.45,23.72-41.09,28.87-50h0l21.94-38h3l1.15-2h15.62l-1.44,2.5h-3.62l-21.65,37.5h64l-.86,1.5h-64l-.86,1.5h25.57s12,0,12,0h0s26.39,0,26.39,0l-6.04,10.46h-2.95l-1.15,2h-20.51Zm44.48-22.46l9.25-16.03,1.27,3-7.52,13.03h-3Zm-43.86-1.97l-1.27-3,7.52-13.03h3l-9.25,16.03Zm.85,2l11.56-20.03h3.36l.38-.71c5.28-9.02,16.67-16.14,25.87-15.79,9.62-.05,12.61,8.29,8.03,16.5h1.4l.83,1.97-11.56,20.03h-11l12.7-22h4.12l.55-.8c4.09-6.98,2.21-13.18-5.95-12.7-7.54,0-17.16,5.99-21.89,13.5h4.17l-12.7,22h-9.03l-.83-1.97Zm-100.42,50.96l19.05-32.99h11l-1.15,2h3l-25.06,43.41h-48l1.13-1.96h-6l7.77-13.46h37l-.86,1.5h-31.47v1.5h33.6Zm-31.1-56.99h33l-.86,1.5h-33l.86-1.5Zm197.97,38.5h19.79l-.86,1.5h-19.79l.86-1.5ZM68.25,115.52h120l-1.73,3H66.52l1.73-3Zm116.54,6H64.78l.87-1.5h120l-.87,1.5Zm96.66-6h199.8l-1.73,3H208.52l1.73-3h56.2l14.46-25.04h-23.19c1.84-3.19,5.96-10.32,7.77-13.46h20.99l-.86,1.5h-14.99l-.86,1.5h17.19l8.68-15.04h-23.2l7.77-13.46h20.99l-.86,1.5h-14.99l-.86,1.5h17.2l9.23-15.99h3l1.15-2h15.62l-1.44,2.5h-3.62l-8.94,15.49h10.8l.86-1.5h-10.8l.86-1.5h10.8l1.15-2h15.62l-1.44,2.5h-3.62l-6.33,10.96h-3.02l-1.15,2h-19.78l-8.68,15.04h19.79c-.89,1.55-5.06,8.76-6.04,10.46h-19.79l-14.46,25.04Zm-73.8,4.5H478.65l-.87,1.5H206.78l.87-1.5ZM404.72,52.18h-47.97l7.89-13.67h50.1l.79,1.5h-45.76l-.86,1.5h47.41l9.34,17.59-5.2,9h3l-25.06,43.41h-48l1.15-2h-18.91l30.76-53.27h3.21l1.1-1.91h17.49l-1.44,2.5h-3.62l-22.53,39.01h29.39l-.86,1.48h-29.39l-.86,1.5h32.83c.57-.99,20.13-34.86,21.38-37.04l-5.39-9.61Zm91.83-15.67l-1.15,2h-54.11l-7.89,13.67h48.91l-2.98,5.16-21.28,15.26h9.39l6.28,11.78-6.35,11.01h0l-1.99,3.44h-33.05l.86-1.5h29.61l.86-1.48h-29.61l22.53-39.01h3.62l1.44-2.5h-17.49l-1.1,1.91h-3l-30.76,53.27h18.91l-1.15,2h48l15.18-26.29h-3l1.08-1.86-6.32-10.76h-2.48l15.23-10.76h-4s6.85-11.87,6.85-11.87h3.2l6.33-10.96h3.62l1.44-2.5h-15.62Zm-2.88,4.99h-48.64l.86-1.5h48.64l-.86,1.5Z"/><path class="p" d="M127,65.52h-20.2l-7.77,13.46h29.31l1.15-2h2.88l6.33-10.96h3.62l1.44-2.5h-15.62l-1.15,2Zm-1.73,2.99h-14.2l.86-1.5h14.2l-.86,1.5Zm-28.49-14.54L59.37,118.77h-2.58l-1.15,2h-12l31.9-55.26L24.92,98.52H8.92L79.19,51.97H28.93l7.77-13.46h51.99l-.86,1.5H41.84l-.86,1.5h48.42l14.82-25.67h2.58l1.34-2.32h15.62l-1.44,2.5h-3.62l-14.72,25.49h33l-6.04,10.46h-3l-1.15,2h-30Zm138.98,13l-44.17,76.81h-14.92l45.32-78.81h-25.57l-19.94,34.54h-3l-1.15,2h-12c5.45-9.45,23.72-41.09,28.87-50h0l21.94-38h3l1.15-2h15.62l-1.44,2.5h-3.62l-21.65,37.5h64l-.86,1.5h-64l-.86,1.5h25.57s12,0,12,0h0s26.39,0,26.39,0l-6.04,10.46h-2.95l-1.15,2h-20.51Zm44.48-22.46l9.25-16.03,1.27,3-7.52,13.03h-3Zm-43.86-1.97l-1.27-3,7.52-13.03h3l-9.25,16.03Zm.85,2l11.56-20.03h3.36l.38-.71c5.28-9.02,16.67-16.14,25.87-15.79,9.62-.05,12.61,8.29,8.03,16.5h1.4l.83,1.97-11.56,20.03h-11l12.7-22h4.12l.55-.8c4.09-6.98,2.21-13.18-5.95-12.7-7.54,0-17.16,5.99-21.89,13.5h4.17l-12.7,22h-9.03l-.83-1.97Zm-100.42,50.96l19.05-32.99h11l-1.15,2h3l-25.06,43.41h-48l1.13-1.96h-6l7.77-13.46h37l-.86,1.5h-31.47v1.5h33.6Zm-31.1-56.99h33l-.86,1.5h-33l.86-1.5Zm197.97,38.5h19.79l-.86,1.5h-19.79l.86-1.5ZM68.25,115.52h120l-1.73,3H66.52l1.73-3Zm116.54,6H64.78l.87-1.5h120l-.87,1.5Zm96.66-6h199.8l-1.73,3H208.52l1.73-3h56.2l14.46-25.04h-23.19c1.84-3.19,5.96-10.32,7.77-13.46h20.99l-.86,1.5h-14.99l-.86,1.5h17.19l8.68-15.04h-23.2l7.77-13.46h20.99l-.86,1.5h-14.99l-.86,1.5h17.2l9.23-15.99h3l1.15-2h15.62l-1.44,2.5h-3.62l-8.94,15.49h10.8l.86-1.5h-10.8l.86-1.5h10.8l1.15-2h15.62l-1.44,2.5h-3.62l-6.33,10.96h-3.02l-1.15,2h-19.78l-8.68,15.04h19.79c-.89,1.55-5.06,8.76-6.04,10.46h-19.79l-14.46,25.04Zm-73.8,4.5H478.65l-.87,1.5H206.78l.87-1.5ZM404.72,52.18h-47.97l7.89-13.67h50.1l.79,1.5h-45.76l-.86,1.5h47.41l9.34,17.59-5.2,9h3l-25.06,43.41h-48l1.15-2h-18.91l30.76-53.27h3.21l1.1-1.91h17.49l-1.44,2.5h-3.62l-22.53,39.01h29.39l-.86,1.48h-29.39l-.86,1.5h32.83c.57-.99,20.13-34.86,21.38-37.04l-5.39-9.61Zm91.83-15.67l-1.15,2h-54.11l-7.89,13.67h48.91l-2.98,5.16-21.28,15.26h9.39l6.28,11.78-6.35,11.01h0l-1.99,3.44h-33.05l.86-1.5h29.61l.86-1.48h-29.61l22.53-39.01h3.62l1.44-2.5h-17.49l-1.1,1.91h-3l-30.76,53.27h18.91l-1.15,2h48l15.18-26.29h-3l1.08-1.86-6.32-10.76h-2.48l15.23-10.76h-4s6.85-11.87,6.85-11.87h3.2l6.33-10.96h3.62l1.44-2.5h-15.62Zm-2.88,4.99h-48.64l.86-1.5h48.64l-.86,1.5Z"/></g><g id="e"><g><g id="f"><path class="m" d="M122.49,16.02h-3.62l-16.45,28.5h-12l17.9-31h15.62l-1.44,2.5Zm42.17,83.5h12L226.02,14.02h3.62l1.44-2.5h-15.62l-50.81,88Zm-25.95-36h-10.38l-7.77,13.46h12l6.33-10.96h3.62l1.44-2.5h-5.24Zm176.53-27l-45.61,79h12l44.17-76.5h3.62l1.44-2.5h-15.62Zm69.97,17.82h-17.49l-30.7,53.18h13.87l29.26-50.68h3.62l1.44-2.5Zm76.43,0h-17.49l-30.7,53.18h13.87l29.26-50.68h3.62l1.44-2.5Zm33.09,7.51h-17.72s-14.97,10.76-14.97,10.76h17.46l15.23-10.76Z"/><path class="n" d="M156.87,64.52h12l-25.06,43.41h-48l6.04-10.46h36l19.02-32.95Zm22.72,79.26h12l44.34-76.81h20.51l6.04-10.46h-32.51l-50.39,87.27ZM322.76,62.97h12l6.33-10.96h3.62l1.44-2.5h-15.62l-7.77,13.46Zm-195.8-9l6.04-10.46h-42L47.55,118.77h12L96.96,53.97h30Zm265.49,47.08h-36l-6.04,10.46h48l25.06-43.41h-12l-19.02,32.95Zm76.64,0h-36l-6.04,10.46h48l15.18-26.29h-12l-9.14,15.82Zm27.46-64.54l-7.77,13.46h12l6.33-10.96h3.62l1.44-2.5h-15.62Z"/></g><path class="w" d="M280.41,44.52l9.25-16.03,1.27,3-7.52,13.03h-3Zm-34.61-18h-3l-7.52,13.03,1.27,3,9.25-16.03Zm-8.41,18.03l.83,1.97h9.03l12.7-22h-4.17c4.73-7.51,14.35-13.5,21.89-13.5h.88c3.09,0,5.31,1,6.4,2.91,1.37,2.37,.88,5.93-1.33,9.79l-.55,.8h-4.12l-12.7,22h11l11.56-20.03-.83-1.97h-1.4c2.42-4.56,2.8-8.94,.97-12.09-1.64-2.84-4.84-4.41-9-4.41h-.88c-8.75,0-19.94,7.07-24.98,15.79l-.38,.71h-3.36l-11.56,20.03ZM103.37,95.51v-1.5h31.47l.86-1.5h-37l-7.77,13.46h51l4.71-8.17h0l20.37-35.29h-11l-19.05,32.99h-33.6Zm27.74-43.54l6.04-10.46h-35.58l14.82-25.67h-12l-14.82,25.67H41.15l.86-1.5h45.99l.86-1.5H36.88l-7.77,13.46h50.26L9.1,98.52H25.1l50.61-33.01-31.9,55.25h12L95.53,51.97h35.58Zm-26.1-11.96h33l.86-1.5h-33l-.86,1.5Zm30.41,27l.86-1.5h-29.31l-7.77,13.46h29.31l6.04-10.46h-23.31l.86-1.5h23.31Zm125.13-2.04l6.04-10.46h-63.95l.86-1.5h64l.86-1.5h-67l21.94-38h-12l-21.94,38h0l-7.77,13.46h0l-21.1,36.54h12l21.1-36.54h28.57l-45.5,78.81h12l45.5-78.81h26.39Zm57.15-11.96h19.78l.86-1.5h-19.78l-.86,1.5Zm5.07,25.5l.86-1.5h-19.79l-.86,1.5h19.79ZM66.69,118.52h120l1.73-3H68.42l-1.73,3Zm119.14,1.5H65.83l-.87,1.5h120l.87-1.5Zm92.8-4.5l14.46-25.04h22.79l4.71-8.17,1.33-2.3h-22.79l8.68-15.04h22.78l6.04-10.46h-22.78l9.23-15.99h-12l-9.23,15.99h-17.2l.86-1.5h14.99l.86-1.5h-20.99l-7.77,13.46h23.2l-8.68,15.04h-17.19l.86-1.5h14.99l.86-1.5h-20.99l-3.05,5.29-4.71,8.17h23.19l-14.46,25.04h-56.2l-1.73,3H479.69l1.73-3h-202.8Zm-71.66,6H477.96l.87-1.5H207.83l-.87,1.5Z"/></g></g><g id="i"><g id="j"><g class="an"><rect id="l" class="w" x="332.65" y="38.52" width="171.54" height="71"/><g><polygon class="r" points="401.67 28.95 388.21 52.27 415.13 52.27 401.67 28.95"/><polygon class="ac" points="388.21 52.27 374.74 75.59 401.67 75.59 388.21 52.27"/><polygon class="v" points="361.28 52.27 347.82 75.59 374.74 75.59 361.28 52.27"/><polygon class="y" points="374.74 75.59 361.28 98.91 388.21 98.91 374.74 75.59"/><polygon class="w" points="428.6 75.59 415.13 98.91 442.06 98.91 428.6 75.59"/><polygon class="ae" points="455.52 75.59 442.06 98.91 468.99 98.91 455.52 75.59"/><polygon class="af" points="361.28 98.91 374.74 75.59 347.82 75.59 361.28 98.91"/><polygon class="u" points="388.21 98.91 401.67 75.59 374.74 75.59 388.21 98.91"/><polygon class="y" points="401.67 75.59 388.21 98.91 415.13 98.91 401.67 75.59"/><polygon class="af" points="415.13 98.91 428.6 75.59 401.67 75.59 415.13 98.91"/><polygon class="w" points="347.82 75.59 361.28 52.27 334.35 52.27 347.82 75.59"/><polygon class="aj" points="374.74 75.59 388.21 52.27 361.28 52.27 374.74 75.59"/><polygon class="ab" points="415.13 52.27 428.6 28.95 401.67 28.95 415.13 52.27"/><polygon class="v" points="442.06 52.27 455.52 28.95 428.6 28.95 442.06 52.27"/><polygon class="ah" points="468.99 52.27 482.45 28.95 455.52 28.95 468.99 52.27"/><polygon class="z" points="428.6 28.95 415.13 52.27 442.06 52.27 428.6 28.95"/><polygon class="r" points="347.82 28.95 334.35 52.27 361.28 52.27 347.82 28.95"/><polygon class="ag" points="361.28 52.27 374.74 28.95 347.82 28.95 361.28 52.27"/><polygon class="v" points="388.21 52.27 401.67 28.95 374.74 28.95 388.21 52.27"/><polygon class="z" points="374.74 28.95 361.28 52.27 388.21 52.27 374.74 28.95"/><polygon class="v" points="455.52 28.95 442.06 52.27 468.99 52.27 455.52 28.95"/><polygon class="af" points="509.37 28.95 495.91 52.27 522.84 52.27 509.37 28.95"/><polygon class="s" points="482.45 28.95 468.99 52.27 495.91 52.27 482.45 28.95"/><polygon class="aa" points="522.84 52.27 536.3 28.95 509.37 28.95 522.84 52.27"/><polygon class="ab" points="495.91 52.27 509.37 28.95 482.45 28.95 495.91 52.27"/><polygon class="u" points="388.21 98.91 374.74 122.22 401.67 122.22 388.21 98.91"/><polygon class="u" points="401.67 122.22 415.13 98.91 388.21 98.91 401.67 122.22"/><polygon class="w" points="428.6 122.22 442.06 98.91 415.13 98.91 428.6 122.22"/><polygon class="w" points="455.52 122.22 468.99 98.91 442.06 98.91 455.52 122.22"/><polygon class="w" points="415.13 98.91 401.67 122.22 428.6 122.22 415.13 98.91"/><polygon class="w" points="334.35 98.91 320.89 122.22 347.82 122.22 334.35 98.91"/><polygon class="x" points="347.72 75.59 334.25 98.91 361.18 98.91 347.72 75.59"/><polygon class="w" points="347.82 122.22 361.28 98.91 334.35 98.91 347.82 122.22"/><polygon class="u" points="374.74 122.22 388.21 98.91 361.28 98.91 374.74 122.22"/><polygon class="w" points="361.28 98.91 347.82 122.22 374.74 122.22 361.28 98.91"/><polygon class="w" points="442.06 98.91 428.6 122.22 455.52 122.22 442.06 98.91"/><polygon class="u" points="468.99 98.91 455.52 122.22 482.45 122.22 468.99 98.91"/><polygon class="u" points="482.45 122.22 495.91 98.91 468.99 98.91 482.45 122.22"/><polygon class="ad" points="495.91 52.27 482.45 75.59 509.37 75.59 495.91 52.27"/><polygon class="y" points="482.45 75.59 468.99 98.91 495.91 98.91 482.45 75.59"/><polygon class="af" points="509.37 75.59 522.84 52.27 495.91 52.27 509.37 75.59"/><polygon class="u" points="495.91 98.91 509.37 75.59 482.45 75.59 495.91 98.91"/><polygon class="af" points="442.06 98.91 455.52 75.59 428.6 75.59 442.06 98.91"/><polygon class="af" points="468.99 98.91 482.45 75.59 455.52 75.59 468.99 98.91"/><polygon class="ak" points="401.67 75.59 415.13 52.27 388.21 52.27 401.67 75.59"/><polygon class="t" points="428.6 75.59 442.06 52.27 415.13 52.27 428.6 75.59"/><polygon class="v" points="455.52 75.59 468.99 52.27 442.06 52.27 455.52 75.59"/><polygon class="t" points="482.45 75.59 495.91 52.27 468.99 52.27 482.45 75.59"/><polygon class="ai" points="415.13 52.27 401.67 75.59 428.6 75.59 415.13 52.27"/><polygon class="v" points="442.06 52.27 428.6 75.59 455.52 75.59 442.06 52.27"/><polygon class="v" points="468.99 52.27 455.52 75.59 482.45 75.59 468.99 52.27"/></g></g></g></g></g><g><g><path class="am" d="M323.59,144.07c-3.31,0-5.36-2.53-5.36-5.72s2.13-5.69,5.36-5.69,5.36,2.47,5.36,5.69-2.06,5.72-5.36,5.72Zm0-9.33c-2,0-3.18,1.77-3.18,3.52s.83,3.72,3.18,3.72,3.18-2.06,3.18-3.72c0-1.75-1.18-3.52-3.18-3.52Z"/><path class="am" d="M333.15,142.78c0,.7-.57,1.29-1.28,1.29s-1.28-.59-1.28-1.29,.58-1.27,1.28-1.27,1.28,.56,1.28,1.27Z"/><path class="am" d="M335.29,132.66h1.52l5.71,7.57h.03v-7.29h2.11v11.05h-1.52l-5.71-7.58h-.03v7.36h-2.11v-11.12Z"/><path class="am" d="M349.37,142.78c0,.7-.57,1.29-1.28,1.29s-1.28-.59-1.28-1.29,.57-1.27,1.28-1.27,1.28,.56,1.28,1.27Z"/><path class="am" d="M361.09,138.02v.27c0,3.06-1.57,5.78-4.93,5.78-3.16,0-5.16-2.67-5.16-5.66s2.06-5.75,5.29-5.75c1.84,0,3.45,.93,4.28,2.59l-1.87,1.01c-.43-.98-1.35-1.72-2.47-1.72-2.04,0-3.05,2.08-3.05,3.88s1.02,3.79,3.06,3.79c1.32,0,2.43-1.15,2.47-2.46h-2.3v-1.72h4.67Z"/><path class="am" d="M365.3,142.78c0,.7-.57,1.29-1.28,1.29s-1.28-.59-1.28-1.29,.58-1.27,1.28-1.27,1.28,.56,1.28,1.27Z"/><path class="am" d="M369.56,134.78v2.39h3.36v1.84h-3.36v2.93h3.49v1.84h-5.61v-10.84h5.61v1.84h-3.49Z"/><path class="am" d="M377.62,142.78c0,.7-.57,1.29-1.28,1.29s-1.28-.59-1.28-1.29,.57-1.27,1.28-1.27,1.28,.56,1.28,1.27Z"/><path class="am" d="M385.26,132.94h2.6l-4.11,5,4.34,5.84h-2.72l-3.46-4.87h-.03v4.87h-2.11v-10.84h2.11v4.57h.03l3.35-4.57Z"/><path class="am" d="M391.84,142.78c0,.7-.57,1.29-1.28,1.29s-1.28-.59-1.28-1.29,.58-1.27,1.28-1.27,1.28,.56,1.28,1.27Z"/><path class="am" d="M396.1,143.78h-2.11v-10.84h2.11v10.84Z"/><path class="am" d="M402.94,132.94h3.02c3.13,0,5.23,2.34,5.23,5.43s-2.16,5.4-5.25,5.4h-3v-10.84Zm2.11,9h.34c2.6,0,3.61-1.44,3.61-3.58,0-2.36-1.21-3.58-3.61-3.58h-.34v7.16Z"/><path class="am" d="M415.02,141.5l-.89,2.29h-2.23l4.23-11.12h1.64l4.11,11.12h-2.26l-.83-2.29h-3.77Zm1.83-5.66h-.03l-1.19,3.94h2.57l-1.35-3.94Z"/><path class="am" d="M425.48,143.78h-2.11v-9h-2.18v-1.84h6.48v1.84h-2.18v9Z"/><path class="am" d="M430.08,141.5l-.89,2.29h-2.23l4.23-11.12h1.64l4.11,11.12h-2.26l-.83-2.29h-3.77Zm1.83-5.66h-.03l-1.19,3.94h2.57l-1.35-3.94Z"/><path class="am" d="M438.16,132.94h2.63c2.01,0,3.25,.79,3.25,2.95,0,.78-.27,1.67-.95,2.1,1.28,.23,1.85,1.52,1.85,2.72,0,2.13-1.49,3.08-3.46,3.08h-3.32v-10.84Zm2.11,4.51h.26c1.03,0,1.54-.3,1.54-1.42s-.63-1.39-1.52-1.39h-.27v2.82Zm0,4.63h.45c1.14,0,2.11-.14,2.11-1.55s-1.15-1.47-2.21-1.47h-.34v3.02Z"/><path class="am" d="M448.9,141.5l-.89,2.29h-2.23l4.23-11.12h1.64l4.11,11.12h-2.26l-.83-2.29h-3.77Zm1.83-5.66h-.03l-1.19,3.94h2.57l-1.35-3.94Z"/><path class="am" d="M462.08,135.33c-.4-.55-.92-.89-1.62-.89s-1.32,.52-1.32,1.22c0,1.83,4.3,1.06,4.3,4.7,0,2.17-1.35,3.71-3.56,3.71-1.5,0-2.59-.86-3.33-2.11l1.37-1.34c.29,.83,1.05,1.58,1.95,1.58s1.39-.73,1.39-1.57c0-1.12-1.04-1.44-1.88-1.77-1.39-.58-2.41-1.28-2.41-2.96,0-1.8,1.34-3.25,3.16-3.25,.96,0,2.3,.47,2.96,1.21l-.99,1.47Z"/><path class="am" d="M467.23,134.78v2.39h3.36v1.84h-3.36v2.93h3.49v1.84h-5.61v-10.84h5.61v1.84h-3.49Z"/></g><g><path class="w" d="M323.59,144.07c-3.31,0-5.36-2.53-5.36-5.72s2.13-5.69,5.36-5.69,5.36,2.47,5.36,5.69-2.06,5.72-5.36,5.72Zm0-9.33c-2,0-3.18,1.77-3.18,3.52s.83,3.72,3.18,3.72,3.18-2.06,3.18-3.72c0-1.75-1.18-3.52-3.18-3.52Z"/><path class="w" d="M333.15,142.78c0,.7-.57,1.29-1.28,1.29s-1.28-.59-1.28-1.29,.58-1.27,1.28-1.27,1.28,.56,1.28,1.27Z"/><path class="w" d="M335.29,132.66h1.52l5.71,7.57h.03v-7.29h2.11v11.05h-1.52l-5.71-7.58h-.03v7.36h-2.11v-11.12Z"/><path class="w" d="M349.37,142.78c0,.7-.57,1.29-1.28,1.29s-1.28-.59-1.28-1.29,.57-1.27,1.28-1.27,1.28,.56,1.28,1.27Z"/><path class="w" d="M361.09,138.02v.27c0,3.06-1.57,5.78-4.93,5.78-3.16,0-5.16-2.67-5.16-5.66s2.06-5.75,5.29-5.75c1.84,0,3.45,.93,4.28,2.59l-1.87,1.01c-.43-.98-1.35-1.72-2.47-1.72-2.04,0-3.05,2.08-3.05,3.88s1.02,3.79,3.06,3.79c1.32,0,2.43-1.15,2.47-2.46h-2.3v-1.72h4.67Z"/><path class="w" d="M365.3,142.78c0,.7-.57,1.29-1.28,1.29s-1.28-.59-1.28-1.29,.58-1.27,1.28-1.27,1.28,.56,1.28,1.27Z"/><path class="w" d="M369.56,134.78v2.39h3.36v1.84h-3.36v2.93h3.49v1.84h-5.61v-10.84h5.61v1.84h-3.49Z"/><path class="w" d="M377.62,142.78c0,.7-.57,1.29-1.28,1.29s-1.28-.59-1.28-1.29,.57-1.27,1.28-1.27,1.28,.56,1.28,1.27Z"/><path class="w" d="M385.26,132.94h2.6l-4.11,5,4.34,5.84h-2.72l-3.46-4.87h-.03v4.87h-2.11v-10.84h2.11v4.57h.03l3.35-4.57Z"/><path class="w" d="M391.84,142.78c0,.7-.57,1.29-1.28,1.29s-1.28-.59-1.28-1.29,.58-1.27,1.28-1.27,1.28,.56,1.28,1.27Z"/><path class="w" d="M396.1,143.78h-2.11v-10.84h2.11v10.84Z"/><path class="w" d="M402.94,132.94h3.02c3.13,0,5.23,2.34,5.23,5.43s-2.16,5.4-5.25,5.4h-3v-10.84Zm2.11,9h.34c2.6,0,3.61-1.44,3.61-3.58,0-2.36-1.21-3.58-3.61-3.58h-.34v7.16Z"/><path class="w" d="M415.02,141.5l-.89,2.29h-2.23l4.23-11.12h1.64l4.11,11.12h-2.26l-.83-2.29h-3.77Zm1.83-5.66h-.03l-1.19,3.94h2.57l-1.35-3.94Z"/><path class="w" d="M425.48,143.78h-2.11v-9h-2.18v-1.84h6.48v1.84h-2.18v9Z"/><path class="w" d="M430.08,141.5l-.89,2.29h-2.23l4.23-11.12h1.64l4.11,11.12h-2.26l-.83-2.29h-3.77Zm1.83-5.66h-.03l-1.19,3.94h2.57l-1.35-3.94Z"/><path class="w" d="M438.16,132.94h2.63c2.01,0,3.25,.79,3.25,2.95,0,.78-.27,1.67-.95,2.1,1.28,.23,1.85,1.52,1.85,2.72,0,2.13-1.49,3.08-3.46,3.08h-3.32v-10.84Zm2.11,4.51h.26c1.03,0,1.54-.3,1.54-1.42s-.63-1.39-1.52-1.39h-.27v2.82Zm0,4.63h.45c1.14,0,2.11-.14,2.11-1.55s-1.15-1.47-2.21-1.47h-.34v3.02Z"/><path class="w" d="M448.9,141.5l-.89,2.29h-2.23l4.23-11.12h1.64l4.11,11.12h-2.26l-.83-2.29h-3.77Zm1.83-5.66h-.03l-1.19,3.94h2.57l-1.35-3.94Z"/><path class="w" d="M462.08,135.33c-.4-.55-.92-.89-1.62-.89s-1.32,.52-1.32,1.22c0,1.83,4.3,1.06,4.3,4.7,0,2.17-1.35,3.71-3.56,3.71-1.5,0-2.59-.86-3.33-2.11l1.37-1.34c.29,.83,1.05,1.58,1.95,1.58s1.39-.73,1.39-1.57c0-1.12-1.04-1.44-1.88-1.77-1.39-.58-2.41-1.28-2.41-2.96,0-1.8,1.34-3.25,3.16-3.25,.96,0,2.3,.47,2.96,1.21l-.99,1.47Z"/><path class="w" d="M467.23,134.78v2.39h3.36v1.84h-3.36v2.93h3.49v1.84h-5.61v-10.84h5.61v1.84h-3.49Z"/></g></g></g></svg>