<svg xmlns="http://www.w3.org/2000/svg" viewBox="0 0 680 320"><defs><clipPath id="a"><path d="M392.76 164.58c-35.68 2.54-47.53 15.65-67.31 49.92 12.19-22.16 16.8-34.41 13.78-41.74-1.76-4.28-4.92-5.27-17.88-4.93C181.73 171.57 126.7 189.77 66 291.87c-5.3 8.91-14.86 24.88-14.86 24.88s8.6-15.84 13.2-24.83c49.08-96.05 47-127-46.09-129.36C13.35 162.44 3 162 3 162s10.78-.25 15.9-.46c98.8-4 131.23-30.24 199.26-136.16C222.53 18.59 231.72 4 231.72 4s-8.34 14.63-12 21.4C162.77 130.26 181.17 150 321.85 157.11c14.46.73 23.6-.6 30.12-5.07 10.93-7.49 20.24-20.39 33.67-41.8-22.59 39.14-21.62 48.6 16.72 49.81 27.91.76 79.14 1.95 79.14 1.95s-74.13 1.81-88.74 2.58z" fill="none"/></clipPath><clipPath id="c"><path class="b" d="M471.38 100.46l-29.11 50.41h-63.91l30.76-53.27h14l-22.87 39.61h32.47l-.86 1.48h-32.49l-.86 1.5h35.93l1.72-3 .27-.46 19.39-33.6-5.39-9.61h-48l7.89-13.67h50.1l.79 1.5h-45.72l-.87 1.5H462zM549 81.37l.86-1.5H487l-7.9 13.67H528l-3 5.16-21.25 15.3h9.39l6.28 11.78-6.36 11-2 3.44h-35.9l.86-1.5h32.49l.86-1.48h-32.48l22.87-39.64h-14L455 150.87h63.91L534 124.72 527.69 114h-6.55l15.29-10.76 11.74-20.33h-57.44l.86-1.5z"/></clipPath><linearGradient id="d" x1="552.05" y1="167.37" x2="655.54" y2="107.62" gradientUnits="userSpaceOnUse"><stop offset=".5" stop-color="#fd2a25"/><stop offset=".58" stop-color="#fd3322"/><stop offset=".72" stop-color="#fe4d18"/><stop offset=".9" stop-color="#ff7609"/><stop offset=".99" stop-color="#ff8e00"/></linearGradient><filter id="b"><feGaussianBlur stdDeviation="1"/></filter><style>.b{fill:#405ffd}.i{opacity:.5}.f,.g,.h,.i,.j{fill:#ffc45e}.f{opacity:.4}.g{opacity:.8}.h{opacity:.6}.j,.p{opacity:.2}.p{fill:#ff6153}.u{fill:#fff}.w{fill:#48b3ff}.y{fill:#97ebff}.z{fill:#b3fbff}.ab{fill:#88dbff}.ac{fill:#c0f3ff}.ad{fill:#3aa5ff}.af{fill:#36caff}.ag{fill:#4bbaff}</style></defs><g clip-path="url(#a)"><path fill="#e63b06" d="M-5.56 4h565.33v312.75H-5.56z"/><g opacity=".5"><path class="f" d="M127.48 175.12l-17.58 30.45h35.16l-17.58-30.45zM109.9 144.66l-17.58 30.46h35.16l-17.58-30.46z"/><path class="g" d="M215.38 144.66l-17.58 30.46h35.17l-17.59-30.46z"/><path class="h" d="M145.06 144.66l-17.58 30.46h35.16l-17.58-30.46z"/><path class="i" d="M162.64 175.12l-17.58 30.45h35.16l-17.58-30.45z"/><path class="j" d="M162.64 175.12l17.58-30.46h-35.16l17.58 30.46z"/><path class="h" d="M145.06 205.57l17.58-30.45h-35.16l17.58 30.45z"/><path class="j" d="M127.48 175.12l17.58-30.46H109.9l17.58 30.46z"/><path class="h" d="M197.8 114.21l17.58-30.45h-35.16l17.58 30.45z"/><path class="j" d="M180.22 144.66l17.58-30.45h-35.16l17.58 30.45z"/><path class="f" d="M145.06 144.66l17.58-30.45h-35.16l17.58 30.45z"/><path class="h" d="M162.64 114.21l17.58-30.45h-35.16l17.58 30.45zM180.22 83.76l17.58-30.45h-35.16l17.58 30.45zM268.13 175.12l17.58-30.46h-35.16l17.58 30.46z"/><path class="h" d="M232.97 175.12l17.58-30.46h-35.17l17.59 30.46z"/><path class="j" d="M127.48 236.12l17.58-30.45H109.9l17.58 30.45zM109.9 205.57l17.58-30.45H92.32l17.58 30.45zM92.32 175.12l17.58-30.46H74.74l17.58 30.46z"/><path class="i" d="M180.22 144.66l-17.58 30.46h35.16l-17.58-30.46z"/><path class="h" d="M285.71 144.66l-17.58 30.46h35.16l-17.58-30.46z"/><path class="i" d="M250.55 144.66l-17.58 30.46h35.16l-17.58-30.46z"/><path fill="#fdee9f" opacity=".6" d="M338.45 175.12l17.58-30.46h-35.16l17.58 30.46z"/><path class="g" d="M303.29 175.12l17.58-30.46h-35.16l17.58 30.46z"/><path fill="#fddf29" opacity=".8" d="M356.03 144.66l-17.58 30.46h35.16l-17.58-30.46z"/><path class="h" d="M373.61 114.21l-17.58 30.45h35.16l-17.58-30.45z"/><path class="i" d="M320.87 144.66l-17.58 30.46h35.16l-17.58-30.46z"/><path opacity=".9" fill="#ffc45e" d="M356.03 205.57l17.58-30.45h-35.16l17.58 30.45z"/><path class="g" d="M338.45 175.12l-17.58 30.45h35.16l-17.58-30.45z"/><path opacity=".1" fill="#ffc45e" d="M408.77 175.12l17.58-30.46h-35.16l17.58 30.46z"/><path opacity=".05" fill="#ffc45e" d="M426.35 144.66l-17.58 30.46h35.16l-17.58-30.46z"/><path class="g" d="M180.22 83.76l-17.58 30.45h35.16l-17.58-30.45z"/><path class="i" d="M197.8 114.21l-17.58 30.45h35.16l-17.58-30.45z"/><path class="g" d="M197.8 53.31l-17.58 30.45h35.16L197.8 53.31z"/><path class="i" d="M215.38 83.76l-17.58 30.45h35.17l-17.59-30.45z"/><path class="f" d="M215.38 83.76l17.59-30.45H197.8l17.58 30.45z"/><path class="j" d="M215.38 22.86L197.8 53.31h35.17l-17.59-30.45z"/><path class="p" d="M373.61 144.65l-17.58 30.45h35.16l-17.58-30.45zM338.45 144.65l-17.58 30.45h35.16l-17.58-30.45z"/><path class="h" d="M373.61 175.12l17.58-30.46h-35.16l17.58 30.46zM391.19 144.66l-17.58 30.46h35.16l-17.58-30.46z"/></g></g><g filter="url(#b)" opacity=".5"><path d="M173.86 104.87l-1.15 2h-20.2l-7.77 13.46h29.32l1.15-2h2.88l6.33-11H188l1.44-2.5zm-2.88 5h-14.2l.87-1.5h14.19zm-28.49-14.54l-37.41 64.79h-2.58l-1.15 2h-12l31.9-55.25-50.61 33h-16l70.27-46.54H74.65l7.77-13.46h52l-.86 1.5h-46l-.86 1.5h48.42l14.81-25.67h2.58l1.34-2.33h15.62l-1.47 2.5h-3.61l-14.72 25.5h33l-6 10.46h-3l-1.16 2zm139 13l-44.19 76.81h-14.92l45.33-78.81h-25.57l-19.94 34.54h-3l-1.16 2H206c5.56-9.63 23.63-40.91 28.87-50l21.94-38h3l1.15-2h15.62l-1.44 2.5h-3.62l-21.65 37.5h64l-.86 1.5h-64l-.87 1.5h63.95l-6 10.46h-2.95l-1.15 2zM326 85.87l9.26-16 1.26 3-7.52 13zm-43.86-2l-1.27-3 7.52-13h3zm.84 2l11.57-20h3.36c6.5-16.25 45.08-26.91 34.27 0h1.4l.83 2-11.56 20h-11l12.7-22h4.12c11.88-22.41-21.59-12.82-27.29 0h4.17l-12.7 22h-9zm-100.42 51l19.05-33h11l-1.16 2h3l-25.06 43.42h-48l1.13-2h-6l7.77-13.46h37l-.87 1.5h-31.51v1.5zm-31.09-57h33l-.87 1.5h-33zm198 38.5h19.79l-.87 1.5h-19.87zM114 156.87h120l-1.73 3h-120zm116.54 6h-120l.86-1.5h120zm96.66-6H527l-1.73 3h-271l1.73-3h56.2l14.46-25h-23.23c1.85-3.22 5.95-10.3 7.77-13.46h21l-.86 1.5h-15l-.86 1.5h17.19l8.68-15h-23.2l7.77-13.46h21l-.86 1.5h-15l-.87 1.5h17.2l9.24-16h3l1.15-2h15.62l-1.4 2.42h-3.62l-8.95 15.5h10.8l.87-1.5h-10.8l.86-1.5h10.8l1.15-2h15.62l-1.44 2.5h-3.62l-6.32 11h-3l-1.16 2h-19.85l-8.68 15h19.79l-6 10.46h-19.83zm-73.8 4.5h271l-.86 1.5h-271zm197.03-67.83h-48l7.89-13.67h50.1l.79 1.5h-45.72l-.87 1.5H462l9.34 17.59-5.2 9h3l-25.06 43.41h-48l1.15-2h-18.87l30.76-53.27h3.21l1.1-1.9h17.49l-1.45 2.5h-3.62l-22.52 39h29.39l-.86 1.48h-29.39l-.86 1.5h32.83c.47-.82 20.17-34.93 21.38-37zm91.83-15.67l-1.16 2H487l-7.9 13.67H528l-3 5.16-21.25 15.3h9.39l6.28 11.78-6.36 11-2 3.44H478l.86-1.5h29.61l.86-1.48h-29.57l22.52-39h3.62l1.44-2.5h-17.48l-1.1 1.9h-3L455 150.87h18.91l-1.16 2h48l15.18-26.28h-3l1.08-1.87-6.32-10.72h-2.48l15.22-10.76h-4l6.86-11.87h3.2l6.32-11h3.62l1.44-2.5zm-2.89 5h-48.64l.86-1.5h48.65z"/><path d="M173.86 104.87l-1.15 2h-20.2l-7.77 13.46h29.32l1.15-2h2.88l6.33-11H188l1.44-2.5zm-2.88 5h-14.2l.87-1.5h14.19zm-28.49-14.54l-37.41 64.79h-2.58l-1.15 2h-12l31.9-55.25-50.61 33h-16l70.27-46.54H74.65l7.77-13.46h52l-.86 1.5h-46l-.86 1.5h48.42l14.81-25.67h2.58l1.34-2.33h15.62l-1.47 2.5h-3.61l-14.72 25.5h33l-6 10.46h-3l-1.16 2zm139 13l-44.19 76.81h-14.92l45.33-78.81h-25.57l-19.94 34.54h-3l-1.16 2H206c5.56-9.63 23.63-40.91 28.87-50h0l21.94-38h3l1.15-2h15.62l-1.44 2.5h-3.62l-21.65 37.5h64l-.86 1.5h-64l-.87 1.5h63.95l-6 10.46h-2.95l-1.15 2zM326 85.87l9.26-16 1.26 3-7.52 13zm-43.86-2l-1.27-3 7.52-13h3zm.84 2l11.57-20h3.36c6.5-16.25 45.08-26.91 34.27 0h1.4l.83 2-11.56 20h-11l12.7-22h4.12c11.88-22.41-21.59-12.82-27.29 0h4.17l-12.7 22h-9zm-100.42 51l19.05-33h11l-1.16 2h3l-25.06 43.42h-48l1.13-2h-6l7.77-13.46h37l-.87 1.5h-31.51v1.5zm-31.09-57h33l-.87 1.5h-33zm198 38.5h19.79l-.87 1.5h-19.87zM114 156.87h120l-1.73 3h-120zm116.54 6h-120l.86-1.5h120zm96.66-6H527l-1.73 3h-271l1.73-3h56.2l14.46-25h-23.23c1.85-3.22 5.95-10.3 7.77-13.46h21l-.86 1.5h-15l-.86 1.5h17.19l8.68-15h-23.2l7.77-13.46h21l-.86 1.5h-15l-.87 1.5h17.2l9.24-16h3l1.15-2h15.62l-1.4 2.42h-3.62l-8.95 15.5h10.8l.87-1.5h-10.8l.86-1.5h10.8l1.15-2h15.62l-1.44 2.5h-3.62l-6.32 11h-3l-1.16 2h-19.85l-8.68 15h19.79l-6 10.46h-19.83zm-73.8 4.5h271l-.86 1.5h-271zm197.03-67.83h-48l7.89-13.67h50.1l.79 1.5h-45.72l-.87 1.5H462l9.34 17.59-5.2 9h3l-25.06 43.41h-48l1.15-2h-18.87l30.76-53.27h3.21l1.1-1.9h17.49l-1.45 2.5h-3.62l-22.52 39h29.39l-.86 1.48h-29.39l-.86 1.5h32.83c.47-.82 20.17-34.93 21.38-37zm91.83-15.67l-1.16 2H487l-7.9 13.67H528l-3 5.16-21.25 15.3h9.39l6.28 11.78-6.36 11h0l-2 3.44H478l.86-1.5h29.61l.86-1.48h-29.57l22.52-39h3.62l1.44-2.5h-17.48l-1.1 1.9h-3L455 150.87h18.91l-1.16 2h48l15.18-26.28h-3l1.08-1.87-6.32-10.72h-2.48l15.22-10.76h-4l6.86-11.87h3.2l6.32-11h3.62l1.44-2.5zm-2.89 5h-48.64l.86-1.5h48.65z" stroke="#000" stroke-miterlimit="10" stroke-width="4" fill="none"/></g><path d="M168.2 57.37h-3.62l-16.45 28.5h-12l17.89-31h15.62zm108.6-4.5h-15.62l-50.81 88h12l49.37-85.5h3.61zm-87.14 52H174l-7.77 13.46h12l6.32-11h3.62zm186.9-27H361l-45.62 79h12l44.17-76.5h3.62zm54.36 17.83h-17.49l-30.7 53.17h13.86l29.26-50.67h3.62zm76.42 0h-17.48l-30.71 53.17H473l29.28-50.67h3.62zm33.09 7.5h-17.72l-15 10.76h17.46z" fill="#80acf9"/><path d="M172.67 95.33h-30l-37.41 64.79h-12l43.45-75.25h42zm135.53 2.54h-32.51l-50.39 87.27h12l44.35-76.81h20.51zm-166.68 51.42h48l25.06-43.42h-12l-19 32.95h-36zm250.34-58.42h-15.62l-7.77 13.46h12l6.33-11h3.62zm4.26 62h48l25.06-43.41h-12l-19 33h-36zm76.63 0h48l15.18-26.28h-12l-9.13 15.82h-36zm85.12-75h-15.61l-7.77 13.46h12l6.32-11h3.62z" fill="#ff503e"/><path class="u" d="M176.65 147.33l25.08-43.46h11l-25.08 43.46h-11zM206.22 142.87l50.8-88h12l-50.8 88h-12zM312.33 156.87l44.46-77h12l-44.46 77h-12zM54.81 139.87l77.01-51-10.39 18-50.62 33h-16zM333.7 65.87l.84 2-11.54 20h-11l12.7-22zm1.68 4l-9.25 16h3l7.52-13zM283.94 87.87l-.83-2 11.56-20h11l-12.7 22zm-1.68-4l9.26-16h-3L281 80.9z"/><path class="u" d="M330.8 68.24l-2.47-1.7 1-1.47c2.22-3.86 2.71-7.42 1.34-9.79-1.1-1.9-3.31-2.91-6.4-2.91h-.89c-7.79 0-17.82 6.4-22.36 14.25l-.65 1.23-2.65-1.41.68-1.27c5-8.73 16.23-15.8 25-15.8h.89c4.16 0 7.36 1.57 9 4.41 1.92 3.33 1.42 8-1.37 12.84l-.06.11zM182.36 139.16l1.33-2.29h-34.61v-1.5h31.47l.86-1.5h-37l-7.76 13.46h51l4.71-8.17h-10zM86.86 82.87l.87-1.5h45.99l.87-1.5h-52l-7.77 13.46h102l6.04-10.46h-96z"/><path class="u" d="M151.59 79.87l-.86 1.5h33l.86-1.5h-33zM156.96 109.87l.86-1.5h23.32l.86-1.5h-29.31l-7.77 13.46h29.31l6.04-10.46h-23.31zM248.36 95.87l.86-1.5h64l.86-1.5h-78.99l-7.77 13.46h78.95l6.04-10.46h-63.95zM330.36 95.87l.86-1.5h14.99l.87-1.5h-21l-7.76 13.46h57.98l6.04-10.46h-51.98z"/><path class="u" d="M364.29 92.87l-.87 1.5h19.78l.87-1.5h-19.78zM315.64 121.37l.87-1.5h14.99l.87-1.5h-21l-3.05 5.29-4.72 8.17H361.59l4.71-8.17 1.33-2.29h-51.99z"/><path class="u" d="M349.56 118.37l-.86 1.5h19.79l.86-1.5h-19.79zM234.13 156.87l-1.73 3h-120l1.73-3zm-123.46 6h120l.87-1.5h-120zM256.13 156.87l-1.73 3h271l1.73-3h-271zM252.67 162.87h271l.87-1.5h-271l-.87 1.5zM234.38 185.14l51.54-89.27h-12l-51.54 89.27h12zM89.52 162.12L150.1 57.2h12l-60.58 104.92h-12z"/><path class="b" d="M471.38 100.46l-29.11 50.41h-63.91l30.76-53.27h14l-22.87 39.61h32.47l-.86 1.48h-32.49l-.86 1.5h35.93l1.72-3 .27-.46 19.39-33.6-5.39-9.61h-48l7.89-13.67h50.1l.79 1.5h-45.72l-.87 1.5H462zM549 81.37l.86-1.5H487l-7.9 13.67H528l-3 5.16-21.25 15.3h9.39l6.28 11.78-6.36 11-2 3.44h-35.9l.86-1.5h32.49l.86-1.48h-32.48l22.87-39.64h-14L455 150.87h63.91L534 124.72 527.69 114h-6.55l15.29-10.76 11.74-20.33h-57.44l.86-1.5z"/><g clip-path="url(#c)"><path class="b" d="M378.36 79.87H549.9v71H378.36z"/><path class="w" d="M447.38 70.3l-13.46 23.32h26.93L447.38 70.3z"/><path fill="#76d8ff" d="M433.92 93.62l-13.47 23.32h26.93l-13.46-23.32z"/><path class="y" d="M406.99 93.62l-13.46 23.32h26.92l-13.46-23.32zM420.45 116.94l-13.46 23.32h26.93l-13.47-23.32z"/><path class="z" d="M474.31 116.94l-13.46 23.32h26.92l-13.46-23.32z"/><path fill="#4bb8ff" d="M501.24 116.94l-13.47 23.32h26.93l-13.46-23.32z"/><path class="ab" d="M406.99 140.26l13.46-23.32h-26.92l13.46 23.32z"/><path class="ac" d="M433.92 140.26l13.46-23.32h-26.93l13.47 23.32z"/><path class="y" d="M447.38 116.94l-13.46 23.32h26.93l-13.47-23.32z"/><path class="ab" d="M460.85 140.26l13.46-23.32h-26.93l13.47 23.32z"/><path class="z" d="M393.53 116.94l13.46-23.32h-26.92l13.46 23.32z"/><path class="y" d="M420.45 116.94l13.47-23.32h-26.93l13.46 23.32zM460.85 93.62l13.46-23.32h-26.93l13.47 23.32z"/><path class="ad" d="M487.77 93.62l13.47-23.32h-26.93l13.46 23.32z"/><path fill="#47b0ff" d="M514.7 93.62l13.46-23.32h-26.92l13.46 23.32z"/><path class="af" d="M474.31 70.3l-13.46 23.32h26.92L474.31 70.3z"/><path class="w" d="M393.53 70.3l-13.46 23.32h26.92L393.53 70.3z"/><path class="ag" d="M406.99 93.62l13.46-23.32h-26.92l13.46 23.32z"/><path class="ad" d="M433.92 93.62l13.46-23.32h-26.93l13.47 23.32z"/><path class="af" d="M420.45 70.3l-13.46 23.32h26.93L420.45 70.3z"/><path class="ad" d="M501.24 70.3l-13.47 23.32h26.93L501.24 70.3z"/><path class="ab" d="M555.09 70.3l-13.47 23.32h26.93L555.09 70.3z"/><path class="af" d="M528.16 70.3L514.7 93.62h26.92L528.16 70.3z"/><path fill="#44adff" d="M568.55 93.62l13.46-23.32h-26.92l13.46 23.32z"/><path class="y" d="M541.62 93.62l13.47-23.32h-26.93l13.46 23.32z"/><path class="ac" d="M433.92 140.26l-13.47 23.32h26.93l-13.46-23.32z"/><path class="ac" d="M447.38 163.58l13.47-23.32h-26.93l13.46 23.32z"/><path class="z" d="M474.31 163.58l13.46-23.32h-26.92l13.46 23.32zM501.24 163.58l13.46-23.32h-26.93l13.47 23.32z"/><path class="z" d="M460.85 140.26l-13.47 23.32h26.93l-13.46-23.32zM380.07 140.26l-13.47 23.32h26.93l-13.46-23.32z"/><path fill="#76d1ff" d="M393.43 116.94l-13.46 23.32h26.92l-13.46-23.32z"/><path class="z" d="M393.53 163.58l13.46-23.32h-26.92l13.46 23.32z"/><path class="ac" d="M420.45 163.58l13.47-23.32h-26.93l13.46 23.32z"/><path class="z" d="M406.99 140.26l-13.46 23.32h26.92l-13.46-23.32zM487.77 140.26l-13.46 23.32h26.93l-13.47-23.32z"/><path class="ac" d="M514.7 140.26l-13.46 23.32h26.92l-13.46-23.32z"/><path class="ac" d="M528.16 163.58l13.46-23.32H514.7l13.46 23.32z"/><path class="ag" d="M541.62 93.62l-13.46 23.32h26.93l-13.47-23.32z"/><path class="y" d="M528.16 116.94l-13.46 23.32h26.92l-13.46-23.32z"/><path class="ab" d="M555.09 116.94l13.46-23.32h-26.93l13.47 23.32z"/><path class="ac" d="M541.62 140.26l13.47-23.32h-26.93l13.46 23.32z"/><path class="ab" d="M487.77 140.26l13.47-23.32h-26.93l13.46 23.32zM514.7 140.26l13.46-23.32h-26.92l13.46 23.32z"/><path class="af" d="M447.38 116.94l13.47-23.32h-26.93l13.46 23.32z"/><path class="af" d="M474.31 116.94l13.46-23.32h-26.92l13.46 23.32z"/><path class="ad" d="M501.24 116.94l13.46-23.32h-26.93l13.47 23.32z"/><path class="af" d="M528.16 116.94l13.46-23.32H514.7l13.46 23.32z"/><path class="ad" d="M460.85 93.62l-13.47 23.32h26.93l-13.46-23.32zM487.77 93.62l-13.46 23.32h26.93l-13.47-23.32zM514.7 93.62l-13.46 23.32h26.92L514.7 93.62z"/></g><path d="M565.17 101.51H569v2h-3.8zM579 96.06l2.41 6.09 2.43-6.09h2.82l-4.21 10h-2.07l-4.2-10zm15.72 2.2h-3.09v1.67h2.92v2.2h-2.92v1.73h3.09v2.2H589v-10h5.69zm11.5 7.8h-3.23l-2.48-3.85v3.85h-2.6v-10h4a3.8 3.8 0 011.45.25 2.67 2.67 0 011 .67 2.84 2.84 0 01.61 1 3.35 3.35 0 01.21 1.19 3 3 0 01-.55 1.85 2.81 2.81 0 01-1.63 1zm-5.71-5.53h.49a1.91 1.91 0 001.18-.32 1.23 1.23 0 000-1.83 1.91 1.91 0 00-1.18-.32h-.49zm13.61-1.91a3.15 3.15 0 00-.84-.51 2.32 2.32 0 00-.83-.17 1.33 1.33 0 00-.82.24.76.76 0 00-.32.63.63.63 0 00.16.43 1.33 1.33 0 00.42.3 3 3 0 00.58.22l.65.2a4 4 0 011.86 1.13 2.81 2.81 0 01.59 1.85 3.62 3.62 0 01-.26 1.39 2.8 2.8 0 01-.76 1.07 3.33 3.33 0 01-1.21.69 5.24 5.24 0 01-1.64.24 6 6 0 01-3.51-1.12l1.11-2.1a4.45 4.45 0 001.15.77 2.75 2.75 0 001.13.25 1.34 1.34 0 001-.29.9.9 0 00.31-.66.93.93 0 00-.08-.39.85.85 0 00-.27-.31 1.78 1.78 0 00-.48-.25l-.72-.27c-.34-.11-.67-.22-1-.35a3.21 3.21 0 01-.86-.51 2.33 2.33 0 01-.61-.8 2.79 2.79 0 01-.23-1.23 3.59 3.59 0 01.24-1.34 3.15 3.15 0 01.69-1 3.08 3.08 0 011.09-.67 4.1 4.1 0 011.44-.24 6.2 6.2 0 011.55.21 7.31 7.31 0 011.55.6zm7-2.56v10h-2.6v-10zm3 5a5.36 5.36 0 01.41-2.08 5.15 5.15 0 012.88-2.79 6.27 6.27 0 014.46 0A5.16 5.16 0 01634.7 99a5.36 5.36 0 01.41 2.08 5.15 5.15 0 01-3.32 4.87 6.42 6.42 0 01-4.46 0 5.17 5.17 0 01-3.29-4.87zm2.72 0a2.67 2.67 0 00.22 1.1 2.73 2.73 0 00.61.87 2.84 2.84 0 00.9.58 2.88 2.88 0 002.16 0 2.84 2.84 0 00.9-.58 2.45 2.45 0 00.61-.87 2.67 2.67 0 00.23-1.1 2.64 2.64 0 00-.23-1.1 2.58 2.58 0 00-.61-.88 2.91 2.91 0 00-4 0 2.89 2.89 0 00-.61.88 2.64 2.64 0 00-.26 1.1zm11.32 5v-10h2.59l4.8 6.11v-6.11h2.59v10h-2.59l-4.8-6.11v6.11zm18.18-4.55h3.8v2h-3.8z" fill="#fff" opacity=".8"/><path d="M582.36 119.78c-1.21-1.88-4-2.82-7.11-2.82h-13.83l-19.23 33.32h8.24l7.36-12.75h2.38l.37 12.75h8l-.4-13.5a28.26 28.26 0 008.39-3.57 17.49 17.49 0 005.38-6c1.7-2.94 1.68-5.43.45-7.43zm-8.3 7.53a7.33 7.33 0 01-2.66 2.7 7.75 7.75 0 01-3.7 1.1h-6.21l4.34-7.5H572a2.52 2.52 0 012.33 1 2.57 2.57 0 01-.27 2.7zm31.26-3l-3.26 5.64h15.44l-4.19 7.25h-15.44l-3.27 5.68h16.25l-4.3 7.44h-24.39q.42-.65.69-1.11l17.95-31.1a11.74 11.74 0 00.54-1.11h24.45l-4.22 7.31zm58.36-2.5c-1.33-2.78-3.88-4.81-9.82-4.81h-12.31a9.64 9.64 0 01-.54 1.11l-18 31.1q-.28.51-.69 1.11H636a27.14 27.14 0 0015.24-4.81A33.94 33.94 0 00662 133.62c2.44-4.62 3.08-8.94 1.68-11.85zm-10.07 11.85a22 22 0 01-5.32 6.09c-2.9 2.17-5.47 3.42-9 3.42h-4.7l11-19h5.09c2.42 0 4 1.18 4.63 3s-.18 3.83-1.7 6.45zm-75.79 15.52a2.59 2.59 0 11-2.59-2.59 2.59 2.59 0 012.59 2.55zm39.61 0a2.59 2.59 0 11-2.59-2.59 2.59 2.59 0 012.59 2.55zm41.54 0a2.6 2.6 0 11-2.6-2.59 2.59 2.59 0 012.63 2.55z" fill="url(#d)"/></svg>