<svg xmlns="http://www.w3.org/2000/svg" viewBox="0 0 69.28 60">
<g fill="none" stroke="#fff" stroke-width="0.5">
  <path d="M25.98 45l-8.66 15h17.32l-8.66-15zM8.66 45L0 60h17.32L8.66 45zM0 30l8.66-15H-8.66L0 30zM17.32 30l8.66-15H8.66l8.66 15zM34.64 30l8.66-15H25.98l8.66 15zM8.66 15l8.66-15H0l8.66 15zM25.98 15l8.66-15H17.32l8.66 15zM43.3 15l8.66-15H34.64l8.66 15z"/>
  <path d="M17.32 0L8.66 15h17.32L17.32 0zM0 0l-8.66 15H8.66L0 0zM25.98 15l-8.66 15h17.32l-8.66-15zM8.66 15L0 30h17.32L8.66 15zM34.64 0l-8.66 15H43.3L34.64 0zM69.28 0l-8.66 15h17.32L69.28 0zM51.96 0L43.3 15h17.32L51.96 0zM60.62 15l-8.66 15h17.32l-8.66-15z"/>
  <path d="M43.3 15l-8.66 15h17.32L43.3 15zM69.28 30l8.66-15H60.62l8.66 15zM60.62 15l8.66-15H51.96l8.66 15z"/>
  <path d="M51.96 30l8.66-15H43.3l8.66 15zM69.28 30l-8.66 15h17.32l-8.66-15zM51.96 30L43.3 45h17.32l-8.66-15zM60.62 45l-8.66 15h17.32l-8.66-15z"/>
  <path d="M43.3 45l-8.66 15h17.32L43.3 45zM69.28 60l8.66-15H60.62l8.66 15zM60.62 45l8.66-15H51.96l8.66 15z"/>
  <path d="M51.96 60l8.66-15H43.3l8.66 15zM0 60l8.66-15H-8.66L0 60zM17.32 60l8.66-15H8.66l8.66 15zM34.64 60l8.66-15H25.98l8.66 15zM8.66 45l8.66-15H0l8.66 15zM25.98 45l8.66-15H17.32l8.66 15zM43.3 45l8.66-15H34.64l8.66 15z"/>
  <path d="M0 30l-8.66 15H8.66L0 30zM17.32 30L8.66 45h17.32l-8.66-15zM34.64 30l-8.66 15H43.3l-8.66-15z"/>
</g>
</svg>
