<svg xmlns="http://www.w3.org/2000/svg" viewBox="0 0 20 20"><defs><style>.c{fill:#fff}</style></defs><circle cx="10" cy="10" r="10" fill="#13ae2a"/><circle cx="10" cy="10" r="8.5" fill="none" stroke="#fff" stroke-width=".75"/><path class="c" d="M11.9 4.66a18.61 18.61 0 00-3.33-.3A18.24 18.24 0 0113 4.05l.65.08c-.72-.67-1.65-1-3.56-1.07a7.31 7.31 0 00-5.1 2.19l1.44.69a10.11 10.11 0 004.88 1.52 3.15 3.15 0 003.3-2 14.37 14.37 0 00-2.71-.8z"/><path class="c" d="M13.31 12.31a12.36 12.36 0 01-4.1 2.58 18.05 18.05 0 004.9-5.1 9.22 9.22 0 001.1-3.23c-1.47-.1-4.71.28-6.22 2.18-1.75 2.19-1.64 4.43-1.94 5.6a3.82 3.82 0 01-.78 1.27 7.57 7.57 0 003.94.86c1.55 0 5.21-1 6.15-4.43a7.13 7.13 0 00-.06-4.34 11.17 11.17 0 01-2.99 4.61z"/></svg>